<svg width="10" height="9" viewBox="0 0 10 9" fill="none" xmlns="http://www.w3.org/2000/svg">
<g clip-path="url(#clip0_80_6019)">
<path d="M4.92163 2.25879L4.92163 7.46458" stroke="#121213" stroke-linecap="round"/>
<g filter="url(#filter0_d_80_6019)">
<path d="M2.68147 1.24939C3.92492 1.48594 4.66602 1.98075 4.92165 2.26483C5.17728 1.98075 5.91838 1.48594 7.16183 1.24939C7.79177 1.12955 8.10674 1.06963 8.37498 1.29929C8.64323 1.52895 8.64323 1.90189 8.64323 2.64777V5.32832C8.64323 6.01032 8.64323 6.35131 8.47107 6.56421C8.29891 6.77711 7.91988 6.84922 7.16183 6.99343C6.48608 7.12198 5.95869 7.32681 5.57695 7.53264C5.20137 7.73515 5.01357 7.83641 4.92165 7.83641C4.82973 7.83641 4.64193 7.73515 4.26635 7.53264C3.88461 7.32681 3.35722 7.12198 2.68147 6.99343C1.92342 6.84922 1.54439 6.77711 1.37223 6.56421C1.20007 6.35131 1.20007 6.01032 1.20007 5.32832V2.64777C1.20007 1.90189 1.20007 1.52895 1.46832 1.29929C1.73656 1.06963 2.05153 1.12955 2.68147 1.24939Z" stroke="#121213" stroke-linecap="round" stroke-linejoin="round" shape-rendering="crispEdges"/>
</g>
</g>
<defs>
<filter id="filter0_d_80_6019" x="-3.29993" y="0.64325" width="16.4431" height="15.6932" filterUnits="userSpaceOnUse" color-interpolation-filters="sRGB">
<feFlood flood-opacity="0" result="BackgroundImageFix"/>
<feColorMatrix in="SourceAlpha" type="matrix" values="0 0 0 0 0 0 0 0 0 0 0 0 0 0 0 0 0 0 127 0" result="hardAlpha"/>
<feOffset dy="4"/>
<feGaussianBlur stdDeviation="2"/>
<feComposite in2="hardAlpha" operator="out"/>
<feColorMatrix type="matrix" values="0 0 0 0 0 0 0 0 0 0 0 0 0 0 0 0 0 0 0.25 0"/>
<feBlend mode="normal" in2="BackgroundImageFix" result="effect1_dropShadow_80_6019"/>
<feBlend mode="normal" in="SourceGraphic" in2="effect1_dropShadow_80_6019" result="shape"/>
</filter>
<clipPath id="clip0_80_6019">
<rect width="8.93179" height="8.92421" fill="white" transform="translate(0.455811 0.02771)"/>
</clipPath>
</defs>
</svg>
