<svg width="13" height="13" viewBox="0 0 13 13" fill="none" xmlns="http://www.w3.org/2000/svg">
<g clip-path="url(#clip0_124_1862)">
<path d="M6.08533 3.38569L6.08533 10.4213" stroke="#121213" stroke-width="0.709475" stroke-linecap="round"/>
<g filter="url(#filter0_d_124_1862)">
<path d="M3.06035 2.0215C4.73945 2.3412 5.74019 3.00994 6.08539 3.39387C6.43058 3.00994 7.43133 2.3412 9.11043 2.0215C9.96107 1.85954 10.3864 1.77856 10.7486 2.08895C11.1108 2.39933 11.1108 2.90336 11.1108 3.91141V7.53418C11.1108 8.4559 11.1108 8.91676 10.8784 9.20449C10.6459 9.49223 10.1341 9.58968 9.11043 9.78458C8.19792 9.95832 7.48576 10.2351 6.97028 10.5133C6.46311 10.787 6.20951 10.9239 6.08539 10.9239C5.96126 10.9239 5.70766 10.787 5.2005 10.5133C4.68502 10.2351 3.97285 9.95832 3.06035 9.78458C2.03671 9.58968 1.52489 9.49223 1.29241 9.20449C1.05994 8.91676 1.05994 8.4559 1.05994 7.53418V3.91141C1.05994 2.90336 1.05994 2.39933 1.42216 2.08895C1.78439 1.77856 2.20971 1.85954 3.06035 2.0215Z" stroke="#121213" stroke-width="0.709475" stroke-linecap="round" stroke-linejoin="round" shape-rendering="crispEdges"/>
</g>
</g>
<defs>
<filter id="filter0_d_124_1862" x="-0.71375" y="1.52332" width="13.5983" height="12.5932" filterUnits="userSpaceOnUse" color-interpolation-filters="sRGB">
<feFlood flood-opacity="0" result="BackgroundImageFix"/>
<feColorMatrix in="SourceAlpha" type="matrix" values="0 0 0 0 0 0 0 0 0 0 0 0 0 0 0 0 0 0 127 0" result="hardAlpha"/>
<feOffset dy="1.41895"/>
<feGaussianBlur stdDeviation="0.709475"/>
<feComposite in2="hardAlpha" operator="out"/>
<feColorMatrix type="matrix" values="0 0 0 0 0 0 0 0 0 0 0 0 0 0 0 0 0 0 0.25 0"/>
<feBlend mode="normal" in2="BackgroundImageFix" result="effect1_dropShadow_124_1862"/>
<feBlend mode="normal" in="SourceGraphic" in2="effect1_dropShadow_124_1862" result="shape"/>
</filter>
<clipPath id="clip0_124_1862">
<rect width="12.0611" height="12.0611" fill="white" transform="translate(0.0548096 0.370422)"/>
</clipPath>
</defs>
</svg>
