<svg width="12" height="13" viewBox="0 0 12 13" fill="none" xmlns="http://www.w3.org/2000/svg">
<g clip-path="url(#clip0_124_1564)">
<path d="M6.00537 3.60532L6.00537 10.3826" stroke="#121213" stroke-width="0.683425" stroke-linecap="round"/>
<g filter="url(#filter0_d_124_1564)">
<path d="M3.09127 2.29121C4.70872 2.59917 5.67272 3.24336 6.00524 3.61319C6.33775 3.24336 7.30176 2.59917 8.91921 2.29121C9.73861 2.13519 10.1483 2.05719 10.4972 2.35618C10.8462 2.65517 10.8462 3.14069 10.8462 4.11173V7.60148C10.8462 8.48935 10.8462 8.93329 10.6222 9.21046C10.3983 9.48763 9.90526 9.5815 8.91921 9.76924C8.0402 9.93661 7.35419 10.2033 6.85764 10.4712C6.36909 10.7349 6.12481 10.8667 6.00524 10.8667C5.88567 10.8667 5.64138 10.7349 5.15284 10.4712C4.65628 10.2033 3.97027 9.93661 3.09127 9.76924C2.10521 9.5815 1.61219 9.48763 1.38825 9.21046C1.16431 8.93329 1.16431 8.48935 1.16431 7.60148V4.11173C1.16431 3.14069 1.16431 2.65517 1.51323 2.35618C1.86216 2.05719 2.27186 2.13519 3.09127 2.29121Z" stroke="#121213" stroke-width="0.683425" stroke-linecap="round" stroke-linejoin="round" shape-rendering="crispEdges"/>
</g>
</g>
<defs>
<filter id="filter0_d_124_1564" x="-0.544341" y="1.81133" width="13.0992" height="12.1308" filterUnits="userSpaceOnUse" color-interpolation-filters="sRGB">
<feFlood flood-opacity="0" result="BackgroundImageFix"/>
<feColorMatrix in="SourceAlpha" type="matrix" values="0 0 0 0 0 0 0 0 0 0 0 0 0 0 0 0 0 0 127 0" result="hardAlpha"/>
<feOffset dy="1.36685"/>
<feGaussianBlur stdDeviation="0.683425"/>
<feComposite in2="hardAlpha" operator="out"/>
<feColorMatrix type="matrix" values="0 0 0 0 0 0 0 0 0 0 0 0 0 0 0 0 0 0 0.25 0"/>
<feBlend mode="normal" in2="BackgroundImageFix" result="effect1_dropShadow_124_1564"/>
<feBlend mode="normal" in="SourceGraphic" in2="effect1_dropShadow_124_1564" result="shape"/>
</filter>
<clipPath id="clip0_124_1564">
<rect width="11.6182" height="11.6182" fill="white" transform="translate(0.196289 0.70076)"/>
</clipPath>
</defs>
</svg>
