<svg width="12" height="12" viewBox="0 0 12 12" fill="none" xmlns="http://www.w3.org/2000/svg">
<g clip-path="url(#clip0_124_1474)">
<path d="M5.95898 2.94702L5.95898 9.72432" stroke="#121213" stroke-width="0.683425" stroke-linecap="round"/>
<g filter="url(#filter0_d_124_1474)">
<path d="M3.05584 1.63293C4.66711 1.94089 5.62744 2.58508 5.95868 2.95491C6.28993 2.58508 7.25026 1.94089 8.86153 1.63293C9.67781 1.47691 10.0859 1.39891 10.4335 1.6979C10.7811 1.99689 10.7811 2.48241 10.7811 3.45345V6.9432C10.7811 7.83107 10.7811 8.27501 10.5581 8.55218C10.335 8.82935 9.84382 8.92322 8.86153 9.11097C7.98588 9.27833 7.30249 9.54499 6.80783 9.81295C6.32115 10.0766 6.0778 10.2084 5.95868 10.2084C5.83957 10.2084 5.59622 10.0766 5.10954 9.81295C4.61488 9.54499 3.93148 9.27833 3.05584 9.11097C2.07355 8.92322 1.5824 8.82935 1.35932 8.55218C1.13623 8.27501 1.13623 7.83107 1.13623 6.9432V3.45345C1.13623 2.48241 1.13623 1.99689 1.48382 1.6979C1.83142 1.39891 2.23956 1.47691 3.05584 1.63293Z" stroke="#121213" stroke-width="0.683425" stroke-linecap="round" stroke-linejoin="round" shape-rendering="crispEdges"/>
</g>
</g>
<defs>
<filter id="filter0_d_124_1474" x="-0.572417" y="1.15305" width="13.0623" height="12.1308" filterUnits="userSpaceOnUse" color-interpolation-filters="sRGB">
<feFlood flood-opacity="0" result="BackgroundImageFix"/>
<feColorMatrix in="SourceAlpha" type="matrix" values="0 0 0 0 0 0 0 0 0 0 0 0 0 0 0 0 0 0 127 0" result="hardAlpha"/>
<feOffset dy="1.36685"/>
<feGaussianBlur stdDeviation="0.683425"/>
<feComposite in2="hardAlpha" operator="out"/>
<feColorMatrix type="matrix" values="0 0 0 0 0 0 0 0 0 0 0 0 0 0 0 0 0 0 0.25 0"/>
<feBlend mode="normal" in2="BackgroundImageFix" result="effect1_dropShadow_124_1474"/>
<feBlend mode="normal" in="SourceGraphic" in2="effect1_dropShadow_124_1474" result="shape"/>
</filter>
<clipPath id="clip0_124_1474">
<rect width="11.5739" height="11.6182" fill="white" transform="translate(0.171875 0.0424652)"/>
</clipPath>
</defs>
</svg>
