<svg width="80" height="80" viewBox="0 0 80 80" fill="none" xmlns="http://www.w3.org/2000/svg">
<path d="M12.5924 39.8079C9.43232 34.2978 7.90649 29.7983 6.98645 25.2375C5.62573 18.492 8.73969 11.9028 13.8983 7.69833C16.0785 5.92136 18.5778 6.52847 19.867 8.84141L22.7776 14.0631C25.0846 18.202 26.2381 20.2714 26.0093 22.4654C25.7805 24.6594 24.2249 26.4463 21.1136 30.0201L12.5924 39.8079ZM12.5924 39.8079C18.9887 50.961 29.0265 61.0043 40.1925 67.408M40.1925 67.408C45.7026 70.5681 50.2021 72.0939 54.763 73.014C61.5084 74.3747 68.0976 71.2607 72.3021 66.1022C74.0791 63.9219 73.4719 61.4226 71.159 60.1334L65.9373 57.2228C61.7985 54.9158 59.729 53.7623 57.535 53.9911C55.341 54.2199 53.5541 55.7755 49.9803 58.8868L40.1925 67.408Z" stroke="#121213" stroke-width="6" stroke-linejoin="round"/>
</svg>
