<svg width="27" height="26" viewBox="0 0 27 26" fill="none" xmlns="http://www.w3.org/2000/svg">
<path d="M4.88615 13.3265C3.89014 11.5898 3.40922 10.1717 3.11924 8.73414C2.69037 6.60807 3.67184 4.53125 5.29774 3.20607C5.98491 2.646 6.77265 2.83735 7.179 3.56636L8.09637 5.21216C8.82351 6.51666 9.18708 7.16891 9.11497 7.86042C9.04285 8.55194 8.55253 9.11514 7.57189 10.2416L4.88615 13.3265ZM4.88615 13.3265C6.90216 16.8418 10.0659 20.0073 13.5853 22.0256M13.5853 22.0256C15.322 23.0217 16.7401 23.5026 18.1777 23.7926C20.3037 24.2214 22.3806 23.24 23.7057 21.6141C24.2658 20.9269 24.0744 20.1392 23.3454 19.7328L21.6996 18.8154C20.3951 18.0883 19.7429 17.7247 19.0514 17.7968C18.3599 17.8689 17.7967 18.3593 16.6702 19.3399L13.5853 22.0256Z" stroke="#121213" stroke-width="1.89111" stroke-linejoin="round"/>
</svg>
