<svg width="44" height="43" viewBox="0 0 44 43" fill="none" xmlns="http://www.w3.org/2000/svg">
<path d="M7.29819 21.3967C5.59965 18.435 4.77951 16.0165 4.28499 13.5651C3.5536 9.93939 5.22736 6.39767 8.00009 4.13779C9.17196 3.18267 10.5153 3.50899 11.2083 4.75219L12.7727 7.55886C14.0128 9.78349 14.6328 10.8958 14.5098 12.0751C14.3868 13.2544 13.5507 14.2148 11.8783 16.1357L7.29819 21.3967ZM7.29819 21.3967C10.7362 27.3915 16.1315 32.7897 22.1332 36.2317M22.1332 36.2317C25.0949 37.9303 27.5134 38.7504 29.9649 39.2449C33.5905 39.9763 37.1323 38.3026 39.3921 35.5298C40.3473 34.358 40.0209 33.0146 38.7777 32.3216L35.9711 30.7572C33.7464 29.5172 32.6341 28.8972 31.4548 29.0201C30.2756 29.1431 29.3151 29.9793 27.3942 31.6516L22.1332 36.2317Z" stroke="#EFE3C8" stroke-width="3" stroke-linejoin="round"/>
<path d="M22.0303 12.5416H23.566C24.2899 12.5416 24.6519 12.5416 24.8768 12.7603C25.1017 12.9789 25.1017 13.3308 25.1017 14.0347C25.1017 15.4423 25.1017 16.1462 24.6519 16.5835C24.3098 16.9161 23.8092 16.9957 22.9521 17.0148C22.5125 17.0246 22.2927 17.0295 22.1615 17.16C22.0303 17.2905 22.0303 17.4992 22.0303 17.9166V20.0069C22.0303 20.7107 22.0303 21.0627 22.2552 21.2813C22.4801 21.5 22.842 21.5 23.566 21.5H25.1017M32.7803 12.5416V17.0208M32.7803 17.0208H30.1696C29.5904 17.0208 29.3008 17.0208 29.1209 16.8459C28.941 16.6709 28.941 16.3894 28.941 15.8263V12.5416M32.7803 17.0208V21.5" stroke="#EFE3C8" stroke-width="3" stroke-linecap="round" stroke-linejoin="round"/>
<path d="M18.4463 7.71342C18.6058 7.53427 18.7714 7.35866 18.9432 7.18687C23.748 2.38213 31.538 2.38213 36.3427 7.18687C41.1475 11.9916 41.1475 19.7816 36.3427 24.5864C36.1709 24.7582 35.9953 24.9238 35.8162 25.0833" stroke="#EFE3C8" stroke-width="3" stroke-linecap="round"/>
</svg>
