<svg width="1440" height="1000" viewBox="0 0 1440 1000" fill="none" xmlns="http://www.w3.org/2000/svg">
<path d="M611.476 111.544C549.102 168.197 470.705 -45.1377 324 40.1481C259.306 77.7573 219.974 108.483 136 111.544C29.5482 115.424 12.3326 48.5867 6.19157 6.7644C-4.79376 -68.0491 1.19234 603.238 6.19157 983.287C71.8387 1052.59 148.492 866.406 243.715 929.55C283.036 955.625 413.374 1049.56 479.242 950.391C545.11 851.223 667.364 983.287 774.15 983.287C880.935 983.287 987.175 857.666 1074.5 929.55C1161.83 1001.43 1230.19 927.396 1285.5 929.55C1288.99 1024.08 1439.54 900.617 1439.81 950.391C1440.23 1025.96 1439.81 104.843 1439.81 81.0849C1439.81 57.3267 1419.85 -1.7643 1302.09 6.7644C1184.33 15.2931 1036.62 222.416 1006.18 92.0506C975.744 -38.3148 673.851 54.89 611.476 111.544Z" fill="#704341" stroke="#704341"/>
</svg>
