<svg width="15" height="15" viewBox="0 0 15 15" fill="none" xmlns="http://www.w3.org/2000/svg">
<g clip-path="url(#clip0_124_1084)">
<g filter="url(#filter0_d_124_1084)">
<path fill-rule="evenodd" clip-rule="evenodd" d="M4.07616 6.93139C3.51313 6.93139 3.39563 7.04186 3.39563 7.5712V8.53092C3.39563 9.06025 3.51313 9.17073 4.07616 9.17073H5.43721V13.0096C5.43721 13.5389 5.55471 13.6494 6.11773 13.6494H7.47878C8.0418 13.6494 8.15931 13.5389 8.15931 13.0096V9.17073H9.68756C10.1146 9.17073 10.2246 9.0927 10.3419 8.70669L10.6336 7.74697C10.8345 7.08573 10.7107 6.93139 9.97922 6.93139H8.15931V5.33186C8.15931 4.97851 8.46399 4.69205 8.83983 4.69205H10.7767C11.3397 4.69205 11.4572 4.58158 11.4572 4.05224V2.77262C11.4572 2.24329 11.3397 2.13281 10.7767 2.13281H8.83983C6.96061 2.13281 5.43721 3.56508 5.43721 5.33186V6.93139H4.07616Z" stroke="#121213" stroke-width="1.15166" stroke-linejoin="round" shape-rendering="crispEdges"/>
</g>
</g>
<defs>
<filter id="filter0_d_124_1084" x="1.28428" y="1.55698" width="12.2843" height="15.7393" filterUnits="userSpaceOnUse" color-interpolation-filters="sRGB">
<feFlood flood-opacity="0" result="BackgroundImageFix"/>
<feColorMatrix in="SourceAlpha" type="matrix" values="0 0 0 0 0 0 0 0 0 0 0 0 0 0 0 0 0 0 127 0" result="hardAlpha"/>
<feOffset dy="1.53554"/>
<feGaussianBlur stdDeviation="0.767772"/>
<feComposite in2="hardAlpha" operator="out"/>
<feColorMatrix type="matrix" values="0 0 0 0 0 0 0 0 0 0 0 0 0 0 0 0 0 0 0.25 0"/>
<feBlend mode="normal" in2="BackgroundImageFix" result="effect1_dropShadow_124_1084"/>
<feBlend mode="normal" in="SourceGraphic" in2="effect1_dropShadow_124_1084" result="shape"/>
</filter>
<clipPath id="clip0_124_1084">
<rect x="0.516479" y="0.98114" width="13.8199" height="13.8199" fill="white"/>
</clipPath>
</defs>
</svg>
