<svg width="19" height="20" viewBox="0 0 19 20" fill="none" xmlns="http://www.w3.org/2000/svg">
<path d="M11.829 14.1844C11.2061 14.6693 10.3879 14.9635 9.49167 14.9635C8.59549 14.9635 7.77723 14.6693 7.1543 14.1844" stroke="#EFE3C8" stroke-width="1.01995" stroke-linecap="round"/>
<path d="M1.97397 11.2342C1.69893 9.44436 1.5614 8.54946 1.89978 7.75611C2.23816 6.96276 2.98889 6.41995 4.49035 5.33434L5.61217 4.52322C7.47997 3.17274 8.41387 2.4975 9.49145 2.4975C10.569 2.4975 11.5029 3.17274 13.3707 4.52322L14.4925 5.33434C15.994 6.41995 16.7447 6.96276 17.0831 7.75611C17.4215 8.54946 17.284 9.44436 17.0089 11.2342L16.7744 12.7604C16.3845 15.2977 16.1895 16.5663 15.2796 17.3232C14.3696 18.08 13.0393 18.08 10.3787 18.08H8.60417C5.94357 18.08 4.61327 18.08 3.70332 17.3232C2.79338 16.5663 2.59842 15.2977 2.20852 12.7604L1.97397 11.2342Z" stroke="#EFE3C8" stroke-width="1.01995" stroke-linejoin="round"/>
</svg>
