<svg width="56" height="55" viewBox="0 0 56 55" fill="none" xmlns="http://www.w3.org/2000/svg">
<path d="M34.9063 38.9583C33.074 40.3846 30.6672 41.25 28.0313 41.25C25.3953 41.25 22.9885 40.3846 21.1562 38.9583" stroke="#EFE3C8" stroke-width="3" stroke-linecap="round"/>
<path d="M5.91953 30.2808C5.11053 25.0164 4.70602 22.3841 5.7013 20.0506C6.69658 17.7171 8.90473 16.1206 13.321 12.9274L16.6207 10.5416C22.1145 6.56942 24.8614 4.58331 28.0309 4.58331C31.2004 4.58331 33.9473 6.56942 39.4412 10.5416L42.7408 12.9274C47.1571 16.1206 49.3653 17.7171 50.3605 20.0506C51.3558 22.3841 50.9513 25.0164 50.1423 30.2808L49.4524 34.77C48.3056 42.2329 47.7322 45.9644 45.0557 48.1905C42.3793 50.4166 38.4664 50.4166 30.6407 50.4166H25.4211C17.5954 50.4166 13.6826 50.4166 11.0061 48.1905C8.32967 45.9644 7.75625 42.2329 6.6094 34.77L5.91953 30.2808Z" stroke="#EFE3C8" stroke-width="3" stroke-linejoin="round"/>
</svg>
