<svg width="16" height="16" viewBox="0 0 16 16" fill="none" xmlns="http://www.w3.org/2000/svg">
<path d="M2.23254 8.46683C2.23254 5.67317 2.23254 4.27635 3.10042 3.40847C3.9683 2.54059 5.36513 2.54059 8.15879 2.54059C10.9524 2.54059 12.3493 2.54059 13.2172 3.40847C14.085 4.27635 14.085 5.67317 14.085 8.46683C14.085 11.2605 14.085 12.6573 13.2172 13.5252C12.3493 14.3931 10.9524 14.3931 8.15879 14.3931C5.36513 14.3931 3.9683 14.3931 3.10042 13.5252C2.23254 12.6573 2.23254 11.2605 2.23254 8.46683Z" stroke="#121213" stroke-width="1.15166" stroke-linejoin="round"/>
<path d="M10.9659 8.46684C10.9659 10.0172 9.70909 11.274 8.15873 11.274C6.60837 11.274 5.35156 10.0172 5.35156 8.46684C5.35156 6.91648 6.60837 5.65967 8.15873 5.65967C9.70909 5.65967 10.9659 6.91648 10.9659 8.46684Z" stroke="#121213" stroke-width="1.15166"/>
<path d="M11.5946 5.03586L11.5896 5.03586" stroke="#121213" stroke-width="1.15166" stroke-linecap="round" stroke-linejoin="round"/>
</svg>
