<svg width="16" height="16" viewBox="0 0 16 16" fill="none" xmlns="http://www.w3.org/2000/svg">
<path d="M2.23242 8.46683C2.23242 5.67317 2.23242 4.27635 3.1003 3.40847C3.96818 2.54059 5.36501 2.54059 8.15867 2.54059C10.9523 2.54059 12.3492 2.54059 13.217 3.40847C14.0849 4.27635 14.0849 5.67317 14.0849 8.46683C14.0849 11.2605 14.0849 12.6573 13.217 13.5252C12.3492 14.3931 10.9523 14.3931 8.15867 14.3931C5.36501 14.3931 3.96818 14.3931 3.1003 13.5252C2.23242 12.6573 2.23242 11.2605 2.23242 8.46683Z" stroke="#121213" stroke-width="1.15166" stroke-linejoin="round"/>
<path d="M10.9659 8.46684C10.9659 10.0172 9.70909 11.274 8.15873 11.274C6.60837 11.274 5.35156 10.0172 5.35156 8.46684C5.35156 6.91648 6.60837 5.65967 8.15873 5.65967C9.70909 5.65967 10.9659 6.91648 10.9659 8.46684Z" stroke="#121213" stroke-width="1.15166"/>
<path d="M11.5947 5.03586L11.5897 5.03586" stroke="#121213" stroke-width="1.15166" stroke-linecap="round" stroke-linejoin="round"/>
</svg>
