<svg width="16" height="16" viewBox="0 0 16 16" fill="none" xmlns="http://www.w3.org/2000/svg">
<path d="M2.23291 8.46683C2.23291 5.67317 2.23291 4.27635 3.10079 3.40847C3.96867 2.54059 5.3655 2.54059 8.15915 2.54059C10.9528 2.54059 12.3496 2.54059 13.2175 3.40847C14.0854 4.27635 14.0854 5.67317 14.0854 8.46683C14.0854 11.2605 14.0854 12.6573 13.2175 13.5252C12.3496 14.3931 10.9528 14.3931 8.15915 14.3931C5.3655 14.3931 3.96867 14.3931 3.10079 13.5252C2.23291 12.6573 2.23291 11.2605 2.23291 8.46683Z" stroke="#121213" stroke-width="1.15166" stroke-linejoin="round"/>
<path d="M10.9664 8.46684C10.9664 10.0172 9.70958 11.274 8.15922 11.274C6.60886 11.274 5.35205 10.0172 5.35205 8.46684C5.35205 6.91648 6.60886 5.65967 8.15922 5.65967C9.70958 5.65967 10.9664 6.91648 10.9664 8.46684Z" stroke="#121213" stroke-width="1.15166"/>
<path d="M11.5952 5.03586L11.5902 5.03586" stroke="#121213" stroke-width="1.15166" stroke-linecap="round" stroke-linejoin="round"/>
</svg>
