<svg width="39" height="39" viewBox="0 0 39 39" fill="none" xmlns="http://www.w3.org/2000/svg">
<path d="M4.0625 19.5002C4.0625 12.2229 4.0625 8.58428 6.32327 6.32351C8.58404 4.06274 12.2227 4.06274 19.5 4.06274C26.7773 4.06274 30.416 4.06274 32.6767 6.32351C34.9375 8.58428 34.9375 12.2229 34.9375 19.5002C34.9375 26.7776 34.9375 30.4162 32.6767 32.677C30.416 34.9377 26.7773 34.9377 19.5 34.9377C12.2227 34.9377 8.58404 34.9377 6.32327 32.677C4.0625 30.4162 4.0625 26.7776 4.0625 19.5002Z" stroke="#121213" stroke-width="3" stroke-linejoin="round"/>
<path d="M26.8125 19.5002C26.8125 23.5388 23.5386 26.8127 19.5 26.8127C15.4614 26.8127 12.1875 23.5388 12.1875 19.5002C12.1875 15.4617 15.4614 12.1877 19.5 12.1877C23.5386 12.1877 26.8125 15.4617 26.8125 19.5002Z" stroke="#121213" stroke-width="3"/>
<path d="M28.4502 10.5627L28.4371 10.5627" stroke="#121213" stroke-width="3" stroke-linecap="round" stroke-linejoin="round"/>
</svg>
