<svg width="55" height="55" viewBox="0 0 55 55" fill="none" xmlns="http://www.w3.org/2000/svg">
<path d="M17.8349 39.2132C15.3133 40.6611 8.70152 43.6176 12.7285 47.3171C14.6957 49.1243 16.8866 50.4167 19.641 50.4167H35.3588C38.1133 50.4167 40.3042 49.1243 42.2713 47.3171C46.2983 43.6176 39.6866 40.6611 37.1649 39.2132C31.2516 35.8179 23.7483 35.8179 17.8349 39.2132Z" stroke="#EFE3C8" stroke-width="3" stroke-linecap="round" stroke-linejoin="round"/>
<path d="M35.5207 22.9167C35.5207 27.3465 31.9296 30.9375 27.4998 30.9375C23.0701 30.9375 19.479 27.3465 19.479 22.9167C19.479 18.4869 23.0701 14.8959 27.4998 14.8959C31.9296 14.8959 35.5207 18.4869 35.5207 22.9167Z" stroke="#EFE3C8" stroke-width="3"/>
<path d="M6.54035 36.6667C5.28223 33.8396 4.58325 30.7106 4.58325 27.4188C4.58325 14.8072 14.8434 4.58337 27.4999 4.58337C40.1564 4.58337 50.4166 14.8072 50.4166 27.4188C50.4166 30.7106 49.7176 33.8396 48.4595 36.6667" stroke="#EFE3C8" stroke-width="3" stroke-linecap="round"/>
</svg>
