<svg width="71" height="61" viewBox="0 0 71 61" fill="none" xmlns="http://www.w3.org/2000/svg">
<g clip-path="url(#clip0_124_831)">
<path d="M36.0404 14.7404C38.5837 17.3083 40.8651 20.0457 43.7071 22.4365C45.7344 24.1421 49.5677 26.0421 49.6279 29.0913C49.6492 30.1904 49.0013 31.434 47.9323 31.8325C42.8652 33.7267 37.7185 28.1673 34.1994 25.3202C31.466 27.3645 28.1991 27.6668 24.9323 26.8968C21.6867 30.8007 16.4294 33.9461 17.6147 39.7654L7.72486 29.2703C-3.19708 13.9839 16.8873 -4.29016 31.0063 9.63337C32.6863 11.2889 34.4244 13.1041 36.0443 14.7404H36.0404Z" fill="#EAEAEA"/>
<path d="M50.2023 44.9628C50.2624 45.0283 51.0035 46.3392 51.0733 46.5028C52.1538 49.013 49.5815 51.1113 47.0983 50.1584C47.1041 52.7475 44.7898 53.3501 42.6364 52.6609C42.8227 54.8573 40.2988 56.1375 38.5625 54.7803C36.2501 52.9728 38.2269 49.0631 41.0825 50.1603C40.7799 48.1891 42.1456 46.5875 44.1865 46.6953C43.5113 44.1948 46.1516 41.9098 48.3574 43.4228C48.53 43.5403 50.1188 44.8724 50.2003 44.9628H50.2023Z" fill="#EAEAEA"/>
<path d="M54.6639 39.9578C54.6251 39.9116 53.7055 39.3995 53.6105 39.3649C51.3659 38.5352 49.6181 40.029 50.0177 42.3544C50.0468 42.5277 50.9023 44.1196 50.976 44.1928L50.2 44.9628C50.1186 44.8723 48.5297 43.5402 48.3571 43.4228C46.1514 41.9078 43.5111 44.1928 44.1862 46.6953C42.1454 46.5875 40.7796 48.1891 41.0823 50.1603C38.2247 49.065 36.2479 52.9727 38.5623 54.7803C35.8715 55.3693 33.2351 54.6494 31.0139 53.1267C27.2387 50.5376 23.708 46.7877 19.9329 44.1023C18.862 43.0012 17.9173 41.2649 17.6108 39.7653C16.4254 33.946 21.6827 30.8006 24.9283 26.8967C28.1951 27.6686 31.464 27.3644 34.1954 25.3201C37.7164 28.1672 42.8631 33.7266 47.9283 31.8324C48.9992 31.432 49.6452 30.1903 49.6239 29.0912C49.5657 26.0439 45.7323 24.142 43.7031 22.4364C40.8611 20.0456 38.5797 17.3082 36.0364 14.7403C39.5439 11.6699 42.6614 5.86412 47.4725 4.81692C50.1205 4.23942 52.8714 4.79574 55.1101 6.30687L71.233 19.3757C71.9702 20.652 70.8896 21.3122 69.6811 20.7232C64.9999 17.1196 60.571 13.183 55.9171 9.54857C54.5281 8.46479 52.1943 6.25297 50.491 6.07972C46.6907 5.69087 43.3442 10.3147 46.2154 13.4024L62.7923 26.7908C63.7293 27.9824 63.9213 29.505 62.8893 30.7043L54.66 39.9597H54.6639V39.9578Z" fill="#704341"/>
<path d="M49.9536 7.65433C50.3261 7.54075 50.7723 7.55615 51.0827 7.80448C56.1304 12.361 62.2083 16.3284 67.1727 20.9041C68.228 21.8781 69.2077 23.2796 66.8894 22.9157C61.9348 18.6461 56.6135 14.7711 51.6627 10.4995C51.1176 10.0298 48.4385 8.11248 49.9536 7.65433Z" fill="#704341"/>
<path d="M49.1525 10.9693C54.5281 14.7557 59.5468 20.0052 64.9476 23.8822C66.6645 25.528 65.4578 26.3654 63.6052 25.0218C58.1694 21.0794 53.1139 15.9704 47.6781 11.951C46.2018 10.488 47.4376 9.76037 49.1525 10.9693Z" fill="#704341"/>
<path d="M54.6638 39.9578C54.724 40.0271 55.4068 41.4709 55.4282 41.6037C55.7075 43.2958 54.8986 44.9782 53.011 44.9628C52.6521 44.9609 51.1758 44.393 50.976 44.1928C50.9023 44.1197 50.0467 42.5277 50.0176 42.3545C49.618 40.0291 51.3659 38.5353 53.6104 39.3649C53.7055 39.3996 54.6231 39.9116 54.6638 39.9578Z" fill="#EAEAEA"/>
</g>
<defs>
<clipPath id="clip0_124_831">
<rect width="71" height="61" fill="white"/>
</clipPath>
</defs>
</svg>
