<svg width="39" height="24" viewBox="0 0 39 24" fill="none" xmlns="http://www.w3.org/2000/svg">
<g clip-path="url(#clip0_124_387)">
<path d="M21.9512 6.72781H16.2197V16.8185H21.9512V6.72781Z" fill="#FF5F00"/>
<path d="M16.5836 11.7732C16.5827 10.8014 16.8075 9.84215 17.2409 8.96805C17.6743 8.09392 18.3051 7.3279 19.0854 6.7279C18.1191 5.98378 16.9586 5.52103 15.7366 5.39254C14.5145 5.26402 13.2802 5.47495 12.1748 6.00123C11.0693 6.5275 10.1373 7.34786 9.48517 8.36855C8.83309 9.38924 8.4873 10.5691 8.4873 11.7732C8.4873 12.9773 8.83309 14.1572 9.48517 15.1779C10.1373 16.1986 11.0693 17.019 12.1748 17.5452C13.2802 18.0715 14.5145 18.2824 15.7366 18.1539C16.9586 18.0254 18.1191 17.5627 19.0854 16.8185C18.3051 16.2186 17.6744 15.4525 17.2409 14.5784C16.8075 13.7043 16.5827 12.745 16.5836 11.7732Z" fill="#EB001B"/>
<path d="M29.6837 11.7732C29.6837 12.9774 29.338 14.1572 28.686 15.1779C28.0339 16.1986 27.1019 17.0189 25.9965 17.5452C24.891 18.0715 23.6567 18.2824 22.4347 18.1539C21.2127 18.0254 20.0522 17.5627 19.0859 16.8185C19.8656 16.218 20.4958 15.4518 20.9292 14.5778C21.3626 13.7038 21.5877 12.7449 21.5877 11.7732C21.5877 10.8016 21.3626 9.84263 20.9292 8.96865C20.4958 8.09467 19.8656 7.32851 19.0859 6.7279C20.0522 5.98378 21.2127 5.52103 22.4347 5.39254C23.6567 5.26403 24.891 5.47498 25.9965 6.00126C27.1019 6.52751 28.0339 7.3479 28.686 8.36859C29.338 9.38928 29.6837 10.5691 29.6837 11.7732Z" fill="#F79E1B"/>
<path d="M29.0583 15.7497V15.5431H29.1433V15.5011H28.9268V15.5431H29.0118V15.7497H29.0583ZM29.4787 15.7497V15.5006H29.4123L29.336 15.672L29.2596 15.5006H29.1932V15.7497H29.24V15.5618L29.3116 15.7238H29.3602L29.4318 15.5614V15.7497H29.4787Z" fill="#F79E1B"/>
<path d="M35.6594 0.180206H2.67851C1.42519 0.180206 0.40918 1.18497 0.40918 2.4244V20.9986C0.40918 22.238 1.42519 23.2428 2.67851 23.2428H35.6594C36.9127 23.2428 37.9288 22.238 37.9288 20.9986V2.4244C37.9288 1.18497 36.9127 0.180206 35.6594 0.180206Z" stroke="black" stroke-opacity="0.8" stroke-width="0.315185"/>
</g>
<defs>
<clipPath id="clip0_124_387">
<rect x="0.257812" y="0.0305939" width="37.8222" height="23.6388" fill="white"/>
</clipPath>
</defs>
</svg>
