<svg width="55" height="34" viewBox="0 0 55 34" fill="none" xmlns="http://www.w3.org/2000/svg">
<g clip-path="url(#clip0_124_2382)">
<path d="M31.5215 10.0132H23.4248V24.2796H31.5215V10.0132Z" fill="#FF5F00"/>
<path d="M23.9395 17.1465C23.9382 15.7726 24.2557 14.4163 24.868 13.1805C25.4803 11.9446 26.3714 10.8616 27.4737 10.0133C26.1086 8.96123 24.4692 8.30697 22.7429 8.12532C21.0165 7.94361 19.2728 8.24182 17.7111 8.98589C16.1495 9.72996 14.8328 10.8898 13.9116 12.3329C12.9904 13.776 12.502 15.4441 12.502 17.1465C12.502 18.8489 12.9904 20.517 13.9116 21.9601C14.8328 23.4032 16.1495 24.563 17.7111 25.3071C19.2728 26.0511 21.0165 26.3494 22.7429 26.1677C24.4692 25.986 26.1086 25.3317 27.4737 24.2797C26.3714 23.4314 25.4803 22.3484 24.868 21.1125C24.2557 19.8767 23.9382 18.5205 23.9395 17.1465Z" fill="#EB001B"/>
<path d="M42.4449 17.1465C42.4449 18.8489 41.9565 20.517 41.0354 21.9601C40.1143 23.4032 38.7976 24.563 37.236 25.3071C35.6743 26.0511 33.9307 26.3493 32.2044 26.1677C30.478 25.986 28.8386 25.3317 27.4736 24.2797C28.575 23.4306 29.4653 22.3473 30.0775 21.1117C30.6898 19.876 31.0079 18.5202 31.0079 17.1465C31.0079 15.7728 30.6898 14.417 30.0775 13.1813C29.4653 11.9457 28.575 10.8624 27.4736 10.0133C28.8386 8.96122 30.478 8.30697 32.2044 8.12531C33.9307 7.94361 35.6743 8.24186 37.236 8.98593C38.7976 9.72995 40.1143 10.8898 41.0354 12.3329C41.9565 13.776 42.4449 15.4441 42.4449 17.1465Z" fill="#F79E1B"/>
<path d="M41.5618 22.7685V22.4765H41.6819V22.417H41.376V22.4765H41.4961V22.7685H41.5618ZM42.1556 22.7685V22.4164H42.0619L41.9541 22.6586L41.8462 22.4164H41.7523V22.7685H41.8186V22.5029L41.9197 22.7319H41.9883L42.0895 22.5023V22.7685H42.1556Z" fill="#F79E1B"/>
<path d="M50.8872 0.755981H4.29568C2.52515 0.755981 1.08984 2.17654 1.08984 3.92888V30.1895C1.08984 31.9419 2.52515 33.3624 4.29568 33.3624H50.8872C52.6578 33.3624 54.0931 31.9419 54.0931 30.1895V3.92888C54.0931 2.17654 52.6578 0.755981 50.8872 0.755981Z" stroke="black" stroke-opacity="0.8"/>
</g>
<defs>
<clipPath id="clip0_124_2382">
<rect x="0.875977" y="0.544434" width="53.4307" height="33.4212" fill="white"/>
</clipPath>
</defs>
</svg>
