<svg width="28" height="28" viewBox="0 0 28 28" fill="none" xmlns="http://www.w3.org/2000/svg">
<path d="M8.84364 19.4445C7.59321 20.1625 4.31466 21.6285 6.31152 23.463C7.28696 24.3591 8.37336 25 9.73923 25H17.5331C18.899 25 19.9854 24.3591 20.9609 23.463C22.9577 21.6285 19.6792 20.1625 18.4287 19.4445C15.4965 17.7609 11.7759 17.7609 8.84364 19.4445Z" stroke="#EFE3C8" stroke-width="1.4876" stroke-linecap="round" stroke-linejoin="round"/>
<path d="M17.6137 11.3636C17.6137 13.5602 15.833 15.3409 13.6365 15.3409C11.4399 15.3409 9.65918 13.5602 9.65918 11.3636C9.65918 9.16704 11.4399 7.38635 13.6365 7.38635C15.833 7.38635 17.6137 9.16704 17.6137 11.3636Z" stroke="#EFE3C8" stroke-width="1.4876"/>
<path d="M3.24292 18.1818C2.61906 16.7799 2.27246 15.2283 2.27246 13.5961C2.27246 7.34235 7.36013 2.27271 13.6361 2.27271C19.9121 2.27271 24.9997 7.34235 24.9997 13.5961C24.9997 15.2283 24.6531 16.7799 24.0293 18.1818" stroke="#EFE3C8" stroke-width="1.4876" stroke-linecap="round"/>
</svg>
