<svg width="120" height="75" viewBox="0 0 120 75" fill="none" xmlns="http://www.w3.org/2000/svg">
<g clip-path="url(#clip0_124_3318)">
<path d="M68.827 21.2485H50.6426V53.2636H68.827V21.2485Z" fill="#FF5F00"/>
<path d="M51.7988 37.2564C51.7959 34.1731 52.509 31.1295 53.8842 28.3562C55.2594 25.5829 57.2606 23.1525 59.7364 21.2488C56.6705 18.8879 52.9886 17.4197 49.1114 17.0121C45.2341 16.6043 41.318 17.2735 37.8107 18.9433C34.3033 20.613 31.3462 23.2158 29.2773 26.4542C27.2084 29.6926 26.1113 33.4359 26.1113 37.2564C26.1113 41.0767 27.2084 44.8201 29.2773 48.0585C31.3462 51.2969 34.3033 53.8997 37.8107 55.5695C41.318 57.2391 45.2341 57.9084 49.1114 57.5007C52.9886 57.093 56.6705 55.6247 59.7364 53.2638C57.2606 51.3603 55.2595 48.9298 53.8843 46.1565C52.5091 43.3831 51.7959 40.3396 51.7988 37.2564Z" fill="#EB001B"/>
<path d="M93.3603 37.2564C93.3604 41.0767 92.2634 44.82 90.1947 48.0584C88.1259 51.2968 85.1689 53.8996 81.6617 55.5694C78.1543 57.2391 74.2383 57.9083 70.3611 57.5007C66.4839 57.093 62.802 55.6247 59.7363 53.2638C62.2099 51.3583 64.2094 48.9275 65.5845 46.1546C66.9595 43.3817 67.6739 40.3391 67.6739 37.2564C67.6739 34.1736 66.9595 31.131 65.5845 28.3581C64.2094 25.5852 62.2099 23.1544 59.7363 21.2488C62.802 18.8879 66.4839 17.4197 70.3611 17.0121C74.2383 16.6043 78.1543 17.2736 81.6617 18.9433C85.1689 20.613 88.1259 23.2159 90.1947 26.4543C92.2634 29.6927 93.3604 33.436 93.3603 37.2564Z" fill="#F79E1B"/>
<path d="M91.3773 49.8728V49.2173H91.6469V49.0838H90.96V49.2173H91.2298V49.8728H91.3773ZM92.711 49.8728V49.0825H92.5005L92.2583 49.6261L92.016 49.0825H91.8052V49.8728H91.9539V49.2767L92.1811 49.7907H92.3353L92.5625 49.2753V49.8728H92.711Z" fill="#F79E1B"/>
<path d="M112.32 0.474731H7.68047C3.70402 0.474731 0.480469 3.66258 0.480469 7.59498V66.5261C0.480469 70.4585 3.70402 73.6463 7.68047 73.6463H112.32C116.297 73.6463 119.52 70.4585 119.52 66.5261V7.59498C119.52 3.66258 116.297 0.474731 112.32 0.474731Z" stroke="black" stroke-opacity="0.8"/>
</g>
<defs>
<clipPath id="clip0_124_3318">
<rect width="120" height="75" fill="white"/>
</clipPath>
</defs>
</svg>
