<svg width="28" height="28" viewBox="0 0 28 28" fill="none" xmlns="http://www.w3.org/2000/svg">
<path d="M8.84376 19.4445C7.59333 20.1625 4.31479 21.6285 6.31164 23.463C7.28709 24.3591 8.37348 25 9.73935 25H17.5333C18.8991 25 19.9855 24.3591 20.961 23.463C22.9578 21.6285 19.6793 20.1625 18.4289 19.4445C15.4966 17.7609 11.776 17.7609 8.84376 19.4445Z" stroke="#EFE3C8" stroke-width="1.4876" stroke-linecap="round" stroke-linejoin="round"/>
<path d="M17.6137 11.3636C17.6137 13.5602 15.833 15.3409 13.6365 15.3409C11.4399 15.3409 9.65918 13.5602 9.65918 11.3636C9.65918 9.16704 11.4399 7.38635 13.6365 7.38635C15.833 7.38635 17.6137 9.16704 17.6137 11.3636Z" stroke="#EFE3C8" stroke-width="1.4876"/>
<path d="M3.24316 18.1818C2.6193 16.7799 2.27271 15.2283 2.27271 13.5961C2.27271 7.34235 7.36038 2.27271 13.6363 2.27271C19.9123 2.27271 25 7.34235 25 13.5961C25 15.2283 24.6534 16.7799 24.0295 18.1818" stroke="#EFE3C8" stroke-width="1.4876" stroke-linecap="round"/>
</svg>
