<svg width="18" height="11" viewBox="0 0 18 11" fill="none" xmlns="http://www.w3.org/2000/svg">
<g clip-path="url(#clip0_124_914)">
<path d="M10.3322 3.27852H7.78027V7.77507H10.3322V3.27852Z" fill="#FF5F00"/>
<path d="M7.94281 5.52684C7.94241 5.09379 8.04248 4.66631 8.23548 4.2768C8.42847 3.88728 8.70931 3.54592 9.05675 3.27855C8.6265 2.94696 8.10979 2.74075 7.56567 2.6835C7.02154 2.62623 6.47196 2.72022 5.97975 2.95474C5.48753 3.18925 5.07254 3.55482 4.7822 4.00965C4.49185 4.46449 4.33789 4.99025 4.33789 5.52684C4.33789 6.06341 4.49185 6.58917 4.7822 7.044C5.07254 7.49885 5.48753 7.86442 5.97975 8.09893C6.47196 8.33344 7.02154 8.42744 7.56567 8.37017C8.10979 8.31292 8.6265 8.10669 9.05675 7.77511C8.70931 7.50775 8.42848 7.16638 8.23549 6.77687C8.0425 6.38734 7.94241 5.95988 7.94281 5.52684Z" fill="#EB001B"/>
<path d="M13.7754 5.52683C13.7754 6.06341 13.6214 6.58915 13.3311 7.044C13.0408 7.49884 12.6258 7.8644 12.1336 8.09892C11.6414 8.33344 11.0918 8.42743 10.5477 8.37017C10.0036 8.31292 9.48687 8.10669 9.05664 7.7751C9.40377 7.50748 9.68439 7.16606 9.87735 6.7766C10.0703 6.38714 10.1706 5.95982 10.1706 5.52683C10.1706 5.09385 10.0703 4.66653 9.87735 4.27707C9.68439 3.88761 9.40377 3.54619 9.05664 3.27855C9.48687 2.94696 10.0036 2.74075 10.5477 2.68349C11.0918 2.62623 11.6414 2.72023 12.1336 2.95475C12.6258 3.18925 13.0408 3.55483 13.3311 4.00967C13.6214 4.4645 13.7754 4.99026 13.7754 5.52683Z" fill="#F79E1B"/>
<path d="M13.497 7.29881V7.20675H13.5349V7.18801H13.4385V7.20675H13.4763V7.29881H13.497ZM13.6842 7.29881V7.18782H13.6547L13.6207 7.26417L13.5867 7.18782H13.5571V7.29881H13.578V7.21509L13.6098 7.28728H13.6315L13.6634 7.2149V7.29881H13.6842Z" fill="#F79E1B"/>
<path d="M16.4366 0.360794H1.75164C1.1936 0.360794 0.741211 0.808531 0.741211 1.36084V9.63779C0.741211 10.1901 1.1936 10.6378 1.75164 10.6378H16.4366C16.9946 10.6378 17.447 10.1901 17.447 9.63779V1.36084C17.447 0.808531 16.9946 0.360794 16.4366 0.360794Z" stroke="black" stroke-opacity="0.8" stroke-width="0.315185"/>
</g>
<defs>
<clipPath id="clip0_124_914">
<rect x="0.673828" y="0.294128" width="16.8405" height="10.5338" fill="white"/>
</clipPath>
</defs>
</svg>
