<svg width="48" height="42" viewBox="0 0 48 42" fill="none" xmlns="http://www.w3.org/2000/svg">
<g clip-path="url(#clip0_124_1056)">
<path d="M24.3652 10.1491C26.0846 11.9172 27.6269 13.8019 29.5483 15.4481C30.9188 16.6224 33.5104 17.9306 33.551 20.03C33.5655 20.7868 33.1274 21.6431 32.4048 21.9174C28.9791 23.2216 25.4996 19.3938 23.1205 17.4336C21.2726 18.8411 19.064 19.0492 16.8554 18.5191C14.6612 21.207 11.107 23.3727 11.9084 27.3794L5.22225 20.1533C-2.1616 9.62822 11.4166 -2.9539 20.9618 6.63279C22.0976 7.77265 23.2727 9.02251 24.3678 10.1491H24.3652Z" fill="#EAEAEA"/>
<path d="M33.9395 30.958C33.9802 31.0031 34.4812 31.9057 34.5284 32.0184C35.2589 33.7467 33.5199 35.1914 31.8411 34.5353C31.845 36.318 30.2804 36.7328 28.8246 36.2583C28.9505 37.7706 27.2442 38.652 26.0704 37.7176C24.5071 36.4731 25.8435 33.7812 27.7741 34.5366C27.5695 33.1794 28.4928 32.0767 29.8725 32.1509C29.4161 30.4292 31.2011 28.8559 32.6923 29.8977C32.809 29.9786 33.8831 30.8957 33.9382 30.958H33.9395Z" fill="#EAEAEA"/>
<path d="M36.9555 27.5119C36.9293 27.4801 36.3076 27.1276 36.2434 27.1037C34.7259 26.5325 33.5443 27.561 33.8144 29.1621C33.8341 29.2814 34.4125 30.3775 34.4623 30.4278L33.9377 30.958C33.8826 30.8957 32.8085 29.9785 32.6918 29.8977C31.2006 28.8546 29.4156 30.4278 29.872 32.1509C28.4923 32.0767 27.569 33.1794 27.7736 34.5366C25.8417 33.7825 24.5053 36.473 26.0699 37.7176C24.2508 38.1232 22.4685 37.6275 20.9668 36.5791C18.4146 34.7964 16.0276 32.2145 13.4754 30.3655C12.7514 29.6074 12.1127 28.4119 11.9055 27.3794C11.1042 23.3727 14.6584 21.207 16.8526 18.519C19.0612 19.0505 21.2711 18.8411 23.1177 17.4335C25.4981 19.3938 28.9775 23.2216 32.4019 21.9174C33.1259 21.6417 33.5626 20.7868 33.5482 20.03C33.5088 17.9319 30.9173 16.6224 29.5454 15.4481C27.6241 13.8019 26.0817 11.9172 24.3623 10.1491C26.7335 8.03505 28.8412 4.03761 32.0937 3.31659C33.8839 2.91897 35.7437 3.30201 37.2572 4.34246L48.1572 13.3407C48.6556 14.2194 47.925 14.674 47.108 14.2684C43.9433 11.7873 40.9491 9.07682 37.8027 6.57445C36.8637 5.82824 35.2859 4.30535 34.1344 4.18606C31.5652 3.91833 29.3028 7.10196 31.2438 9.22791L42.4508 18.4461C43.0842 19.2666 43.2141 20.315 42.5163 21.1407L36.9529 27.5133H36.9555V27.5119Z" fill="#1C161E"/>
<path d="M33.7709 5.27026C34.0227 5.19206 34.3244 5.20267 34.5342 5.37364C37.9468 8.51089 42.0558 11.2426 45.412 14.3931C46.1254 15.0637 46.7877 16.0286 45.2205 15.7781C41.8709 12.8384 38.2734 10.1703 34.9264 7.22922C34.5578 6.90582 32.7466 5.58571 33.7709 5.27026Z" fill="#1C161E"/>
<path d="M33.2294 7.5526C36.8636 10.1597 40.2565 13.7741 43.9078 16.4435C45.0685 17.5767 44.2527 18.1532 43.0002 17.2281C39.3254 14.5137 35.9076 10.996 32.2327 8.22856C31.2346 7.22125 32.0701 6.72025 33.2294 7.5526Z" fill="#1C161E"/>
<path d="M36.9561 27.512C36.9968 27.5597 37.4584 28.5537 37.4728 28.6452C37.6617 29.8102 37.1148 30.9686 35.8387 30.958C35.5961 30.9567 34.598 30.5657 34.4629 30.4279C34.4131 30.3775 33.8347 29.2814 33.815 29.1621C33.5449 27.561 34.7265 26.5325 36.244 27.1037C36.3082 27.1276 36.9286 27.4802 36.9561 27.512Z" fill="#EAEAEA"/>
</g>
<defs>
<clipPath id="clip0_124_1056">
<rect width="48" height="42" fill="white"/>
</clipPath>
</defs>
</svg>
