<svg width="71" height="61" viewBox="0 0 71 61" fill="none" xmlns="http://www.w3.org/2000/svg">
<g clip-path="url(#clip0_124_2482)">
<path d="M36.0404 14.7404C38.5837 17.3083 40.8651 20.0457 43.7071 22.4365C45.7344 24.1421 49.5677 26.0421 49.6279 29.0913C49.6492 30.1904 49.0013 31.434 47.9323 31.8325C42.8652 33.7267 37.7185 28.1673 34.1994 25.3202C31.466 27.3645 28.1991 27.6668 24.9323 26.8968C21.6867 30.8007 16.4294 33.9461 17.6147 39.7654L7.72486 29.2703C-3.19708 13.9839 16.8873 -4.29016 31.0063 9.63337C32.6863 11.2889 34.4244 13.1041 36.0443 14.7404H36.0404Z" fill="#EAEAEA"/>
<path d="M50.2023 44.9628C50.2624 45.0283 51.0035 46.3392 51.0733 46.5028C52.1538 49.013 49.5815 51.1113 47.0983 50.1584C47.1041 52.7475 44.7898 53.3501 42.6364 52.6609C42.8227 54.8573 40.2988 56.1375 38.5625 54.7803C36.2501 52.9728 38.2269 49.0631 41.0825 50.1603C40.7799 48.1891 42.1456 46.5875 44.1865 46.6953C43.5113 44.1948 46.1516 41.9098 48.3574 43.4228C48.53 43.5403 50.1188 44.8724 50.2003 44.9628H50.2023Z" fill="#EAEAEA"/>
<path d="M54.6644 39.9578C54.6256 39.9116 53.706 39.3995 53.611 39.3649C51.3664 38.5352 49.6185 40.029 50.0182 42.3544C50.0473 42.5277 50.9028 44.1196 50.9765 44.1928L50.2005 44.9628C50.119 44.8723 48.5302 43.5402 48.3576 43.4228C46.1518 41.9078 43.5116 44.1928 44.1867 46.6953C42.1458 46.5875 40.7801 48.1891 41.0827 50.1603C38.2252 49.065 36.2484 52.9727 38.5627 54.7803C35.872 55.3693 33.2356 54.6494 31.0144 53.1267C27.2392 50.5376 23.7085 46.7877 19.9334 44.1023C18.8625 43.0012 17.9178 41.2649 17.6112 39.7653C16.4259 33.946 21.6832 30.8006 24.9287 26.8967C28.1956 27.6686 31.4645 27.3644 34.1959 25.3201C37.7169 28.1672 42.8636 33.7266 47.9288 31.8324C48.9997 31.432 49.6457 30.1903 49.6244 29.0912C49.5662 26.0439 45.7328 24.142 43.7036 22.4364C40.8616 20.0456 38.5802 17.3082 36.0369 14.7403C39.5444 11.6699 42.6619 5.86412 47.473 4.81692C50.121 4.23942 52.8718 4.79574 55.1105 6.30687L71.2335 19.3757C71.9707 20.652 70.8901 21.3122 69.6815 20.7232C65.0004 17.1196 60.5715 13.183 55.9176 9.54857C54.5286 8.46479 52.1948 6.25297 50.4915 6.07972C46.6912 5.69087 43.3447 10.3147 46.2159 13.4024L62.7928 26.7908C63.7298 27.9824 63.9218 29.505 62.8898 30.7043L54.6605 39.9597H54.6644V39.9578Z" fill="#704341"/>
<path d="M49.9546 7.65433C50.3271 7.54075 50.7733 7.55615 51.0837 7.80448C56.1314 12.361 62.2093 16.3284 67.1736 20.9041C68.229 21.8781 69.2086 23.2796 66.8904 22.9157C61.9358 18.6461 56.6145 14.7711 51.6637 10.4995C51.1186 10.0298 48.4395 8.11248 49.9546 7.65433Z" fill="#704341"/>
<path d="M49.1525 10.9693C54.5281 14.7557 59.5468 20.0052 64.9476 23.8822C66.6645 25.528 65.4578 26.3654 63.6052 25.0218C58.1694 21.0794 53.1139 15.9704 47.6781 11.951C46.2018 10.488 47.4376 9.76037 49.1525 10.9693Z" fill="#704341"/>
<path d="M54.6643 39.9578C54.7245 40.0271 55.4073 41.4709 55.4286 41.6037C55.708 43.2958 54.899 44.9782 53.0115 44.9628C52.6526 44.9609 51.1763 44.393 50.9765 44.1928C50.9027 44.1197 50.0472 42.5277 50.0181 42.3545C49.6185 40.0291 51.3664 38.5353 53.6109 39.3649C53.706 39.3996 54.6236 39.9116 54.6643 39.9578Z" fill="#EAEAEA"/>
</g>
<defs>
<clipPath id="clip0_124_2482">
<rect width="71" height="61" fill="white"/>
</clipPath>
</defs>
</svg>
