<svg width="55" height="55" viewBox="0 0 55 55" fill="none" xmlns="http://www.w3.org/2000/svg">
<path d="M17.8352 39.2132C15.3135 40.6611 8.70176 43.6176 12.7287 47.3171C14.6959 49.1243 16.8868 50.4167 19.6413 50.4167H35.359C38.1135 50.4167 40.3044 49.1243 42.2716 47.3171C46.2986 43.6176 39.6868 40.6611 37.1651 39.2132C31.2518 35.8179 23.7485 35.8179 17.8352 39.2132Z" stroke="#EFE3C8" stroke-width="3" stroke-linecap="round" stroke-linejoin="round"/>
<path d="M35.5212 22.9167C35.5212 27.3465 31.9301 30.9375 27.5003 30.9375C23.0705 30.9375 19.4795 27.3465 19.4795 22.9167C19.4795 18.4869 23.0705 14.8959 27.5003 14.8959C31.9301 14.8959 35.5212 18.4869 35.5212 22.9167Z" stroke="#EFE3C8" stroke-width="3"/>
<path d="M6.54059 36.6667C5.28247 33.8396 4.5835 30.7106 4.5835 27.4188C4.5835 14.8072 14.8436 4.58337 27.5002 4.58337C40.1567 4.58337 50.4168 14.8072 50.4168 27.4188C50.4168 30.7106 49.7179 33.8396 48.4597 36.6667" stroke="#EFE3C8" stroke-width="3" stroke-linecap="round"/>
</svg>
