<svg width="18" height="11" viewBox="0 0 18 11" fill="none" xmlns="http://www.w3.org/2000/svg">
<g clip-path="url(#clip0_124_776)">
<path d="M10.2121 3.2785H7.66016V7.77506H10.2121V3.2785Z" fill="#FF5F00"/>
<path d="M7.8227 5.52682C7.82229 5.09377 7.92237 4.6663 8.11536 4.27679C8.30835 3.88726 8.5892 3.54591 8.93664 3.27854C8.50638 2.94695 7.98967 2.74074 7.44555 2.68348C6.90143 2.62621 6.35185 2.7202 5.85963 2.95472C5.36742 3.18924 4.95242 3.5548 4.66208 4.00964C4.37174 4.46447 4.21777 4.99023 4.21777 5.52682C4.21777 6.06339 4.37174 6.58915 4.66208 7.04399C4.95242 7.49884 5.36742 7.8644 5.85963 8.09892C6.35185 8.33342 6.90143 8.42743 7.44555 8.37016C7.98967 8.3129 8.50638 8.10668 8.93664 7.77509C8.5892 7.50773 8.30836 7.16637 8.11537 6.77685C7.92238 6.38733 7.82229 5.95987 7.8227 5.52682Z" fill="#EB001B"/>
<path d="M13.6552 5.52682C13.6553 6.06339 13.5013 6.58914 13.211 7.04399C12.9207 7.49882 12.5057 7.86439 12.0135 8.09891C11.5213 8.33342 10.9717 8.42741 10.4276 8.37016C9.88346 8.3129 9.36675 8.10668 8.93652 7.77509C9.28365 7.50746 9.56427 7.16605 9.75724 6.77659C9.9502 6.38713 10.0505 5.9598 10.0505 5.52682C10.0505 5.09384 9.9502 4.66651 9.75724 4.27705C9.56427 3.88759 9.28365 3.54617 8.93652 3.27854C9.36675 2.94695 9.88346 2.74074 10.4276 2.68348C10.9717 2.62621 11.5213 2.72021 12.0135 2.95473C12.5057 3.18924 12.9207 3.55482 13.211 4.00965C13.5013 4.46449 13.6553 4.99025 13.6552 5.52682Z" fill="#F79E1B"/>
<path d="M13.3769 7.2988V7.20674H13.4148V7.18799H13.3184V7.20674H13.3562V7.2988H13.3769ZM13.5641 7.2988V7.18781H13.5346L13.5006 7.26416L13.4666 7.18781H13.437V7.2988H13.4579V7.21507L13.4897 7.28726H13.5114L13.5433 7.21489V7.2988H13.5641Z" fill="#F79E1B"/>
<path d="M16.3165 0.360779H1.63153C1.07348 0.360779 0.621094 0.808516 0.621094 1.36083V9.63778C0.621094 10.1901 1.07348 10.6378 1.63153 10.6378H16.3165C16.8745 10.6378 17.3269 10.1901 17.3269 9.63778V1.36083C17.3269 0.808516 16.8745 0.360779 16.3165 0.360779Z" stroke="black" stroke-opacity="0.8" stroke-width="0.315185"/>
</g>
<defs>
<clipPath id="clip0_124_776">
<rect x="0.553711" y="0.294113" width="16.8405" height="10.5338" fill="white"/>
</clipPath>
</defs>
</svg>
