<svg width="48" height="42" viewBox="0 0 48 42" fill="none" xmlns="http://www.w3.org/2000/svg">
<g clip-path="url(#clip0_124_1438)">
<path d="M24.3654 10.1491C26.0848 11.9172 27.6272 13.8019 29.5485 15.4481C30.9191 16.6224 33.5106 17.9306 33.5513 20.03C33.5657 20.7868 33.1277 21.6431 32.405 21.9174C28.9793 23.2216 25.4999 19.3938 23.1208 17.4336C21.2728 18.8411 19.0643 19.0492 16.8557 18.5191C14.6615 21.207 11.1073 23.3727 11.9086 27.3794L5.22249 20.1533C-2.16135 9.62822 11.4168 -2.9539 20.962 6.63279C22.0978 7.77265 23.2729 9.02251 24.368 10.1491H24.3654Z" fill="#EAEAEA"/>
<path d="M33.9395 30.958C33.9802 31.0031 34.4812 31.9057 34.5284 32.0184C35.2589 33.7467 33.5199 35.1914 31.8411 34.5353C31.845 36.318 30.2804 36.7328 28.8246 36.2583C28.9505 37.7706 27.2442 38.652 26.0704 37.7176C24.5071 36.4731 25.8435 33.7812 27.7741 34.5366C27.5695 33.1794 28.4928 32.0767 29.8725 32.1509C29.4161 30.4292 31.2011 28.8559 32.6923 29.8977C32.809 29.9786 33.8831 30.8957 33.9382 30.958H33.9395Z" fill="#EAEAEA"/>
<path d="M36.956 27.5119C36.9298 27.4801 36.3081 27.1276 36.2438 27.1037C34.7264 26.5325 33.5447 27.561 33.8149 29.1621C33.8346 29.2814 34.413 30.3775 34.4628 30.4278L33.9382 30.958C33.8831 30.8957 32.809 29.9785 32.6923 29.8977C31.2011 28.8546 29.4161 30.4278 29.8725 32.1509C28.4928 32.0767 27.5695 33.1794 27.7741 34.5366C25.8422 33.7825 24.5058 36.473 26.0704 37.7176C24.2513 38.1232 22.469 37.6275 20.9673 36.5791C18.4151 34.7964 16.0281 32.2145 13.4759 30.3655C12.7519 29.6074 12.1132 28.4119 11.906 27.3794C11.1047 23.3727 14.6589 21.207 16.8531 18.519C19.0616 19.0505 21.2716 18.8411 23.1182 17.4335C25.4986 19.3938 28.978 23.2216 32.4024 21.9174C33.1264 21.6417 33.5631 20.7868 33.5487 20.03C33.5093 17.9319 30.9178 16.6224 29.5459 15.4481C27.6246 13.8019 26.0822 11.9172 24.3628 10.1491C26.734 8.03505 28.8416 4.03761 32.0942 3.31659C33.8844 2.91897 35.7442 3.30201 37.2577 4.34246L48.1577 13.3407C48.6561 14.2194 47.9255 14.674 47.1085 14.2684C43.9438 11.7873 40.9496 9.07682 37.8032 6.57445C36.8642 5.82824 35.2864 4.30535 34.1349 4.18606C31.5657 3.91833 29.3033 7.10196 31.2443 9.22791L42.4513 18.4461C43.0847 19.2666 43.2146 20.315 42.5168 21.1407L36.9534 27.5133H36.956V27.5119Z" fill="#1C161E"/>
<path d="M33.7716 5.27026C34.0235 5.19206 34.3251 5.20267 34.535 5.37364C37.9475 8.51089 42.0565 11.2426 45.4127 14.3931C46.1262 15.0637 46.7885 16.0286 45.2212 15.7781C41.8716 12.8384 38.2741 10.1703 34.9271 7.22922C34.5586 6.90582 32.7474 5.58571 33.7716 5.27026Z" fill="#1C161E"/>
<path d="M33.2299 7.5526C36.8641 10.1597 40.257 13.7741 43.9083 16.4435C45.069 17.5767 44.2532 18.1532 43.0007 17.2281C39.3259 14.5137 35.908 10.996 32.2332 8.22856C31.2351 7.22125 32.0705 6.72025 33.2299 7.5526Z" fill="#1C161E"/>
<path d="M36.9559 27.512C36.9965 27.5597 37.4582 28.5537 37.4726 28.6452C37.6615 29.8102 37.1146 30.9686 35.8385 30.958C35.5958 30.9567 34.5978 30.5657 34.4627 30.4279C34.4128 30.3775 33.8345 29.2814 33.8148 29.1621C33.5446 27.561 34.7263 26.5325 36.2437 27.1037C36.308 27.1276 36.9283 27.4802 36.9559 27.512Z" fill="#EAEAEA"/>
</g>
<defs>
<clipPath id="clip0_124_1438">
<rect width="48" height="42" fill="white"/>
</clipPath>
</defs>
</svg>
