<svg width="56" height="55" viewBox="0 0 56 55" fill="none" xmlns="http://www.w3.org/2000/svg">
<path d="M5.11328 13.7499L20.9556 22.7263C26.7961 26.0356 29.2638 26.0356 35.1043 22.7263L50.9466 13.7499" stroke="#EFE3C8" stroke-width="3" stroke-linejoin="round"/>
<path d="M5.14941 30.8816C5.29923 37.9067 5.37414 41.4193 7.96631 44.0214C10.5585 46.6234 14.1661 46.714 21.3814 46.8953C25.8284 47.007 30.2315 47.007 34.6785 46.8953C41.8938 46.714 45.5014 46.6234 48.0936 44.0214C50.6858 41.4193 50.7607 37.9067 50.9105 30.8816C50.9587 28.6227 50.9587 26.3772 50.9105 24.1183C50.7607 17.0931 50.6858 13.5806 48.0936 10.9785C45.5014 8.37649 41.8938 8.28585 34.6785 8.10456C30.2315 7.99282 25.8284 7.99282 21.3814 8.10454C14.1661 8.28581 10.5585 8.37645 7.9663 10.9785C5.37413 13.5805 5.29922 17.0931 5.14941 24.1183C5.10124 26.3772 5.10124 28.6227 5.14941 30.8816Z" stroke="#EFE3C8" stroke-width="3" stroke-linejoin="round"/>
</svg>
