<svg width="32" height="33" viewBox="0 0 32 33" fill="none" xmlns="http://www.w3.org/2000/svg">
<path d="M3.09668 8.50745L12.1753 13.6515C15.5223 15.5479 16.9364 15.5479 20.2834 13.6515L29.3621 8.50745" stroke="#121213" stroke-width="1.26074" stroke-linejoin="round"/>
<path d="M3.11738 18.3249C3.20324 22.3508 3.24617 24.3637 4.73164 25.8549C6.21712 27.346 8.28453 27.3979 12.4194 27.5018C14.9677 27.5659 17.491 27.5659 20.0394 27.5018C24.1742 27.3979 26.2416 27.346 27.7271 25.8549C29.2126 24.3637 29.2555 22.3508 29.3414 18.3249C29.369 17.0305 29.369 15.7436 29.3414 14.4492C29.2555 10.4233 29.2126 8.41037 27.7271 6.91925C26.2416 5.42812 24.1742 5.37617 20.0394 5.27228C17.491 5.20825 14.9677 5.20825 12.4193 5.27227C8.28453 5.37616 6.21712 5.4281 4.73164 6.91923C3.24616 8.41035 3.20323 10.4233 3.11738 14.4492C3.08978 15.7436 3.08978 17.0305 3.11738 18.3249Z" stroke="#121213" stroke-width="1.57592" stroke-linejoin="round"/>
</svg>
