<svg width="100" height="100" viewBox="0 0 100 100" fill="none" xmlns="http://www.w3.org/2000/svg">
<path d="M8.33301 25L37.1373 41.3207C47.7563 47.3375 52.243 47.3375 62.8621 41.3207L91.6663 25" stroke="#121213" stroke-width="4" stroke-linejoin="round"/>
<path d="M8.3987 56.1483C8.6711 68.9214 8.80729 75.3079 13.5203 80.0389C18.2334 84.7699 24.7927 84.9347 37.9115 85.2643C45.9968 85.4674 54.0026 85.4674 62.0879 85.2643C75.2067 84.9347 81.766 84.7699 86.4791 80.0389C91.1921 75.3079 91.3283 68.9214 91.6007 56.1483C91.6883 52.0413 91.6883 47.9586 91.6007 43.8516C91.3283 31.0785 91.1921 24.692 86.4791 19.961C81.766 15.23 75.2067 15.0652 62.0879 14.7356C54.0026 14.5325 45.9968 14.5325 37.9114 14.7356C24.7927 15.0652 18.2334 15.23 13.5203 19.9609C8.80727 24.6919 8.67108 31.0784 8.39869 43.8515C8.31111 47.9585 8.31111 52.0413 8.3987 56.1483Z" stroke="#121213" stroke-width="5" stroke-linejoin="round"/>
</svg>
