<svg width="51" height="51" viewBox="0 0 51 51" fill="none" xmlns="http://www.w3.org/2000/svg">
<path d="M11.0076 32.5048C8.3353 34.0712 1.32858 37.2695 5.59614 41.2717C7.68081 43.2268 10.0026 44.625 12.9216 44.625H29.5784C32.4974 44.625 34.8192 43.2268 36.9039 41.2717C41.1714 37.2695 34.1647 34.0712 31.4924 32.5048C25.2258 28.8317 17.2742 28.8317 11.0076 32.5048Z" stroke="#EFE3C8" stroke-width="3" stroke-linecap="round" stroke-linejoin="round"/>
<path d="M29.75 14.875C29.75 19.5694 25.9444 23.375 21.25 23.375C16.5556 23.375 12.75 19.5694 12.75 14.875C12.75 10.1806 16.5556 6.375 21.25 6.375C25.9444 6.375 29.75 10.1806 29.75 14.875Z" stroke="#EFE3C8" stroke-width="3"/>
<path d="M46.75 9.5625L41.4375 14.875M41.4375 14.875L36.125 20.1875M41.4375 14.875L46.75 20.1875M41.4375 14.875L36.125 9.5625" stroke="#EFE3C8" stroke-width="3" stroke-linecap="round" stroke-linejoin="round"/>
</svg>
