<svg width="34" height="35" viewBox="0 0 34 35" fill="none" xmlns="http://www.w3.org/2000/svg">
<path d="M12.0596 21.128H21.804M12.0596 14.1676H16.9318" stroke="#121213" stroke-width="1.26074" stroke-linecap="round" stroke-linejoin="round"/>
<path d="M19.954 30.024C25.777 29.6369 30.4153 24.9328 30.797 19.0272C30.8717 17.8715 30.8717 16.6747 30.797 15.519C30.4153 9.61335 25.777 4.90922 19.954 4.52214C17.9674 4.39009 15.8933 4.39036 13.9107 4.52214C8.08773 4.90922 3.4494 9.61335 3.06774 15.519C2.99305 16.6747 2.99305 17.8715 3.06774 19.0272C3.20674 21.1781 4.15799 23.1696 5.27787 24.8512C5.92811 26.0285 5.49898 27.4979 4.8217 28.7813C4.33336 29.7067 4.08919 30.1694 4.28524 30.5037C4.48129 30.8379 4.91921 30.8486 5.79505 30.8699C7.52711 30.9121 8.69508 30.4211 9.62219 29.7374C10.148 29.3497 10.4109 29.1558 10.5921 29.1335C10.7733 29.1112 11.1299 29.2581 11.843 29.5518C12.4839 29.8157 13.228 29.9786 13.9107 30.024C15.8933 30.1558 17.9674 30.1561 19.954 30.024Z" stroke="#121213" stroke-width="1.57592" stroke-linejoin="round"/>
</svg>
