<svg width="106" height="106" viewBox="0 0 106 106" fill="none" xmlns="http://www.w3.org/2000/svg">
<path d="M37.541 64.0417H68.4577M37.541 41.9584H52.9993" stroke="#121213" stroke-width="4" stroke-linecap="round" stroke-linejoin="round"/>
<path d="M62.5865 92.2666C81.0615 91.0385 95.7777 76.1135 96.9886 57.3765C97.2256 53.7097 97.2256 49.9125 96.9886 46.2458C95.7777 27.5087 81.0615 12.5838 62.5865 11.3557C56.2836 10.9367 49.7029 10.9375 43.4128 11.3557C24.9379 12.5838 10.2216 27.5087 9.01073 46.2458C8.77377 49.9125 8.77377 53.7097 9.01073 57.3765C9.45176 64.2007 12.4698 70.5193 16.0229 75.8546C18.086 79.5898 16.7245 84.2517 14.5756 88.3238C13.0262 91.2599 12.2515 92.7279 12.8736 93.7884C13.4956 94.8489 14.885 94.8828 17.6638 94.9504C23.1592 95.0842 26.8649 93.5263 29.8063 91.3572C31.4746 90.127 32.3088 89.5119 32.8837 89.4412C33.4586 89.3705 34.59 89.8365 36.8524 90.7682C38.8858 91.6057 41.2468 92.1226 43.4128 92.2666C49.7029 92.6847 56.2836 92.6856 62.5865 92.2666Z" stroke="#121213" stroke-width="5" stroke-linejoin="round"/>
</svg>
