<svg width="59" height="58" viewBox="0 0 59 58" fill="none" xmlns="http://www.w3.org/2000/svg">
<path d="M29.5303 53.1667C27.553 53.1667 25.6641 52.3687 21.8862 50.7729C12.4822 46.8004 7.78027 44.8142 7.78027 41.4731C7.78027 40.5377 7.78027 24.3226 7.78027 16.9167M29.5303 53.1667C31.5075 53.1667 33.3965 52.3687 37.1744 50.7729C46.5783 46.8004 51.2803 44.8142 51.2803 41.4731V16.9167M29.5303 53.1667L29.5303 27.4409" stroke="#EFE3C8" stroke-width="3" stroke-linecap="round" stroke-linejoin="round"/>
<path d="M20.6512 23.4209L13.5917 20.0048C9.71741 18.1301 7.78027 17.1928 7.78027 15.7084C7.78027 14.224 9.71741 13.2866 13.5917 11.4119L20.6512 7.99586C25.0083 5.88754 27.1868 4.83337 29.5303 4.83337C31.8737 4.83337 34.0523 5.88754 38.4093 7.99586L45.4689 11.4119C49.3431 13.2866 51.2803 14.224 51.2803 15.7084C51.2803 17.1928 49.3431 18.1301 45.4689 20.0048L38.4093 23.4209C34.0523 25.5292 31.8737 26.5834 29.5303 26.5834C27.1868 26.5834 25.0083 25.5292 20.6512 23.4209Z" stroke="#EFE3C8" stroke-width="3" stroke-linecap="round" stroke-linejoin="round"/>
<path d="M15.0303 29L19.8636 31.4167" stroke="#EFE3C8" stroke-width="3" stroke-linecap="round" stroke-linejoin="round"/>
<path d="M41.6139 9.66669L17.4473 21.75" stroke="#EFE3C8" stroke-width="4" stroke-linecap="round" stroke-linejoin="round"/>
</svg>
