<svg width="21" height="21" viewBox="0 0 21 21" fill="none" xmlns="http://www.w3.org/2000/svg">
<path d="M10.6671 18.975C9.99483 18.975 9.35262 18.7038 8.06821 18.1612C4.87105 16.8106 3.27246 16.1353 3.27246 14.9994C3.27246 14.6814 3.27246 9.16857 3.27246 6.6507M10.6671 18.975C11.3393 18.975 11.9815 18.7038 13.2659 18.1612C16.4631 16.8106 18.0617 16.1353 18.0617 14.9994V6.6507M10.6671 18.975L10.6671 10.2287" stroke="#EFE3C8" stroke-width="1.01995" stroke-linecap="round" stroke-linejoin="round"/>
<path d="M7.64836 8.86202L5.24823 7.70062C3.93105 7.06325 3.27246 6.74457 3.27246 6.2399C3.27246 5.73524 3.93105 5.41655 5.24823 4.77919L7.64836 3.61779C9.12967 2.901 9.87033 2.5426 10.6671 2.5426C11.4638 2.5426 12.2045 2.901 13.6858 3.61779L16.0859 4.77918C17.4031 5.41655 18.0617 5.73524 18.0617 6.2399C18.0617 6.74457 17.4031 7.06326 16.0859 7.70062L13.6858 8.86202C12.2045 9.57881 11.4638 9.93721 10.6671 9.93721C9.87033 9.93721 9.12967 9.57881 7.64836 8.86202Z" stroke="#EFE3C8" stroke-width="1.01995" stroke-linecap="round" stroke-linejoin="round"/>
<path d="M5.7373 10.7588L7.38055 11.5804" stroke="#EFE3C8" stroke-width="1.01995" stroke-linecap="round" stroke-linejoin="round"/>
<path d="M14.7748 4.18585L6.55859 8.29397" stroke="#EFE3C8" stroke-width="1.35993" stroke-linecap="round" stroke-linejoin="round"/>
</svg>
