<svg width="35" height="32" viewBox="0 0 35 32" fill="none" xmlns="http://www.w3.org/2000/svg">
<path d="M5.87794 22.6926L4.1794 13.1198C3.92258 11.6724 3.79418 10.9487 4.20537 10.4743C4.61656 10 5.37231 10 6.8838 10H27.811C29.3225 10 30.0782 10 30.4894 10.4743C30.9006 10.9487 30.7722 11.6724 30.5154 13.1198L28.8169 22.6926C28.2539 25.8655 27.9724 27.4519 26.8231 28.3926C25.6738 29.3333 24.0171 29.3333 20.7036 29.3333H13.9912C10.6777 29.3333 9.021 29.3333 7.8717 28.3926C6.72241 27.4519 6.44092 25.8655 5.87794 22.6926Z" stroke="#121213" stroke-width="1.5"/>
<path d="M25.1093 10C25.1093 5.94993 21.6342 2.66669 17.3474 2.66669C13.0606 2.66669 9.58545 5.94993 9.58545 10" stroke="#121213"/>
</svg>
