<svg width="28" height="27" viewBox="0 0 28 27" fill="none" xmlns="http://www.w3.org/2000/svg">
<path d="M4.5187 18.5886L3.11454 10.7471C2.90224 9.56145 2.79609 8.96865 3.13601 8.58009C3.47594 8.19153 4.10071 8.19153 5.35023 8.19153H22.6504C23.8999 8.19153 24.5247 8.19153 24.8646 8.58009C25.2046 8.96865 25.0984 9.56145 24.8861 10.7471L23.4819 18.5886C23.0165 21.1877 22.7838 22.4872 21.8337 23.2578C20.8836 24.0284 19.514 24.0284 16.7749 24.0284H11.2258C8.48661 24.0284 7.11702 24.0284 6.16692 23.2578C5.21681 22.4872 4.98411 21.1877 4.5187 18.5886Z" stroke="#EFE3C8" stroke-width="1.35397"/>
<path d="M20.4173 8.19154C20.4173 4.87391 17.5445 2.18445 14.0007 2.18445C10.4568 2.18445 7.58398 4.87391 7.58398 8.19154" stroke="#EFE3C8" stroke-width="1.35397"/>
</svg>
