<svg width="10" height="9" viewBox="0 0 10 9" fill="none" xmlns="http://www.w3.org/2000/svg">
<g clip-path="url(#clip0_80_6029)">
<path d="M2.06977 6.34439L1.62185 3.83174C1.55413 3.45184 1.52027 3.26189 1.6287 3.13738C1.73714 3.01288 1.93643 3.01288 2.33502 3.01288H7.85365C8.25224 3.01288 8.45154 3.01288 8.55997 3.13738C8.6684 3.26189 8.63454 3.45184 8.56682 3.83174L8.1189 6.34439C7.97044 7.1772 7.89621 7.5936 7.59313 7.84052C7.29006 8.08743 6.85317 8.08743 5.9794 8.08743H4.20928C3.3355 8.08743 2.89862 8.08743 2.59554 7.84052C2.29246 7.5936 2.21823 7.1772 2.06977 6.34439Z" stroke="#121213"/>
<path d="M7.14122 3.01291C7.14122 1.94985 6.22481 1.08807 5.09435 1.08807C3.9639 1.08807 3.04749 1.94985 3.04749 3.01291" stroke="#121213"/>
</g>
<defs>
<clipPath id="clip0_80_6029">
<rect width="8.93179" height="8.39926" fill="white" transform="translate(0.628418 0.388123)"/>
</clipPath>
</defs>
</svg>
