<svg width="12" height="12" viewBox="0 0 12 12" fill="none" xmlns="http://www.w3.org/2000/svg">
<g clip-path="url(#clip0_124_1493)">
<path d="M2.28805 8.20924L1.70763 4.93808C1.61988 4.4435 1.576 4.1962 1.71651 4.03411C1.85702 3.87202 2.11527 3.87202 2.63176 3.87202H9.78285C10.2993 3.87202 10.5576 3.87202 10.6981 4.03411C10.8386 4.1962 10.7947 4.4435 10.707 4.93808L10.1266 8.20924C9.93419 9.29346 9.838 9.83556 9.44527 10.157C9.05254 10.4785 8.48642 10.4785 7.35417 10.4785H5.06044C3.92819 10.4785 3.36207 10.4785 2.96934 10.157C2.57661 9.83556 2.48042 9.29346 2.28805 8.20924Z" stroke="#121213" stroke-width="0.512569"/>
<path d="M8.85987 3.87203C8.85987 2.48806 7.67238 1.36613 6.20753 1.36613C4.74267 1.36613 3.55518 2.48806 3.55518 3.87203" stroke="#121213" stroke-width="0.341713"/>
</g>
<defs>
<clipPath id="clip0_124_1493">
<rect width="11.5739" height="10.9348" fill="white" transform="translate(0.42041 0.454895)"/>
</clipPath>
</defs>
</svg>
