<svg width="5" height="12" viewBox="0 0 5 12" fill="none" xmlns="http://www.w3.org/2000/svg">
<path d="M2.76168 8.20924L2.18127 4.93808C2.09351 4.4435 2.04963 4.1962 2.19014 4.03411C2.33065 3.87202 2.5889 3.87202 3.1054 3.87202H10.2565C10.773 3.87202 11.0312 3.87202 11.1717 4.03411C11.3122 4.1962 11.2684 4.4435 11.1806 4.93808L10.6002 8.20924C10.4078 9.29346 10.3116 9.83556 9.9189 10.157C9.52617 10.4785 8.96005 10.4785 7.82781 10.4785H5.53407C4.40183 10.4785 3.83571 10.4785 3.44298 10.157C3.05025 9.83556 2.95406 9.29346 2.76168 8.20924Z" stroke="#121213" stroke-width="0.512569"/>
<path d="M9.33351 3.87203C9.33351 2.48806 8.14601 1.36613 6.68116 1.36613C5.21631 1.36613 4.02881 2.48806 4.02881 3.87203" stroke="#121213" stroke-width="0.341713"/>
</svg>
