<svg width="13" height="13" viewBox="0 0 13 13" fill="none" xmlns="http://www.w3.org/2000/svg">
<path d="M2.51172 8.99199L1.90687 5.59614C1.81542 5.0827 1.7697 4.82598 1.91612 4.65772C2.06255 4.48945 2.33167 4.48945 2.8699 4.48945H10.322C10.8602 4.48945 11.1294 4.48945 11.2758 4.65772C11.4222 4.82598 11.3765 5.0827 11.285 5.59614L10.6802 8.99199C10.4797 10.1175 10.3795 10.6803 9.97022 11.014C9.56096 11.3477 8.97101 11.3477 7.7911 11.3477H5.40081C4.22091 11.3477 3.63095 11.3477 3.22169 11.014C2.81243 10.6803 2.71219 10.1175 2.51172 8.99199Z" stroke="#121213" stroke-width="0.532107"/>
<path d="M9.3599 4.48945C9.3599 3.05273 8.12242 1.88804 6.59591 1.88804C5.06939 1.88804 3.83191 3.05273 3.83191 4.48945" stroke="#121213" stroke-width="0.354738"/>
</svg>
