<svg width="28" height="27" viewBox="0 0 28 27" fill="none" xmlns="http://www.w3.org/2000/svg">
<path d="M4.51846 18.5886L3.1143 10.7471C2.90199 9.56145 2.79584 8.96865 3.13577 8.58009C3.4757 8.19153 4.10046 8.19153 5.34999 8.19153H22.6502C23.8997 8.19153 24.5245 8.19153 24.8644 8.58009C25.2043 8.96865 25.0982 9.56145 24.8859 10.7471L23.4817 18.5886C23.0163 21.1877 22.7836 22.4872 21.8335 23.2578C20.8834 24.0284 19.5138 24.0284 16.7746 24.0284H11.2255C8.48636 24.0284 7.11678 24.0284 6.16667 23.2578C5.21657 22.4872 4.98386 21.1877 4.51846 18.5886Z" stroke="#EFE3C8" stroke-width="1.35397"/>
<path d="M20.4168 8.19154C20.4168 4.87391 17.544 2.18445 14.0002 2.18445C10.4563 2.18445 7.5835 4.87391 7.5835 8.19154" stroke="#EFE3C8" stroke-width="1.35397"/>
</svg>
