<svg width="12" height="12" viewBox="0 0 12 12" fill="none" xmlns="http://www.w3.org/2000/svg">
<g clip-path="url(#clip0_124_1553)">
<path d="M1.86505 7.86752L1.28241 4.59636C1.19432 4.10178 1.15027 3.85448 1.29132 3.69239C1.43237 3.5303 1.69161 3.5303 2.21008 3.5303H9.38856C9.90704 3.5303 10.1663 3.5303 10.3073 3.69239C10.4484 3.85448 10.4043 4.10178 10.3162 4.59636L9.7336 7.86752C9.54048 8.95174 9.44393 9.49384 9.04969 9.8153C8.65546 10.1367 8.08717 10.1367 6.95058 10.1367H4.64806C3.51148 10.1367 2.94319 10.1367 2.54895 9.8153C2.15472 9.49384 2.05816 8.95174 1.86505 7.86752Z" stroke="#121213" stroke-width="0.512569"/>
<path d="M8.46199 3.53031C8.46199 2.14634 7.26994 1.02441 5.79947 1.02441C4.32901 1.02441 3.13696 2.14634 3.13696 3.53031" stroke="#121213" stroke-width="0.341713"/>
</g>
<defs>
<clipPath id="clip0_124_1553">
<rect width="11.6182" height="10.9348" fill="white" transform="translate(-0.00952148 0.113174)"/>
</clipPath>
</defs>
</svg>
