<svg width="13" height="12" viewBox="0 0 13 12" fill="none" xmlns="http://www.w3.org/2000/svg">
<path d="M2.70349 8.34673L2.09864 4.95089C2.00719 4.43745 1.96147 4.18073 2.10789 4.01246C2.25432 3.84419 2.52344 3.84419 3.06168 3.84419H10.5138C11.052 3.84419 11.3211 3.84419 11.4676 4.01246C11.614 4.18073 11.5683 4.43745 11.4768 4.95089L10.872 8.34673C10.6715 9.47227 10.5713 10.035 10.162 10.3687C9.75273 10.7025 9.16278 10.7025 7.98287 10.7025H5.59258C4.41268 10.7025 3.82273 10.7025 3.41346 10.3687C3.0042 10.035 2.90397 9.47227 2.70349 8.34673Z" stroke="#121213" stroke-width="0.532107"/>
<path d="M9.5518 3.84418C9.5518 2.40747 8.31431 1.24277 6.7878 1.24277C5.26129 1.24277 4.0238 2.40747 4.0238 3.84418" stroke="#121213" stroke-width="0.354738"/>
</svg>
