<svg width="13" height="13" viewBox="0 0 13 13" fill="none" xmlns="http://www.w3.org/2000/svg">
<path d="M2.51172 9.02721L1.90687 5.63137C1.81542 5.11793 1.7697 4.86121 1.91612 4.69294C2.06255 4.52467 2.33167 4.52467 2.8699 4.52467H10.322C10.8602 4.52467 11.1294 4.52467 11.2758 4.69294C11.4222 4.86121 11.3765 5.11793 11.285 5.63137L10.6802 9.02721C10.4797 10.1528 10.3795 10.7155 9.97022 11.0492C9.56096 11.3829 8.97101 11.3829 7.7911 11.3829H5.40081C4.22091 11.3829 3.63095 11.3829 3.22169 11.0492C2.81243 10.7155 2.71219 10.1528 2.51172 9.02721Z" stroke="#121213" stroke-width="0.532107"/>
<path d="M9.3599 4.52467C9.3599 3.08795 8.12242 1.92326 6.59591 1.92326C5.06939 1.92326 3.83191 3.08795 3.83191 4.52467" stroke="#121213" stroke-width="0.354738"/>
</svg>
