<svg width="13" height="12" viewBox="0 0 13 12" fill="none" xmlns="http://www.w3.org/2000/svg">
<path d="M2.6795 8.34673L2.07696 4.95089C1.98586 4.43745 1.94031 4.18073 2.08617 4.01246C2.23204 3.84419 2.50013 3.84419 3.03631 3.84419H10.46C10.9962 3.84419 11.2642 3.84419 11.4101 4.01246C11.556 4.18073 11.5104 4.43745 11.4193 4.95089L10.8168 8.34673C10.6171 9.47227 10.5172 10.035 10.1095 10.3687C9.70183 10.7025 9.11413 10.7025 7.93873 10.7025H5.55756C4.38216 10.7025 3.79446 10.7025 3.38676 10.3687C2.97906 10.035 2.8792 9.47227 2.6795 8.34673Z" stroke="#121213" stroke-width="0.532107"/>
<path d="M9.50153 3.84418C9.50153 2.40747 8.26876 1.24277 6.74808 1.24277C5.22739 1.24277 3.99463 2.40747 3.99463 3.84418" stroke="#121213" stroke-width="0.354738"/>
</svg>
