<svg width="10" height="9" viewBox="0 0 10 9" fill="none" xmlns="http://www.w3.org/2000/svg">
<g clip-path="url(#clip0_80_6052)">
<path d="M1.62128 6.34439L1.17337 3.83174C1.10565 3.45184 1.07178 3.26189 1.18022 3.13738C1.28865 3.01288 1.48795 3.01288 1.88654 3.01288H7.40516C7.80375 3.01288 8.00305 3.01288 8.11148 3.13738C8.21991 3.26189 8.18605 3.45184 8.11833 3.83174L7.67041 6.34439C7.52195 7.1772 7.44772 7.5936 7.14465 7.84052C6.84157 8.08743 6.40468 8.08743 5.53091 8.08743H3.76079C2.88702 8.08743 2.45013 8.08743 2.14705 7.84052C1.84398 7.5936 1.76975 7.1772 1.62128 6.34439Z" stroke="#121213"/>
<path d="M6.69273 3.01291C6.69273 1.94985 5.77632 1.08807 4.64587 1.08807C3.51541 1.08807 2.599 1.94985 2.599 3.01291" stroke="#121213"/>
</g>
<defs>
<clipPath id="clip0_80_6052">
<rect width="8.93178" height="8.39926" fill="white" transform="translate(0.179932 0.388123)"/>
</clipPath>
</defs>
</svg>
