<svg width="13" height="12" viewBox="0 0 13 12" fill="none" xmlns="http://www.w3.org/2000/svg">
<g clip-path="url(#clip0_124_1911)">
<path d="M2.6795 8.38195L2.07696 4.9861C1.98586 4.47267 1.94031 4.21595 2.08617 4.04768C2.23204 3.87941 2.50013 3.87941 3.03631 3.87941H10.46C10.9962 3.87941 11.2642 3.87941 11.4101 4.04768C11.556 4.21595 11.5104 4.47267 11.4193 4.9861L10.8168 8.38195C10.6171 9.50749 10.5172 10.0703 10.1095 10.404C9.70183 10.7377 9.11413 10.7377 7.93873 10.7377H5.55756C4.38216 10.7377 3.79446 10.7377 3.38676 10.404C2.97906 10.0703 2.8792 9.50749 2.6795 8.38195Z" stroke="#121213" stroke-width="0.532107"/>
<path d="M9.50153 3.87941C9.50153 2.44269 8.26876 1.278 6.74808 1.278C5.22739 1.278 3.99463 2.44269 3.99463 3.87941" stroke="#121213" stroke-width="0.354738"/>
</g>
<defs>
<clipPath id="clip0_124_1911">
<rect width="12.015" height="11.3516" fill="white" transform="translate(0.740601 0.332031)"/>
</clipPath>
</defs>
</svg>
