<svg width="13" height="12" viewBox="0 0 13 12" fill="none" xmlns="http://www.w3.org/2000/svg">
<g clip-path="url(#clip0_124_1941)">
<path d="M2.70349 8.38195L2.09864 4.9861C2.00719 4.47267 1.96147 4.21595 2.10789 4.04768C2.25432 3.87941 2.52344 3.87941 3.06168 3.87941H10.5138C11.052 3.87941 11.3211 3.87941 11.4676 4.04768C11.614 4.21595 11.5683 4.47267 11.4768 4.9861L10.872 8.38195C10.6715 9.50749 10.5713 10.0703 10.162 10.404C9.75273 10.7377 9.16278 10.7377 7.98287 10.7377H5.59258C4.41268 10.7377 3.82273 10.7377 3.41346 10.404C3.0042 10.0703 2.90397 9.50749 2.70349 8.38195Z" stroke="#121213" stroke-width="0.532107"/>
<path d="M9.5518 3.87941C9.5518 2.44269 8.31431 1.278 6.7878 1.278C5.26129 1.278 4.0238 2.44269 4.0238 3.87941" stroke="#121213" stroke-width="0.354738"/>
</g>
<defs>
<clipPath id="clip0_124_1941">
<rect width="12.0611" height="11.3516" fill="white" transform="translate(0.757202 0.332031)"/>
</clipPath>
</defs>
</svg>
