<svg width="47" height="44" viewBox="0 0 47 44" fill="none" xmlns="http://www.w3.org/2000/svg">
<path d="M7.58458 31.2023L5.2276 18.0397C4.87123 16.0495 4.69305 15.0544 5.26364 14.4022C5.83423 13.75 6.88294 13.75 8.98037 13.75H38.02C40.1174 13.75 41.1661 13.75 41.7367 14.4022C42.3073 15.0544 42.1291 16.0495 41.7727 18.0397L39.4157 31.2023C38.6345 35.565 38.2439 37.7464 36.6491 39.0399C35.0543 40.3333 32.7553 40.3333 28.1574 40.3333H18.8429C14.245 40.3333 11.946 40.3333 10.3512 39.0399C8.7564 37.7464 8.3658 35.565 7.58458 31.2023Z" stroke="#EFE3C8" stroke-width="3"/>
<path d="M34.2712 13.75C34.2712 8.18109 29.4489 3.66663 23.5003 3.66663C17.5518 3.66663 12.7295 8.18109 12.7295 13.75" stroke="#EFE3C8" stroke-width="3"/>
</svg>
