<svg width="34" height="32" viewBox="0 0 34 32" fill="none" xmlns="http://www.w3.org/2000/svg">
<path d="M5.48668 22.6926L3.78163 13.1198C3.52383 11.6724 3.39493 10.9487 3.8077 10.4743C4.22047 10 4.97911 10 6.4964 10H27.5038C29.021 10 29.7797 10 30.1925 10.4743C30.6052 10.9487 30.4763 11.6724 30.2185 13.1198L28.5135 22.6926C27.9483 25.8655 27.6658 27.4519 26.5121 28.3926C25.3584 29.3333 23.6953 29.3333 20.3692 29.3333H13.631C10.3049 29.3333 8.64179 29.3333 7.48808 28.3926C6.33438 27.4519 6.05182 25.8655 5.48668 22.6926Z" stroke="#121213" stroke-width="1.5"/>
<path d="M24.7918 10.0001C24.7918 5.94999 21.3034 2.66675 17.0002 2.66675C12.6969 2.66675 9.2085 5.94999 9.2085 10.0001" stroke="#121213"/>
</svg>
