<svg width="13" height="12" viewBox="0 0 13 12" fill="none" xmlns="http://www.w3.org/2000/svg">
<path d="M2.68072 8.20924L2.09808 4.93808C2.00999 4.4435 1.96594 4.1962 2.10699 4.03411C2.24804 3.87202 2.50728 3.87202 3.02576 3.87202H10.2042C10.7227 3.87202 10.982 3.87202 11.123 4.03411C11.264 4.1962 11.22 4.4435 11.1319 4.93808L10.5493 8.20924C10.3562 9.29346 10.2596 9.83556 9.86537 10.157C9.47113 10.4785 8.90284 10.4785 7.76626 10.4785H5.46374C4.32715 10.4785 3.75886 10.4785 3.36463 10.157C2.97039 9.83556 2.87384 9.29346 2.68072 8.20924Z" stroke="#121213" stroke-width="0.512569"/>
<path d="M9.27717 3.87203C9.27717 2.48806 8.08512 1.36613 6.61466 1.36613C5.1442 1.36613 3.95215 2.48806 3.95215 3.87203" stroke="#121213" stroke-width="0.341713"/>
</svg>
