<svg width="34" height="32" viewBox="0 0 34 32" fill="none" xmlns="http://www.w3.org/2000/svg">
<path d="M5.48644 22.6926L3.78139 13.1198C3.52359 11.6724 3.39469 10.9487 3.80746 10.4743C4.22023 10 4.97887 10 6.49616 10H27.5035C29.0208 10 29.7794 10 30.1922 10.4743C30.605 10.9487 30.4761 11.6724 30.2183 13.1198L28.5132 22.6926C27.9481 25.8655 27.6655 27.4519 26.5118 28.3926C25.3581 29.3333 23.6951 29.3333 20.3689 29.3333H13.6307C10.3046 29.3333 8.64154 29.3333 7.48784 28.3926C6.33414 27.4519 6.05157 25.8655 5.48644 22.6926Z" stroke="#121213" stroke-width="1.5"/>
<path d="M24.7913 10C24.7913 5.94993 21.3029 2.66669 16.9997 2.66669C12.6965 2.66669 9.20801 5.94993 9.20801 10" stroke="#121213"/>
</svg>
