<svg width="10" height="9" viewBox="0 0 10 9" fill="none" xmlns="http://www.w3.org/2000/svg">
<g clip-path="url(#clip0_80_5909)">
<path d="M1.89704 6.34439L1.44913 3.83174C1.3814 3.45184 1.34754 3.26189 1.45597 3.13738C1.56441 3.01288 1.7637 3.01288 2.16229 3.01288H7.68092C8.07951 3.01288 8.27881 3.01288 8.38724 3.13738C8.49567 3.26189 8.46181 3.45184 8.39409 3.83174L7.94617 6.34439C7.79771 7.1772 7.72348 7.5936 7.42041 7.84052C7.11733 8.08743 6.68044 8.08743 5.80667 8.08743H4.03655C3.16277 8.08743 2.72589 8.08743 2.42281 7.84052C2.11973 7.5936 2.0455 7.1772 1.89704 6.34439Z" stroke="#121213"/>
<path d="M6.96849 3.01291C6.96849 1.94985 6.05208 1.08807 4.92162 1.08807C3.79117 1.08807 2.87476 1.94985 2.87476 3.01291" stroke="#121213"/>
</g>
<defs>
<clipPath id="clip0_80_5909">
<rect width="8.93179" height="8.39926" fill="white" transform="translate(0.455688 0.388123)"/>
</clipPath>
</defs>
</svg>
