<svg width="33" height="33" viewBox="0 0 33 33" fill="none" xmlns="http://www.w3.org/2000/svg">
<path d="M7.25 18.75C7.25 18.9572 7.33231 19.1559 7.47882 19.3024C7.62534 19.4489 7.82405 19.5312 8.03125 19.5312H25.2188C25.426 19.5312 25.6247 19.4489 25.7712 19.3024C25.9177 19.1559 26 18.9572 26 18.75C26 18.5428 25.9177 18.3441 25.7712 18.1976C25.6247 18.0511 25.426 17.9688 25.2188 17.9688H8.03125C7.82405 17.9688 7.62534 18.0511 7.47882 18.1976C7.33231 18.3441 7.25 18.5428 7.25 18.75ZM25.2188 13.2812H8.03125C7.82405 13.2812 7.62534 13.1989 7.47882 13.0524C7.33231 12.9059 7.25 12.7072 7.25 12.5C7.25 12.2928 7.33231 12.0941 7.47882 11.9476C7.62534 11.8011 7.82405 11.7188 8.03125 11.7188H25.2188C25.426 11.7188 25.6247 11.8011 25.7712 11.9476C25.9177 12.0941 26 12.2928 26 12.5C26 12.7072 25.9177 12.9059 25.7712 13.0524C25.6247 13.1989 25.426 13.2812 25.2188 13.2812ZM8.03125 24.2188H25.2188C25.426 24.2188 25.6247 24.3011 25.7712 24.4476C25.9177 24.5941 26 24.7928 26 25C26 25.2072 25.9177 25.4059 25.7712 25.5524C25.6247 25.6989 25.426 25.7812 25.2188 25.7812H8.03125C7.82405 25.7812 7.62534 25.6989 7.47882 25.5524C7.33231 25.4059 7.25 25.2072 7.25 25C7.25 24.7928 7.33231 24.5941 7.47882 24.4476C7.62534 24.3011 7.82405 24.2188 8.03125 24.2188Z" fill="#EFE3C8"/>
</svg>
