<svg width="15" height="15" viewBox="0 0 15 15" fill="none" xmlns="http://www.w3.org/2000/svg">
<rect x="0.895874" y="0.877869" width="13.48" height="13.8348" rx="4.25685" fill="#EFE3C8"/>
<path d="M10.2756 10.1866L11.4534 11.3637C11.5083 11.4206 11.5387 11.4968 11.538 11.5758C11.5373 11.6549 11.5056 11.7305 11.4497 11.7864C11.3938 11.8423 11.3181 11.874 11.2391 11.8747C11.16 11.8754 11.0839 11.845 11.027 11.7901L9.84923 10.6123C9.07959 11.2717 8.08446 11.6074 7.07266 11.5489C6.06086 11.4904 5.11104 11.0423 4.42251 10.2986C3.73398 9.55494 3.36025 8.57346 3.37976 7.56016C3.39926 6.54686 3.81048 5.5805 4.52712 4.86386C5.24377 4.14721 6.21013 3.73599 7.22343 3.71649C8.23673 3.69698 9.21821 4.07071 9.9619 4.75924C10.7056 5.44777 11.1537 6.3976 11.2122 7.4094C11.2707 8.4212 10.935 9.41632 10.2756 10.186V10.1866ZM7.29892 10.9524C8.17859 10.9524 9.02223 10.603 9.64425 9.98098C10.2663 9.35896 10.6157 8.51532 10.6157 7.63565C10.6157 6.75598 10.2663 5.91235 9.64425 5.29033C9.02223 4.66831 8.17859 4.31886 7.29892 4.31886C6.41925 4.31886 5.57561 4.66831 4.9536 5.29033C4.33158 5.91235 3.98213 6.75598 3.98213 7.63565C3.98213 8.51532 4.33158 9.35896 4.9536 9.98098C5.57561 10.603 6.41925 10.9524 7.29892 10.9524Z" fill="#121213"/>
</svg>
