<svg width="14" height="14" viewBox="0 0 14 14" fill="none" xmlns="http://www.w3.org/2000/svg">
<rect x="0.868652" y="0.429749" width="12.9355" height="13.3268" rx="4.10055" fill="#EFE3C8"/>
<path d="M9.86945 9.39667L10.9996 10.5306C11.0523 10.5854 11.0815 10.6588 11.0808 10.7349C11.0802 10.8111 11.0498 10.8839 10.9961 10.9378C10.9425 10.9916 10.8699 11.0222 10.794 11.0228C10.7182 11.0235 10.6451 10.9942 10.5905 10.9413L9.46031 9.80679C8.72176 10.442 7.76683 10.7653 6.7959 10.709C5.82497 10.6527 4.91352 10.221 4.2528 9.50462C3.59207 8.78823 3.23344 7.8428 3.25216 6.8667C3.27088 5.89061 3.66549 4.95973 4.35319 4.26939C5.04088 3.57906 5.96821 3.18294 6.94058 3.16415C7.91295 3.14536 8.85477 3.50537 9.56843 4.16862C10.2821 4.83187 10.7121 5.74682 10.7682 6.72147C10.8243 7.69612 10.5022 8.65471 9.86945 9.39609V9.39667ZM7.01302 10.1344C7.85715 10.1344 8.66671 9.79781 9.26361 9.19863C9.8605 8.59945 10.1958 7.78679 10.1958 6.93942C10.1958 6.09205 9.8605 5.27939 9.26361 4.68021C8.66671 4.08103 7.85715 3.74441 7.01302 3.74441C6.16888 3.74441 5.35932 4.08103 4.76243 4.68021C4.16554 5.27939 3.8302 6.09205 3.8302 6.93942C3.8302 7.78679 4.16554 8.59945 4.76243 9.19863C5.35932 9.79781 6.16888 10.1344 7.01302 10.1344Z" fill="#121213"/>
</svg>
