<svg width="14" height="15" viewBox="0 0 14 15" fill="none" xmlns="http://www.w3.org/2000/svg">
<rect x="0.0137939" y="0.232605" width="13.4286" height="13.8348" rx="4.25685" fill="#EFE3C8"/>
<path d="M9.35779 9.54131L10.5311 10.7185C10.5858 10.7753 10.616 10.8515 10.6154 10.9306C10.6147 11.0096 10.5831 11.0852 10.5274 11.1412C10.4717 11.1971 10.3964 11.2288 10.3176 11.2295C10.2389 11.2301 10.163 11.1998 10.1063 11.1448L8.93306 9.96707C8.16635 10.6265 7.17503 10.9621 6.16709 10.9037C5.15915 10.8452 4.21295 10.3971 3.52705 9.65337C2.84114 8.90968 2.46884 7.92821 2.48827 6.91491C2.5077 5.90161 2.91735 4.93524 3.63126 4.2186C4.34517 3.50195 5.30785 3.09074 6.31728 3.07123C7.32671 3.05172 8.30444 3.42545 9.04529 4.11398C9.78615 4.80252 10.2325 5.75234 10.2908 6.76414C10.3491 7.77594 10.0147 8.77107 9.35779 9.54071V9.54131ZM6.39248 10.3072C7.26879 10.3072 8.10921 9.95774 8.72885 9.33572C9.3485 8.7137 9.69661 7.87006 9.69661 6.9904C9.69661 6.11073 9.3485 5.26709 8.72885 4.64507C8.10921 4.02305 7.26879 3.67361 6.39248 3.67361C5.51617 3.67361 4.67575 4.02305 4.05611 4.64507C3.43646 5.26709 3.08835 6.11073 3.08835 6.9904C3.08835 7.87006 3.43646 8.7137 4.05611 9.33572C4.67575 9.95774 5.51617 10.3072 6.39248 10.3072Z" fill="#121213"/>
</svg>
