<svg width="14" height="15" viewBox="0 0 14 15" fill="none" xmlns="http://www.w3.org/2000/svg">
<rect x="0.0876465" y="0.267822" width="13.48" height="13.8348" rx="4.25685" fill="#EFE3C8"/>
<path d="M9.46748 9.57652L10.6452 10.7537C10.7002 10.8105 10.7306 10.8867 10.7299 10.9658C10.7292 11.0448 10.6975 11.1205 10.6416 11.1764C10.5857 11.2323 10.51 11.264 10.431 11.2647C10.3519 11.2654 10.2758 11.235 10.2189 11.18L9.04113 10.0023C8.27149 10.6617 7.27636 10.9974 6.26456 10.9389C5.25276 10.8804 4.30294 10.4323 3.6144 9.68858C2.92587 8.94489 2.55214 7.96342 2.57165 6.95012C2.59115 5.93682 3.00237 4.97045 3.71902 4.25381C4.43566 3.53716 5.40203 3.12595 6.41533 3.10644C7.42863 3.08693 8.4101 3.46066 9.15379 4.14919C9.89749 4.83773 10.3456 5.78755 10.4041 6.79935C10.4626 7.81115 10.1269 8.80628 9.46748 9.57592V9.57652ZM6.49082 10.3424C7.37048 10.3424 8.21412 9.99295 8.83614 9.37093C9.45816 8.74891 9.80761 7.90527 9.80761 7.02561C9.80761 6.14594 9.45816 5.3023 8.83614 4.68028C8.21412 4.05826 7.37048 3.70881 6.49082 3.70881C5.61115 3.70881 4.76751 4.05826 4.14549 4.68028C3.52347 5.3023 3.17402 6.14594 3.17402 7.02561C3.17402 7.90527 3.52347 8.74891 4.14549 9.37093C4.76751 9.99295 5.61115 10.3424 6.49082 10.3424Z" fill="#121213"/>
</svg>
