<svg width="11" height="11" viewBox="0 0 11 11" fill="none" xmlns="http://www.w3.org/2000/svg">
<rect x="0.96521" y="0.600708" width="9.98258" height="10.2366" rx="4.99129" fill="#EFE3C8"/>
<path d="M7.9113 7.48837L8.78349 8.35937C8.82416 8.40145 8.84667 8.45781 8.84616 8.5163C8.84565 8.5748 8.82217 8.63076 8.78077 8.67212C8.73937 8.71349 8.68336 8.73695 8.62481 8.73746C8.56627 8.73797 8.50986 8.71548 8.46775 8.67484L7.59556 7.80339C7.02561 8.2913 6.28867 8.53967 5.53938 8.4964C4.7901 8.45312 4.08671 8.12156 3.57682 7.57129C3.06693 7.02102 2.79017 6.29481 2.80462 5.54505C2.81906 4.79529 3.12359 4.08026 3.6543 3.55C4.185 3.01974 4.90064 2.71547 5.65104 2.70104C6.40143 2.68661 7.12826 2.96313 7.679 3.47259C8.22974 3.98205 8.56158 4.68484 8.60489 5.43349C8.6482 6.18214 8.39962 6.91845 7.9113 7.48792V7.48837ZM5.70694 8.05506C6.35837 8.05506 6.98313 7.79649 7.44376 7.33625C7.90439 6.87601 8.16317 6.25178 8.16317 5.6009C8.16317 4.95002 7.90439 4.3258 7.44376 3.86555C6.98313 3.40531 6.35837 3.14675 5.70694 3.14675C5.0555 3.14675 4.43075 3.40531 3.97012 3.86555C3.50948 4.3258 3.2507 4.95002 3.2507 5.6009C3.2507 6.25178 3.50948 6.87601 3.97012 7.33625C4.43075 7.79649 5.0555 8.05506 5.70694 8.05506Z" fill="#121213"/>
</svg>
