<svg width="14" height="15" viewBox="0 0 14 15" fill="none" xmlns="http://www.w3.org/2000/svg">
<rect x="0.176636" y="0.232605" width="13.4286" height="13.8348" rx="4.25685" fill="#EFE3C8"/>
<path d="M9.52063 9.54131L10.6939 10.7185C10.7486 10.7753 10.7789 10.8515 10.7782 10.9306C10.7775 11.0096 10.7459 11.0852 10.6902 11.1412C10.6345 11.1971 10.5592 11.2288 10.4805 11.2295C10.4017 11.2301 10.3258 11.1998 10.2692 11.1448L9.0959 9.96707C8.3292 10.6265 7.33787 10.9621 6.32993 10.9037C5.32199 10.8452 4.3758 10.3971 3.68989 9.65337C3.00398 8.90968 2.63168 7.92821 2.65111 6.91491C2.67055 5.90161 3.0802 4.93524 3.79411 4.2186C4.50801 3.50195 5.47069 3.09074 6.48012 3.07123C7.48956 3.05172 8.46728 3.42545 9.20814 4.11398C9.94899 4.80252 10.3954 5.75234 10.4536 6.76414C10.5119 7.77594 10.1775 8.77107 9.52063 9.54071V9.54131ZM6.55532 10.3072C7.43163 10.3072 8.27205 9.95774 8.8917 9.33572C9.51134 8.7137 9.85945 7.87006 9.85945 6.9904C9.85945 6.11073 9.51134 5.26709 8.8917 4.64507C8.27205 4.02305 7.43163 3.67361 6.55532 3.67361C5.67901 3.67361 4.83859 4.02305 4.21895 4.64507C3.5993 5.26709 3.25119 6.11073 3.25119 6.9904C3.25119 7.87006 3.5993 8.7137 4.21895 9.33572C4.83859 9.95774 5.67901 10.3072 6.55532 10.3072Z" fill="#121213"/>
</svg>
