<svg width="39" height="39" viewBox="0 0 39 39" fill="none" xmlns="http://www.w3.org/2000/svg">
<rect x="0.709961" width="37.855" height="39" rx="12" fill="#EFE3C8"/>
<path d="M27.0502 26.2411L30.3576 29.5595C30.5119 29.7198 30.5972 29.9345 30.5953 30.1574C30.5934 30.3803 30.5043 30.5934 30.3473 30.751C30.1903 30.9086 29.9779 30.998 29.7559 31C29.5339 31.0019 29.32 30.9162 29.1603 30.7614L25.8529 27.4413C23.6916 29.3001 20.897 30.2464 18.0557 30.0815C15.2143 29.9167 12.547 28.6535 10.6134 26.557C8.67988 24.4606 7.63037 21.6938 7.68515 18.8373C7.73992 15.9808 8.89472 13.2567 10.9072 11.2365C12.9197 9.21626 15.6335 8.05703 18.4791 8.00205C21.3246 7.94706 24.0808 9.00059 26.1693 10.9416C28.2577 12.8825 29.5161 15.5601 29.6804 18.4123C29.8446 21.2646 28.902 24.0698 27.0502 26.2394V26.2411ZM18.691 28.4001C21.1614 28.4001 23.5305 27.415 25.2772 25.6616C27.024 23.9081 28.0053 21.5299 28.0053 19.0501C28.0053 16.5703 27.024 14.1921 25.2772 12.4387C23.5305 10.6852 21.1614 9.70013 18.691 9.70013C16.2207 9.70013 13.8516 10.6852 12.1048 12.4387C10.3581 14.1921 9.37675 16.5703 9.37675 19.0501C9.37675 21.5299 10.3581 23.9081 12.1048 25.6616C13.8516 27.415 16.2207 28.4001 18.691 28.4001Z" fill="#121213"/>
</svg>
