<svg width="39" height="39" viewBox="0 0 39 39" fill="none" xmlns="http://www.w3.org/2000/svg">
<rect x="0.709961" width="37.855" height="39" rx="12" fill="#EFE3C8"/>
<path d="M27.0504 26.2411L30.3579 29.5595C30.5121 29.7198 30.5975 29.9345 30.5955 30.1574C30.5936 30.3803 30.5045 30.5934 30.3476 30.751C30.1906 30.9086 29.9782 30.998 29.7562 31C29.5342 31.0019 29.3203 30.9162 29.1606 30.7614L25.8531 27.4413C23.6918 29.3001 20.8973 30.2464 18.0559 30.0815C15.2145 29.9167 12.5472 28.6535 10.6137 26.557C8.68012 24.4606 7.63062 21.6938 7.68539 18.8373C7.74017 15.9808 8.89496 13.2567 10.9075 11.2365C12.92 9.21626 15.6337 8.05703 18.4793 8.00205C21.3249 7.94706 24.0811 9.00059 26.1695 10.9416C28.258 12.8825 29.5164 15.5601 29.6806 18.4123C29.8449 21.2646 28.9022 24.0698 27.0504 26.2394V26.2411ZM18.6913 28.4001C21.1616 28.4001 23.5307 27.415 25.2775 25.6616C27.0243 23.9081 28.0056 21.5299 28.0056 19.0501C28.0056 16.5703 27.0243 14.1921 25.2775 12.4387C23.5307 10.6852 21.1616 9.70013 18.6913 9.70013C16.221 9.70013 13.8519 10.6852 12.1051 12.4387C10.3583 14.1921 9.377 16.5703 9.377 19.0501C9.377 21.5299 10.3583 23.9081 12.1051 25.6616C13.8519 27.415 16.221 28.4001 18.6913 28.4001Z" fill="#121213"/>
</svg>
