<svg width="14" height="15" viewBox="0 0 14 15" fill="none" xmlns="http://www.w3.org/2000/svg">
<rect x="0.0876465" y="0.232605" width="13.48" height="13.8348" rx="4.25685" fill="#EFE3C8"/>
<path d="M9.46748 9.54131L10.6452 10.7185C10.7002 10.7753 10.7306 10.8515 10.7299 10.9306C10.7292 11.0096 10.6975 11.0852 10.6416 11.1412C10.5857 11.1971 10.51 11.2288 10.431 11.2295C10.3519 11.2301 10.2758 11.1998 10.2189 11.1448L9.04113 9.96707C8.27149 10.6265 7.27636 10.9621 6.26456 10.9037C5.25276 10.8452 4.30294 10.3971 3.6144 9.65337C2.92587 8.90968 2.55214 7.92821 2.57165 6.91491C2.59115 5.90161 3.00237 4.93524 3.71902 4.2186C4.43566 3.50195 5.40203 3.09074 6.41533 3.07123C7.42863 3.05172 8.4101 3.42545 9.15379 4.11398C9.89749 4.80252 10.3456 5.75234 10.4041 6.76414C10.4626 7.77594 10.1269 8.77107 9.46748 9.54071V9.54131ZM6.49082 10.3072C7.37048 10.3072 8.21412 9.95774 8.83614 9.33572C9.45816 8.7137 9.80761 7.87006 9.80761 6.9904C9.80761 6.11073 9.45816 5.26709 8.83614 4.64507C8.21412 4.02305 7.37048 3.67361 6.49082 3.67361C5.61115 3.67361 4.76751 4.02305 4.14549 4.64507C3.52347 5.26709 3.17402 6.11073 3.17402 6.9904C3.17402 7.87006 3.52347 8.7137 4.14549 9.33572C4.76751 9.95774 5.61115 10.3072 6.49082 10.3072Z" fill="#121213"/>
</svg>
