<svg width="38" height="39" viewBox="0 0 38 39" fill="none" xmlns="http://www.w3.org/2000/svg">
<rect width="38" height="39" rx="12" fill="#EFE3C8"/>
<path d="M26.4413 26.2411L29.7614 29.5595C29.9162 29.7198 30.0019 29.9345 30 30.1574C29.998 30.3803 29.9086 30.5934 29.751 30.751C29.5934 30.9086 29.3803 30.998 29.1574 31C28.9345 31.0019 28.7198 30.9162 28.5595 30.7614L25.2394 27.4413C23.0698 29.3001 20.2646 30.2464 17.4123 30.0815C14.5601 29.9167 11.8825 28.6535 9.94156 26.557C8.00059 24.4606 6.94706 21.6938 7.00205 18.8373C7.05703 15.9808 8.21626 13.2567 10.2365 11.2365C12.2567 9.21626 14.9808 8.05703 17.8373 8.00205C20.6938 7.94706 23.4606 9.00059 25.557 10.9416C27.6535 12.8825 28.9167 15.5601 29.0815 18.4123C29.2464 21.2646 28.3001 24.0698 26.4413 26.2394V26.2411ZM18.0501 28.4001C20.5299 28.4001 22.9081 27.415 24.6616 25.6616C26.415 23.9081 27.4001 21.5299 27.4001 19.0501C27.4001 16.5703 26.415 14.1921 24.6616 12.4387C22.9081 10.6852 20.5299 9.70013 18.0501 9.70013C15.5703 9.70013 13.1921 10.6852 11.4387 12.4387C9.68522 14.1921 8.70013 16.5703 8.70013 19.0501C8.70013 21.5299 9.68522 23.9081 11.4387 25.6616C13.1921 27.415 15.5703 28.4001 18.0501 28.4001Z" fill="#121213"/>
</svg>
