<svg width="14" height="14" viewBox="0 0 14 14" fill="none" xmlns="http://www.w3.org/2000/svg">
<rect x="0.152344" y="0.429749" width="12.9851" height="13.3268" rx="4.10055" fill="#EFE3C8"/>
<path d="M9.18777 9.39667L10.3223 10.5306C10.3752 10.5854 10.4045 10.6588 10.4038 10.7349C10.4032 10.8111 10.3726 10.8839 10.3188 10.9378C10.2649 10.9916 10.1921 11.0222 10.1159 11.0228C10.0397 11.0235 9.96637 10.9942 9.91159 10.9413L8.77707 9.80679C8.03569 10.442 7.0771 10.7653 6.10245 10.709C5.1278 10.6527 4.21285 10.221 3.5496 9.50462C2.88635 8.78823 2.52634 7.8428 2.54513 6.8667C2.56392 5.89061 2.96004 4.95973 3.65038 4.26939C4.34071 3.57906 5.27159 3.18294 6.24768 3.16415C7.22378 3.14536 8.16921 3.50537 8.8856 4.16862C9.60199 4.83187 10.0336 5.74682 10.09 6.72147C10.1463 7.69612 9.82296 8.65471 9.18777 9.39609V9.39667ZM6.3204 10.1344C7.16777 10.1344 7.98043 9.79781 8.57961 9.19863C9.17879 8.59945 9.51541 7.78679 9.51541 6.93942C9.51541 6.09205 9.17879 5.27939 8.57961 4.68021C7.98043 4.08103 7.16777 3.74441 6.3204 3.74441C5.47303 3.74441 4.66037 4.08103 4.06119 4.68021C3.46201 5.27939 3.12539 6.09205 3.12539 6.93942C3.12539 7.78679 3.46201 8.59945 4.06119 9.19863C4.66037 9.79781 5.47303 10.1344 6.3204 10.1344Z" fill="#121213"/>
</svg>
