<svg width="14" height="15" viewBox="0 0 14 15" fill="none" xmlns="http://www.w3.org/2000/svg">
<rect x="0.176636" y="0.267822" width="13.4286" height="13.8348" rx="4.25685" fill="#EFE3C8"/>
<path d="M9.52063 9.57652L10.6939 10.7537C10.7486 10.8105 10.7789 10.8867 10.7782 10.9658C10.7775 11.0448 10.7459 11.1205 10.6902 11.1764C10.6345 11.2323 10.5592 11.264 10.4805 11.2647C10.4017 11.2654 10.3258 11.235 10.2692 11.18L9.0959 10.0023C8.3292 10.6617 7.33787 10.9974 6.32993 10.9389C5.32199 10.8804 4.3758 10.4323 3.68989 9.68858C3.00398 8.94489 2.63168 7.96342 2.65111 6.95012C2.67055 5.93682 3.0802 4.97045 3.79411 4.25381C4.50801 3.53716 5.47069 3.12595 6.48012 3.10644C7.48956 3.08693 8.46728 3.46066 9.20814 4.14919C9.94899 4.83773 10.3954 5.78755 10.4536 6.79935C10.5119 7.81115 10.1775 8.80628 9.52063 9.57592V9.57652ZM6.55532 10.3424C7.43163 10.3424 8.27205 9.99295 8.8917 9.37093C9.51134 8.74891 9.85945 7.90527 9.85945 7.02561C9.85945 6.14594 9.51134 5.3023 8.8917 4.68028C8.27205 4.05826 7.43163 3.70881 6.55532 3.70881C5.67901 3.70881 4.83859 4.05826 4.21895 4.68028C3.5993 5.3023 3.25119 6.14594 3.25119 7.02561C3.25119 7.90527 3.5993 8.74891 4.21895 9.37093C4.83859 9.99295 5.67901 10.3424 6.55532 10.3424Z" fill="#121213"/>
</svg>
