<svg width="14" height="14" viewBox="0 0 14 14" fill="none" xmlns="http://www.w3.org/2000/svg">
<rect x="0.342285" y="0.429749" width="12.9355" height="13.3268" rx="4.10055" fill="#EFE3C8"/>
<path d="M9.34308 9.39667L10.4733 10.5306C10.526 10.5854 10.5551 10.6588 10.5545 10.7349C10.5538 10.8111 10.5234 10.8839 10.4697 10.9378C10.4161 10.9916 10.3435 11.0222 10.2677 11.0228C10.1918 11.0235 10.1187 10.9942 10.0641 10.9413L8.93394 9.80679C8.19539 10.442 7.24046 10.7653 6.26953 10.709C5.2986 10.6527 4.38715 10.221 3.72643 9.50462C3.06571 8.78823 2.70708 7.8428 2.7258 6.8667C2.74451 5.89061 3.13912 4.95973 3.82682 4.26939C4.51451 3.57906 5.44184 3.18294 6.41421 3.16415C7.38658 3.14536 8.32841 3.50537 9.04206 4.16862C9.75571 4.83187 10.1857 5.74682 10.2418 6.72147C10.298 7.69612 9.97585 8.65471 9.34308 9.39609V9.39667ZM6.48665 10.1344C7.33078 10.1344 8.14035 9.79781 8.73724 9.19863C9.33413 8.59945 9.66946 7.78679 9.66946 6.93942C9.66946 6.09205 9.33413 5.27939 8.73724 4.68021C8.14035 4.08103 7.33078 3.74441 6.48665 3.74441C5.64252 3.74441 4.83296 4.08103 4.23606 4.68021C3.63917 5.27939 3.30384 6.09205 3.30384 6.93942C3.30384 7.78679 3.63917 8.59945 4.23606 9.19863C4.83296 9.79781 5.64252 10.1344 6.48665 10.1344Z" fill="#121213"/>
</svg>
