<svg width="11" height="11" viewBox="0 0 11 11" fill="none" xmlns="http://www.w3.org/2000/svg">
<rect x="0.413696" y="0.600708" width="9.98258" height="10.2366" rx="4.99129" fill="#EFE3C8"/>
<path d="M7.35979 7.48837L8.23197 8.35937C8.27265 8.40145 8.29515 8.45781 8.29464 8.5163C8.29414 8.5748 8.27065 8.63076 8.22925 8.67212C8.18785 8.71349 8.13185 8.73695 8.0733 8.73746C8.01475 8.73797 7.95835 8.71548 7.91623 8.67484L7.04405 7.80339C6.47409 8.2913 5.73716 8.53967 4.98787 8.4964C4.23859 8.45312 3.5352 8.12156 3.02531 7.57129C2.51542 7.02102 2.23866 6.29481 2.2531 5.54505C2.26755 4.79529 2.57207 4.08026 3.10278 3.55C3.63349 3.01974 4.34913 2.71547 5.09952 2.70104C5.84992 2.68661 6.57674 2.96313 7.12748 3.47259C7.67822 3.98205 8.01006 4.68484 8.05338 5.43349C8.09669 6.18214 7.8481 6.91845 7.35979 7.48792V7.48837ZM5.15542 8.05506C5.80686 8.05506 6.43161 7.79649 6.89225 7.33625C7.35288 6.87601 7.61166 6.25178 7.61166 5.6009C7.61166 4.95002 7.35288 4.3258 6.89225 3.86555C6.43161 3.40531 5.80686 3.14675 5.15542 3.14675C4.50399 3.14675 3.87924 3.40531 3.4186 3.86555C2.95797 4.3258 2.69919 4.95002 2.69919 5.6009C2.69919 6.25178 2.95797 6.87601 3.4186 7.33625C3.87924 7.79649 4.50399 8.05506 5.15542 8.05506Z" fill="#121213"/>
</svg>
