<svg width="14" height="15" viewBox="0 0 14 15" fill="none" xmlns="http://www.w3.org/2000/svg">
<rect x="0.0137939" y="0.267822" width="13.4286" height="13.8348" rx="4.25685" fill="#EFE3C8"/>
<path d="M9.35779 9.57652L10.5311 10.7537C10.5858 10.8105 10.616 10.8867 10.6154 10.9658C10.6147 11.0448 10.5831 11.1205 10.5274 11.1764C10.4717 11.2323 10.3964 11.264 10.3176 11.2647C10.2389 11.2654 10.163 11.235 10.1063 11.18L8.93306 10.0023C8.16635 10.6617 7.17503 10.9974 6.16709 10.9389C5.15915 10.8804 4.21295 10.4323 3.52705 9.68858C2.84114 8.94489 2.46884 7.96342 2.48827 6.95012C2.5077 5.93682 2.91735 4.97045 3.63126 4.25381C4.34517 3.53716 5.30785 3.12595 6.31728 3.10644C7.32671 3.08693 8.30444 3.46066 9.04529 4.14919C9.78615 4.83773 10.2325 5.78755 10.2908 6.79935C10.3491 7.81115 10.0147 8.80628 9.35779 9.57592V9.57652ZM6.39248 10.3424C7.26879 10.3424 8.10921 9.99295 8.72885 9.37093C9.3485 8.74891 9.69661 7.90527 9.69661 7.02561C9.69661 6.14594 9.3485 5.3023 8.72885 4.68028C8.10921 4.05826 7.26879 3.70881 6.39248 3.70881C5.51617 3.70881 4.67575 4.05826 4.05611 4.68028C3.43646 5.3023 3.08835 6.14594 3.08835 7.02561C3.08835 7.90527 3.43646 8.74891 4.05611 9.37093C4.67575 9.99295 5.51617 10.3424 6.39248 10.3424Z" fill="#121213"/>
</svg>
