<svg width="14" height="14" viewBox="0 0 14 14" fill="none" xmlns="http://www.w3.org/2000/svg">
<rect x="0.336914" y="0.0880432" width="12.9851" height="13.3268" rx="4.10055" fill="#EFE3C8"/>
<path d="M9.3721 9.05496L10.5066 10.1889C10.5595 10.2437 10.5888 10.3171 10.5881 10.3932C10.5875 10.4694 10.5569 10.5422 10.5031 10.5961C10.4492 10.6499 10.3764 10.6805 10.3002 10.6811C10.2241 10.6818 10.1507 10.6525 10.0959 10.5996L8.9614 9.46509C8.22001 10.1003 7.26142 10.4236 6.28678 10.3673C5.31213 10.311 4.39718 9.8793 3.73393 9.16291C3.07067 8.44653 2.71067 7.50109 2.72946 6.525C2.74825 5.5489 3.14437 4.61802 3.8347 3.92769C4.52503 3.23736 5.45591 2.84124 6.43201 2.82245C7.4081 2.80366 8.35354 3.16366 9.06993 3.82691C9.78631 4.49017 10.218 5.40511 10.2743 6.37976C10.3306 7.35441 10.0073 8.313 9.3721 9.05438V9.05496ZM6.50472 9.79272C7.35209 9.79272 8.16476 9.4561 8.76394 8.85692C9.36312 8.25774 9.69973 7.44508 9.69973 6.59771C9.69973 5.75034 9.36312 4.93768 8.76394 4.3385C8.16476 3.73932 7.35209 3.4027 6.50472 3.4027C5.65736 3.4027 4.84469 3.73932 4.24551 4.3385C3.64633 4.93768 3.30972 5.75034 3.30972 6.59771C3.30972 7.44508 3.64633 8.25774 4.24551 8.85692C4.84469 9.4561 5.65736 9.79272 6.50472 9.79272Z" fill="#121213"/>
</svg>
