<svg width="15" height="15" viewBox="0 0 15 15" fill="none" xmlns="http://www.w3.org/2000/svg">
<rect x="0.895874" y="0.913086" width="13.48" height="13.8348" rx="4.25685" fill="#EFE3C8"/>
<path d="M10.2756 10.2218L11.4534 11.3989C11.5083 11.4558 11.5387 11.532 11.538 11.611C11.5373 11.6901 11.5056 11.7657 11.4497 11.8216C11.3938 11.8775 11.3181 11.9092 11.2391 11.9099C11.16 11.9106 11.0839 11.8802 11.027 11.8253L9.84923 10.6475C9.07959 11.3069 8.08446 11.6426 7.07266 11.5841C6.06086 11.5256 5.11104 11.0775 4.42251 10.3338C3.73398 9.59015 3.36025 8.60868 3.37976 7.59538C3.39926 6.58208 3.81048 5.61572 4.52712 4.89907C5.24377 4.18243 6.21013 3.77121 7.22343 3.7517C8.23673 3.7322 9.21821 4.10592 9.9619 4.79446C10.7056 5.48299 11.1537 6.43281 11.2122 7.44461C11.2707 8.45641 10.935 9.45154 10.2756 10.2212V10.2218ZM7.29892 10.9877C8.17859 10.9877 9.02223 10.6382 9.64425 10.0162C10.2663 9.39418 10.6157 8.55054 10.6157 7.67087C10.6157 6.7912 10.2663 5.94756 9.64425 5.32554C9.02223 4.70353 8.17859 4.35408 7.29892 4.35408C6.41925 4.35408 5.57561 4.70353 4.9536 5.32554C4.33158 5.94756 3.98213 6.7912 3.98213 7.67087C3.98213 8.55054 4.33158 9.39418 4.9536 10.0162C5.57561 10.6382 6.41925 10.9877 7.29892 10.9877Z" fill="#121213"/>
</svg>
