<svg width="59" height="58" viewBox="0 0 59 58" fill="none" xmlns="http://www.w3.org/2000/svg">
<path d="M29.5262 4.83331C22.2575 4.83331 17.5444 9.71254 11.9704 11.491C9.70399 12.2141 8.57078 12.5757 8.11217 13.0854C7.65356 13.5951 7.51926 14.3399 7.25068 15.8295C4.37656 31.7695 10.6586 46.5063 25.6405 52.2422C27.2502 52.8585 28.0551 53.1667 29.5342 53.1666C31.0133 53.1666 31.8181 52.8585 33.4277 52.2422C48.4086 46.5062 54.6847 31.7694 51.8098 15.8295C51.5411 14.3396 51.4067 13.5947 50.948 13.085C50.4893 12.5753 49.3562 12.2139 47.0899 11.4912C41.5137 9.71291 36.7953 4.83331 29.5262 4.83331Z" stroke="#EFE3C8" stroke-width="3" stroke-linecap="round" stroke-linejoin="round"/>
<path d="M23.683 38.3217L23.0745 39.6928H23.0745L23.683 38.3217ZM21.3942 35.8694L19.9951 36.4103H19.9951L21.3942 35.8694ZM37.667 35.8694L39.0661 36.4103L37.667 35.8694ZM35.3782 38.3217L35.9867 39.6928H35.9867L35.3782 38.3217ZM35.3782 25.4178L35.9867 24.0468V24.0468L35.3782 25.4178ZM37.667 27.8701L39.0661 27.3292V27.3292L37.667 27.8701ZM23.683 25.4178L23.0745 24.0468L23.683 25.4178ZM21.3942 27.8701L19.9951 27.3292V27.3292L21.3942 27.8701ZM23.8014 25.0729C23.8014 25.9013 24.473 26.5729 25.3014 26.5729C26.1299 26.5729 26.8014 25.9013 26.8014 25.0729H23.8014ZM32.2598 25.0729C32.2598 25.9013 32.9313 26.5729 33.7598 26.5729C34.5882 26.5729 35.2598 25.9013 35.2598 25.0729H32.2598ZM27.416 26.5729H31.6452V23.5729H27.416V26.5729ZM31.6452 37.1666H27.416V40.1666H31.6452L31.6452 37.1666ZM27.416 37.1666C26.4088 37.1666 25.7338 37.1657 25.2114 37.1275C24.7046 37.0905 24.457 37.0241 24.2915 36.9507L23.0745 39.6928C23.6862 39.9642 24.3198 40.0703 24.9926 40.1195C25.6498 40.1676 26.4527 40.1666 27.416 40.1666V37.1666ZM19.5723 31.8698C19.5723 32.9062 19.5716 33.7537 19.6155 34.4444C19.6603 35.1466 19.7556 35.7907 19.9951 36.4103L22.7933 35.3285C22.7109 35.1155 22.6452 34.8153 22.6095 34.2537C22.573 33.6805 22.5723 32.9446 22.5723 31.8698H19.5723ZM24.2915 36.9507C23.638 36.6606 23.0872 36.0889 22.7933 35.3285L19.9951 36.4103C20.5596 37.8705 21.6555 39.063 23.0745 39.6928L24.2915 36.9507ZM36.4889 31.8698C36.4889 32.9446 36.4882 33.6805 36.4517 34.2537C36.416 34.8153 36.3503 35.1155 36.2679 35.3285L39.0661 36.4103C39.3056 35.7907 39.4009 35.1466 39.4457 34.4444C39.4896 33.7537 39.4889 32.9062 39.4889 31.8698H36.4889ZM31.6452 40.1666C32.6085 40.1666 33.4114 40.1676 34.0686 40.1195C34.7413 40.0703 35.375 39.9642 35.9867 39.6928L34.7697 36.9507C34.6042 37.0241 34.3566 37.0905 33.8498 37.1275C33.3274 37.1657 32.6524 37.1666 31.6452 37.1666L31.6452 40.1666ZM36.2679 35.3285C35.974 36.0889 35.4232 36.6606 34.7697 36.9507L35.9867 39.6928C37.4057 39.063 38.5016 37.8705 39.0661 36.4103L36.2679 35.3285ZM31.6452 26.5729C32.6524 26.5729 33.3274 26.5738 33.8498 26.612C34.3566 26.649 34.6042 26.7154 34.7697 26.7888L35.9867 24.0468C35.375 23.7753 34.7413 23.6692 34.0686 23.62C33.4114 23.5719 32.6085 23.5729 31.6452 23.5729V26.5729ZM39.4889 31.8698C39.4889 30.8333 39.4896 29.9858 39.4457 29.2951C39.4009 28.5929 39.3056 27.9488 39.0661 27.3292L36.2679 28.411C36.3503 28.6241 36.416 28.9242 36.4517 29.4858C36.4882 30.059 36.4889 30.7949 36.4889 31.8698H39.4889ZM34.7697 26.7888C35.4232 27.0789 35.974 27.6506 36.2679 28.411L39.0661 27.3292C38.5016 25.869 37.4057 24.6765 35.9867 24.0468L34.7697 26.7888ZM27.416 23.5729C26.4527 23.5729 25.6498 23.5719 24.9926 23.62C24.3198 23.6692 23.6862 23.7753 23.0745 24.0468L24.2915 26.7888C24.457 26.7154 24.7046 26.649 25.2114 26.612C25.7338 26.5738 26.4088 26.5729 27.416 26.5729V23.5729ZM22.5723 31.8698C22.5723 30.7949 22.573 30.059 22.6095 29.4858C22.6452 28.9242 22.7109 28.6241 22.7933 28.411L19.9951 27.3292C19.7556 27.9488 19.6603 28.5929 19.6155 29.2951C19.5716 29.9858 19.5723 30.8333 19.5723 31.8698H22.5723ZM23.0745 24.0468C21.6555 24.6765 20.5596 25.869 19.9951 27.3292L22.7933 28.411C23.0872 27.6506 23.638 27.0789 24.2915 26.7888L23.0745 24.0468ZM26.8014 25.0729V20.9948H23.8014V25.0729H26.8014ZM32.2598 20.9948V25.0729H35.2598V20.9948H32.2598ZM29.5306 18.4166C31.0898 18.4166 32.2598 19.6218 32.2598 20.9948H35.2598C35.2598 17.8631 32.6428 15.4166 29.5306 15.4166V18.4166ZM26.8014 20.9948C26.8014 19.6218 27.9714 18.4166 29.5306 18.4166V15.4166C26.4184 15.4166 23.8014 17.8631 23.8014 20.9948H26.8014Z" fill="#EFE3C8"/>
</svg>
