<svg width="21" height="21" viewBox="0 0 21 21" fill="none" xmlns="http://www.w3.org/2000/svg">
<path d="M10.6741 2.5426C8.2028 2.5426 6.60043 4.20145 4.70539 4.80609C3.93485 5.05195 3.54958 5.17487 3.39366 5.34816C3.23774 5.52144 3.19208 5.77466 3.10076 6.2811C2.12362 11.7004 4.2594 16.7106 9.35296 18.6608C9.90024 18.8703 10.1739 18.9751 10.6768 18.9751C11.1796 18.9751 11.4532 18.8703 12.0005 18.6608C17.0937 16.7106 19.2275 11.7004 18.2501 6.28109C18.1587 5.77457 18.113 5.52131 17.9571 5.34802C17.8011 5.17474 17.4159 5.05188 16.6454 4.80616C14.7496 4.20158 13.1454 2.5426 10.6741 2.5426Z" stroke="#EFE3C8" stroke-width="1.01995" stroke-linecap="round" stroke-linejoin="round"/>
<path d="M8.68741 13.928L8.48054 14.3942L8.48054 14.3942L8.68741 13.928ZM7.90925 13.0943L7.43359 13.2782L7.43359 13.2782L7.90925 13.0943ZM13.4417 13.0943L13.9174 13.2782L13.9174 13.2782L13.4417 13.0943ZM12.6636 13.928L12.8704 14.3942L12.8704 14.3942L12.6636 13.928ZM12.6636 9.54094L12.8704 9.07481L12.8704 9.07481L12.6636 9.54094ZM13.4417 10.3747L13.9174 10.1908L13.9174 10.1908L13.4417 10.3747ZM8.68741 9.54094L8.48054 9.07481L8.48054 9.07481L8.68741 9.54094ZM7.90925 10.3747L7.43359 10.1908L7.43359 10.1908L7.90925 10.3747ZM8.72767 9.42367C8.72767 9.70532 8.95599 9.93365 9.23764 9.93365C9.51929 9.93365 9.74762 9.70532 9.74762 9.42367H8.72767ZM11.6034 9.42367C11.6034 9.70532 11.8317 9.93365 12.1133 9.93365C12.395 9.93365 12.6233 9.70532 12.6233 9.42367H11.6034ZM9.95656 9.93365H11.3944V8.9137H9.95656V9.93365ZM11.3944 13.5353H9.95656V14.5553H11.3944V13.5353ZM9.95656 13.5353C9.61412 13.5353 9.38464 13.535 9.20702 13.522C9.03473 13.5094 8.95056 13.4869 8.89428 13.4619L8.48054 14.3942C8.68849 14.4865 8.90392 14.5225 9.13266 14.5393C9.35608 14.5556 9.62906 14.5553 9.95656 14.5553V13.5353ZM7.28983 11.7345C7.28983 12.0869 7.28959 12.375 7.30454 12.6098C7.31975 12.8486 7.35215 13.0675 7.43359 13.2782L8.38492 12.9104C8.35691 12.838 8.33459 12.7359 8.32243 12.545C8.31002 12.3501 8.30978 12.0999 8.30978 11.7345H7.28983ZM8.89428 13.4619C8.67209 13.3633 8.48486 13.1689 8.38492 12.9104L7.43359 13.2782C7.62551 13.7746 7.9981 14.1801 8.48054 14.3942L8.89428 13.4619ZM13.0412 11.7345C13.0412 12.0999 13.041 12.3501 13.0285 12.545C13.0164 12.7359 12.9941 12.838 12.9661 12.9104L13.9174 13.2782C13.9988 13.0675 14.0312 12.8486 14.0464 12.6098C14.0614 12.375 14.0611 12.0869 14.0611 11.7345H13.0412ZM11.3944 14.5553C11.7219 14.5553 11.9949 14.5556 12.2183 14.5393C12.447 14.5225 12.6625 14.4865 12.8704 14.3942L12.4567 13.4619C12.4004 13.4869 12.3162 13.5094 12.1439 13.522C11.9663 13.535 11.7369 13.5353 11.3944 13.5353V14.5553ZM12.9661 12.9104C12.8661 13.1689 12.6789 13.3633 12.4567 13.4619L12.8704 14.3942C13.3529 14.1801 13.7255 13.7746 13.9174 13.2782L12.9661 12.9104ZM11.3944 9.93365C11.7369 9.93365 11.9663 9.93396 12.1439 9.94695C12.3162 9.95954 12.4004 9.98209 12.4567 10.0071L12.8704 9.07481C12.6625 8.98252 12.447 8.94644 12.2183 8.92972C11.9949 8.91338 11.7219 8.9137 11.3944 8.9137V9.93365ZM14.0611 11.7345C14.0611 11.3821 14.0614 11.094 14.0464 10.8592C14.0312 10.6204 13.9988 10.4014 13.9174 10.1908L12.9661 10.5586C12.9941 10.631 13.0164 10.7331 13.0285 10.924C13.041 11.1189 13.0412 11.3691 13.0412 11.7345H14.0611ZM12.4567 10.0071C12.6789 10.1057 12.8661 10.3 12.9661 10.5586L13.9174 10.1908C13.7255 9.69435 13.3529 9.28892 12.8704 9.07481L12.4567 10.0071ZM9.95656 8.9137C9.62906 8.9137 9.35608 8.91338 9.13266 8.92972C8.90392 8.94644 8.68849 8.98252 8.48054 9.07481L8.89428 10.0071C8.95056 9.98209 9.03473 9.95954 9.20702 9.94695C9.38464 9.93396 9.61412 9.93365 9.95656 9.93365V8.9137ZM8.30978 11.7345C8.30978 11.3691 8.31002 11.1189 8.32243 10.924C8.33459 10.7331 8.35691 10.631 8.38492 10.5586L7.43359 10.1908C7.35215 10.4014 7.31975 10.6204 7.30454 10.8592C7.28959 11.094 7.28983 11.3821 7.28983 11.7345H8.30978ZM8.48054 9.07481C7.9981 9.28892 7.62551 9.69435 7.43359 10.1908L8.38492 10.5586C8.48486 10.3 8.67209 10.1057 8.89428 10.0071L8.48054 9.07481ZM9.74762 9.42367V8.03718H8.72767V9.42367H9.74762ZM11.6034 8.03718V9.42367H12.6233V8.03718H11.6034ZM10.6755 7.16067C11.2056 7.16067 11.6034 7.57042 11.6034 8.03718H12.6233C12.6233 6.97248 11.7336 6.14072 10.6755 6.14072V7.16067ZM9.74762 8.03718C9.74762 7.57042 10.1454 7.16067 10.6755 7.16067V6.14072C9.61738 6.14072 8.72767 6.97248 8.72767 8.03718H9.74762Z" fill="#EFE3C8"/>
</svg>
