<svg width="47" height="45" viewBox="0 0 47 45" fill="none" xmlns="http://www.w3.org/2000/svg">
<g clip-path="url(#clip0_34_1605)">
<path d="M27.4168 41.25H18.8429C14.245 41.25 11.946 41.25 10.3512 39.9271C8.7564 38.6043 8.3658 36.3733 7.58458 31.9114L5.2276 18.4497C4.87123 16.4143 4.69305 15.3966 5.26364 14.7295C5.83423 14.0625 6.88294 14.0625 8.98037 14.0625H38.02C40.1174 14.0625 41.1661 14.0625 41.7367 14.7295C42.3073 15.3966 42.1291 16.4143 41.7727 18.4497L41.2277 21.5625" stroke="#121213" stroke-width="4" stroke-linecap="round"/>
<path d="M34.2712 14.0625C34.2712 8.36706 29.4489 3.75 23.5003 3.75C17.5518 3.75 12.7295 8.36706 12.7295 14.0625" stroke="#121213" stroke-width="3"/>
<g filter="url(#filter0_d_34_1605)">
<path d="M32.3125 30.9375C33.2751 29.9893 35.8371 26.25 37.2083 26.25M42.1042 30.9375C41.1416 29.9893 38.5796 26.25 37.2083 26.25M37.2083 26.25V41.25" stroke="#121213" stroke-width="3" stroke-linecap="round" stroke-linejoin="round"/>
</g>
</g>
<defs>
<filter id="filter0_d_34_1605" x="26.8125" y="24.75" width="20.7915" height="26" filterUnits="userSpaceOnUse" color-interpolation-filters="sRGB">
<feFlood flood-opacity="0" result="BackgroundImageFix"/>
<feColorMatrix in="SourceAlpha" type="matrix" values="0 0 0 0 0 0 0 0 0 0 0 0 0 0 0 0 0 0 127 0" result="hardAlpha"/>
<feOffset dy="4"/>
<feGaussianBlur stdDeviation="2"/>
<feComposite in2="hardAlpha" operator="out"/>
<feColorMatrix type="matrix" values="0 0 0 0 0 0 0 0 0 0 0 0 0 0 0 0 0 0 0.25 0"/>
<feBlend mode="normal" in2="BackgroundImageFix" result="effect1_dropShadow_34_1605"/>
<feBlend mode="normal" in="SourceGraphic" in2="effect1_dropShadow_34_1605" result="shape"/>
</filter>
<clipPath id="clip0_34_1605">
<rect width="47" height="45" fill="white"/>
</clipPath>
</defs>
</svg>
