<svg width="14" height="13" viewBox="0 0 14 13" fill="none" xmlns="http://www.w3.org/2000/svg">
<g clip-path="url(#clip0_80_7806)">
<path d="M7.72094 11.6851H5.3282C4.04507 11.6851 3.4035 11.6851 2.95843 11.316C2.51336 10.9468 2.40435 10.3242 2.18634 9.07901L1.52858 5.32222C1.42912 4.75421 1.3794 4.47021 1.53863 4.28405C1.69787 4.0979 1.99053 4.0979 2.57586 4.0979H10.68C11.2653 4.0979 11.558 4.0979 11.7172 4.28405C11.8764 4.47021 11.8267 4.75421 11.7272 5.32222L11.5751 6.19093" stroke="#121213" stroke-width="1.11628" stroke-linecap="round"/>
<path d="M9.63371 4.09789C9.63371 2.50846 8.28796 1.21997 6.62789 1.21997C4.96782 1.21997 3.62207 2.50846 3.62207 4.09789" stroke="#121213" stroke-width="0.837212"/>
<g filter="url(#filter0_d_80_7806)">
<path d="M9.0874 8.80723C9.35603 8.54262 10.071 7.49908 10.4537 7.49908M11.82 8.80723C11.5513 8.54262 10.8364 7.49908 10.4537 7.49908M10.4537 7.49908V11.6851" stroke="#121213" stroke-width="0.837212" stroke-linecap="round" stroke-linejoin="round"/>
</g>
</g>
<defs>
<filter id="filter0_d_80_7806" x="7.55266" y="7.08051" width="5.80239" height="7.25582" filterUnits="userSpaceOnUse" color-interpolation-filters="sRGB">
<feFlood flood-opacity="0" result="BackgroundImageFix"/>
<feColorMatrix in="SourceAlpha" type="matrix" values="0 0 0 0 0 0 0 0 0 0 0 0 0 0 0 0 0 0 127 0" result="hardAlpha"/>
<feOffset dy="1.11628"/>
<feGaussianBlur stdDeviation="0.558141"/>
<feComposite in2="hardAlpha" operator="out"/>
<feColorMatrix type="matrix" values="0 0 0 0 0 0 0 0 0 0 0 0 0 0 0 0 0 0 0.25 0"/>
<feBlend mode="normal" in2="BackgroundImageFix" result="effect1_dropShadow_80_7806"/>
<feBlend mode="normal" in="SourceGraphic" in2="effect1_dropShadow_80_7806" result="shape"/>
</filter>
<clipPath id="clip0_80_7806">
<rect width="13.1163" height="12.5582" fill="white" transform="translate(0.0698242 0.173462)"/>
</clipPath>
</defs>
</svg>
