<svg width="8" height="8" viewBox="0 0 8 8" fill="none" xmlns="http://www.w3.org/2000/svg">
<g clip-path="url(#clip0_124_938)">
<path d="M4.61814 1.43325L5.14609 2.49786C5.21808 2.64606 5.41006 2.78821 5.57204 2.81543L6.52893 2.97573C7.14087 3.07856 7.28485 3.52618 6.8439 3.96775L6.09998 4.71781C5.97399 4.84484 5.905 5.08982 5.944 5.26524L6.15697 6.19375C6.32496 6.92869 5.938 7.21299 5.29307 6.82889L4.39617 6.29356C4.23419 6.19677 3.96722 6.19677 3.80224 6.29356L2.90533 6.82889C2.2634 7.21299 1.87345 6.92567 2.04143 6.19375L2.25441 5.26524C2.2934 5.08982 2.22441 4.84484 2.09842 4.71781L1.35451 3.96775C0.916553 3.52618 1.05754 3.07856 1.66947 2.97573L2.62636 2.81543C2.78535 2.78821 2.97733 2.64606 3.04932 2.49786L3.57726 1.43325C3.86523 0.855582 4.33318 0.855582 4.61814 1.43325Z" fill="#1C161E" stroke="#1C161E" stroke-width="0.45" stroke-linecap="round" stroke-linejoin="round"/>
</g>
<defs>
<clipPath id="clip0_124_938">
<rect width="7.2" height="7.2" fill="white" transform="translate(0.499756 0.399994)"/>
</clipPath>
</defs>
</svg>
