<svg width="8" height="8" viewBox="0 0 8 8" fill="none" xmlns="http://www.w3.org/2000/svg">
<g clip-path="url(#clip0_124_1419)">
<path d="M4.39837 1.73271L4.93176 2.80831C5.0045 2.95804 5.19846 3.10166 5.36212 3.12916L6.32889 3.29111C6.94714 3.395 7.09261 3.84725 6.64711 4.29338L5.89551 5.05119C5.76822 5.17953 5.69852 5.42704 5.73792 5.60427L5.95309 6.54236C6.12281 7.2849 5.73185 7.57213 5.08027 7.18406L4.1741 6.6432C4.01045 6.54542 3.74072 6.54542 3.57404 6.6432L2.66787 7.18406C2.01932 7.57213 1.62533 7.28184 1.79505 6.54236L2.01022 5.60427C2.04962 5.42704 1.97992 5.17953 1.85263 5.05119L1.10103 4.29338C0.658557 3.84725 0.800998 3.395 1.41925 3.29111L2.38602 3.12916C2.54665 3.10166 2.74061 2.95804 2.81334 2.80831L3.34674 1.73271C3.63768 1.14907 4.11046 1.14907 4.39837 1.73271Z" fill="#EFE3C8" stroke="#EFE3C8" stroke-width="0.454647" stroke-linecap="round" stroke-linejoin="round"/>
</g>
<defs>
<clipPath id="clip0_124_1419">
<rect width="7.27435" height="7.27435" fill="white" transform="translate(0.237793 0.688782)"/>
</clipPath>
</defs>
</svg>
