<svg width="9" height="8" viewBox="0 0 9 8" fill="none" xmlns="http://www.w3.org/2000/svg">
<g clip-path="url(#clip0_124_1416)">
<path d="M4.91155 1.73271L5.44495 2.80831C5.51768 2.95804 5.71164 3.10166 5.8753 3.12916L6.84207 3.29111C7.46033 3.395 7.6058 3.84725 7.16029 4.29338L6.40869 5.05119C6.28141 5.17953 6.2117 5.42704 6.2511 5.60427L6.46627 6.54236C6.63599 7.2849 6.24504 7.57213 5.59345 7.18406L4.68729 6.6432C4.52363 6.54542 4.25391 6.54542 4.08722 6.6432L3.18106 7.18406C2.5325 7.57213 2.13852 7.28184 2.30823 6.54236L2.52341 5.60427C2.56281 5.42704 2.4931 5.17953 2.36581 5.05119L1.61421 4.29338C1.17174 3.84725 1.31418 3.395 1.93243 3.29111L2.89921 3.12916C3.05983 3.10166 3.25379 2.95804 3.32653 2.80831L3.85992 1.73271C4.15086 1.14907 4.62364 1.14907 4.91155 1.73271Z" fill="#EFE3C8" stroke="#EFE3C8" stroke-width="0.454647" stroke-linecap="round" stroke-linejoin="round"/>
</g>
<defs>
<clipPath id="clip0_124_1416">
<rect width="7.27435" height="7.27435" fill="white" transform="translate(0.750977 0.688782)"/>
</clipPath>
</defs>
</svg>
