<svg width="8" height="8" viewBox="0 0 8 8" fill="none" xmlns="http://www.w3.org/2000/svg">
<g clip-path="url(#clip0_124_1037)">
<path d="M4.6179 1.33326L5.14584 2.39786C5.21783 2.54606 5.40981 2.68821 5.5718 2.71543L6.52869 2.87573C7.14062 2.97856 7.28461 3.42618 6.84366 3.86775L6.09974 4.61782C5.97375 4.74484 5.90476 4.98982 5.94375 5.16524L6.15673 6.09375C6.32471 6.82869 5.93775 7.11299 5.29283 6.72889L4.39593 6.19356C4.23394 6.09678 3.96697 6.09678 3.80199 6.19356L2.90509 6.72889C2.26316 7.11299 1.8732 6.82567 2.04119 6.09375L2.25416 5.16524C2.29316 4.98982 2.22416 4.74484 2.09818 4.61782L1.35426 3.86775C0.916309 3.42618 1.05729 2.97856 1.66923 2.87573L2.62612 2.71543C2.7851 2.68821 2.97708 2.54606 3.04907 2.39786L3.57702 1.33326C3.86498 0.755584 4.33293 0.755584 4.6179 1.33326Z" fill="#1C161E" stroke="#1C161E" stroke-width="0.45" stroke-linecap="round" stroke-linejoin="round"/>
</g>
<defs>
<clipPath id="clip0_124_1037">
<rect width="7.2" height="7.2" fill="white" transform="translate(0.499756 0.300003)"/>
</clipPath>
</defs>
</svg>
