<svg width="8" height="8" viewBox="0 0 8 8" fill="none" xmlns="http://www.w3.org/2000/svg">
<g clip-path="url(#clip0_124_1031)">
<path d="M4.8181 1.33326L5.34604 2.39786C5.41803 2.54606 5.61001 2.68821 5.77199 2.71543L6.72888 2.87573C7.34082 2.97856 7.4848 3.42618 7.04385 3.86775L6.29993 4.61782C6.17395 4.74484 6.10495 4.98982 6.14395 5.16524L6.35693 6.09375C6.52491 6.82869 6.13795 7.11299 5.49302 6.72889L4.59612 6.19356C4.43414 6.09678 4.16717 6.09678 4.00219 6.19356L3.10529 6.72889C2.46336 7.11299 2.0734 6.82567 2.24138 6.09375L2.45436 5.16524C2.49335 4.98982 2.42436 4.74484 2.29837 4.61782L1.55446 3.86775C1.1165 3.42618 1.25749 2.97856 1.86942 2.87573L2.82632 2.71543C2.9853 2.68821 3.17728 2.54606 3.24927 2.39786L3.77721 1.33326C4.06518 0.755584 4.53313 0.755584 4.8181 1.33326Z" fill="#1C161E" stroke="#1C161E" stroke-width="0.45" stroke-linecap="round" stroke-linejoin="round"/>
</g>
<defs>
<clipPath id="clip0_124_1031">
<rect width="7.2" height="7.2" fill="white" transform="translate(0.699707 0.300003)"/>
</clipPath>
</defs>
</svg>
