<svg width="8" height="8" viewBox="0 0 8 8" fill="none" xmlns="http://www.w3.org/2000/svg">
<g clip-path="url(#clip0_124_1422)">
<path d="M4.88519 1.73271L5.41858 2.80831C5.49132 2.95804 5.68528 3.10166 5.84893 3.12916L6.81571 3.29111C7.43396 3.395 7.57943 3.84725 7.13393 4.29338L6.38233 5.05119C6.25504 5.17953 6.18533 5.42704 6.22473 5.60427L6.43991 6.54236C6.60962 7.2849 6.21867 7.57213 5.56708 7.18406L4.66092 6.6432C4.49727 6.54542 4.22754 6.54542 4.06085 6.6432L3.15469 7.18406C2.50613 7.57213 2.11215 7.28184 2.28186 6.54236L2.49704 5.60427C2.53644 5.42704 2.46673 5.17953 2.33945 5.05119L1.58785 4.29338C1.14537 3.84725 1.28781 3.395 1.90607 3.29111L2.87284 3.12916C3.03346 3.10166 3.22743 2.95804 3.30016 2.80831L3.83355 1.73271C4.1245 1.14907 4.59728 1.14907 4.88519 1.73271Z" fill="#EFE3C8" stroke="#EFE3C8" stroke-width="0.454647" stroke-linecap="round" stroke-linejoin="round"/>
</g>
<defs>
<clipPath id="clip0_124_1422">
<rect width="7.27435" height="7.27435" fill="white" transform="translate(0.724609 0.688782)"/>
</clipPath>
</defs>
</svg>
