<svg width="8" height="8" viewBox="0 0 8 8" fill="none" xmlns="http://www.w3.org/2000/svg">
<g clip-path="url(#clip0_124_1034)">
<path d="M4.218 1.33326L4.74594 2.39786C4.81793 2.54606 5.00991 2.68821 5.17189 2.71543L6.12879 2.87573C6.74072 2.97856 6.8847 3.42618 6.44375 3.86775L5.69983 4.61782C5.57385 4.74484 5.50486 4.98982 5.54385 5.16524L5.75683 6.09375C5.92481 6.82869 5.53785 7.11299 4.89292 6.72889L3.99602 6.19356C3.83404 6.09678 3.56707 6.09678 3.40209 6.19356L2.50519 6.72889C1.86326 7.11299 1.4733 6.82567 1.64128 6.09375L1.85426 5.16524C1.89326 4.98982 1.82426 4.74484 1.69828 4.61782L0.954359 3.86775C0.516407 3.42618 0.657392 2.97856 1.26932 2.87573L2.22622 2.71543C2.3852 2.68821 2.57718 2.54606 2.64917 2.39786L3.17711 1.33326C3.46508 0.755584 3.93303 0.755584 4.218 1.33326Z" fill="#1C161E" stroke="#1C161E" stroke-width="0.45" stroke-linecap="round" stroke-linejoin="round"/>
</g>
<defs>
<clipPath id="clip0_124_1034">
<rect width="7.2" height="7.2" fill="white" transform="translate(0.0996094 0.300003)"/>
</clipPath>
</defs>
</svg>
