<svg width="8" height="8" viewBox="0 0 8 8" fill="none" xmlns="http://www.w3.org/2000/svg">
<g clip-path="url(#clip0_124_935)">
<path d="M4.21824 1.43325L4.74618 2.49786C4.81818 2.64606 5.01016 2.78821 5.17214 2.81543L6.12903 2.97573C6.74096 3.07856 6.88495 3.52618 6.444 3.96775L5.70008 4.71781C5.57409 4.84484 5.5051 5.08982 5.5441 5.26524L5.75707 6.19375C5.92505 6.92869 5.5381 7.21299 4.89317 6.82889L3.99627 6.29356C3.83429 6.19677 3.56731 6.19677 3.40233 6.29356L2.50543 6.82889C1.8635 7.21299 1.47355 6.92567 1.64153 6.19375L1.8545 5.26524C1.8935 5.08982 1.82451 4.84484 1.69852 4.71781L0.954603 3.96775C0.516651 3.52618 0.657636 3.07856 1.26957 2.97573L2.22646 2.81543C2.38544 2.78821 2.57742 2.64606 2.64942 2.49786L3.17736 1.43325C3.46533 0.855582 3.93327 0.855582 4.21824 1.43325Z" fill="#1C161E" stroke="#1C161E" stroke-width="0.45" stroke-linecap="round" stroke-linejoin="round"/>
</g>
<defs>
<clipPath id="clip0_124_935">
<rect width="7.2" height="7.2" fill="white" transform="translate(0.0998535 0.399994)"/>
</clipPath>
</defs>
</svg>
