<svg width="9" height="8" viewBox="0 0 9 8" fill="none" xmlns="http://www.w3.org/2000/svg">
<g clip-path="url(#clip0_124_1040)">
<path d="M5.01805 1.33326L5.54599 2.39786C5.61798 2.54606 5.80996 2.68821 5.97194 2.71543L6.92884 2.87573C7.54077 2.97856 7.68475 3.42618 7.2438 3.86775L6.49988 4.61782C6.3739 4.74484 6.3049 4.98982 6.3439 5.16524L6.55688 6.09375C6.72486 6.82869 6.3379 7.11299 5.69297 6.72889L4.79607 6.19356C4.63409 6.09678 4.36712 6.09678 4.20214 6.19356L3.30524 6.72889C2.66331 7.11299 2.27335 6.82567 2.44133 6.09375L2.65431 5.16524C2.6933 4.98982 2.62431 4.74484 2.49833 4.61782L1.75441 3.86775C1.31646 3.42618 1.45744 2.97856 2.06937 2.87573L3.02627 2.71543C3.18525 2.68821 3.37723 2.54606 3.44922 2.39786L3.97716 1.33326C4.26513 0.755584 4.73308 0.755584 5.01805 1.33326Z" fill="#1C161E" stroke="#1C161E" stroke-width="0.45" stroke-linecap="round" stroke-linejoin="round"/>
</g>
<defs>
<clipPath id="clip0_124_1040">
<rect width="7.2" height="7.2" fill="white" transform="translate(0.899658 0.300003)"/>
</clipPath>
</defs>
</svg>
