<svg width="8" height="8" viewBox="0 0 8 8" fill="none" xmlns="http://www.w3.org/2000/svg">
<g clip-path="url(#clip0_124_944)">
<path d="M4.41819 1.43325L4.94614 2.49786C5.01813 2.64606 5.21011 2.78821 5.37209 2.81543L6.32898 2.97573C6.94091 3.07856 7.0849 3.52618 6.64395 3.96775L5.90003 4.71781C5.77404 4.84484 5.70505 5.08982 5.74405 5.26524L5.95702 6.19375C6.12501 6.92869 5.73805 7.21299 5.09312 6.82889L4.19622 6.29356C4.03424 6.19677 3.76727 6.19677 3.60228 6.29356L2.70538 6.82889C2.06345 7.21299 1.6735 6.92567 1.84148 6.19375L2.05445 5.26524C2.09345 5.08982 2.02446 4.84484 1.89847 4.71781L1.15455 3.96775C0.716602 3.52618 0.857587 3.07856 1.46952 2.97573L2.42641 2.81543C2.5854 2.78821 2.77737 2.64606 2.84937 2.49786L3.37731 1.43325C3.66528 0.855582 4.13323 0.855582 4.41819 1.43325Z" fill="#1C161E" stroke="#1C161E" stroke-width="0.45" stroke-linecap="round" stroke-linejoin="round"/>
</g>
<defs>
<clipPath id="clip0_124_944">
<rect width="7.2" height="7.2" fill="white" transform="translate(0.299805 0.399994)"/>
</clipPath>
</defs>
</svg>
