<svg width="9" height="8" viewBox="0 0 9 8" fill="none" xmlns="http://www.w3.org/2000/svg">
<g clip-path="url(#clip0_124_941)">
<path d="M5.01805 1.43325L5.54599 2.49786C5.61798 2.64606 5.80996 2.78821 5.97194 2.81543L6.92884 2.97573C7.54077 3.07856 7.68475 3.52618 7.2438 3.96775L6.49988 4.71781C6.3739 4.84484 6.3049 5.08982 6.3439 5.26524L6.55688 6.19375C6.72486 6.92869 6.3379 7.21299 5.69297 6.82889L4.79607 6.29356C4.63409 6.19677 4.36712 6.19677 4.20214 6.29356L3.30524 6.82889C2.66331 7.21299 2.27335 6.92567 2.44133 6.19375L2.65431 5.26524C2.6933 5.08982 2.62431 4.84484 2.49833 4.71781L1.75441 3.96775C1.31646 3.52618 1.45744 3.07856 2.06937 2.97573L3.02627 2.81543C3.18525 2.78821 3.37723 2.64606 3.44922 2.49786L3.97716 1.43325C4.26513 0.855582 4.73308 0.855582 5.01805 1.43325Z" fill="#1C161E" stroke="#1C161E" stroke-width="0.45" stroke-linecap="round" stroke-linejoin="round"/>
</g>
<defs>
<clipPath id="clip0_124_941">
<rect width="7.2" height="7.2" fill="white" transform="translate(0.899902 0.399994)"/>
</clipPath>
</defs>
</svg>
