<svg width="8" height="8" viewBox="0 0 8 8" fill="none" xmlns="http://www.w3.org/2000/svg">
<g clip-path="url(#clip0_124_1425)">
<path d="M4.372 1.73271L4.9054 2.80831C4.97813 2.95804 5.17209 3.10166 5.33575 3.12916L6.30252 3.29111C6.92077 3.395 7.06625 3.84725 6.62074 4.29338L5.86914 5.05119C5.74185 5.17953 5.67215 5.42704 5.71155 5.60427L5.92672 6.54236C6.09644 7.2849 5.70549 7.57213 5.0539 7.18406L4.14774 6.6432C3.98408 6.54542 3.71435 6.54542 3.54767 6.6432L2.64151 7.18406C1.99295 7.57213 1.59897 7.28184 1.76868 6.54236L1.98386 5.60427C2.02326 5.42704 1.95355 5.17953 1.82626 5.05119L1.07466 4.29338C0.63219 3.84725 0.77463 3.395 1.39288 3.29111L2.35966 3.12916C2.52028 3.10166 2.71424 2.95804 2.78698 2.80831L3.32037 1.73271C3.61131 1.14907 4.08409 1.14907 4.372 1.73271Z" fill="#EFE3C8" stroke="#EFE3C8" stroke-width="0.454647" stroke-linecap="round" stroke-linejoin="round"/>
</g>
<defs>
<clipPath id="clip0_124_1425">
<rect width="7.27435" height="7.27435" fill="white" transform="translate(0.211426 0.688782)"/>
</clipPath>
</defs>
</svg>
