<svg width="23" height="23" viewBox="0 0 23 23" fill="none" xmlns="http://www.w3.org/2000/svg">
<ellipse cx="16.1613" cy="17.112" rx="1.90134" ry="1.90134" stroke="#121213" stroke-width="1.104"/>
<ellipse cx="6.65476" cy="17.112" rx="1.90134" ry="1.90134" stroke="#121213" stroke-width="1.104"/>
<path d="M10.4573 16.1614H14.26M12.8339 6.65466H13.7303C14.9761 6.65466 15.599 6.65466 16.1271 6.95367C16.6552 7.25267 17.0074 7.8047 17.7116 8.90877C18.2054 9.68295 18.7238 10.2449 19.4527 10.7448C20.1865 11.2482 20.5355 11.4941 20.7292 11.889C20.9146 12.2673 20.9146 12.7152 20.9146 13.611C20.9146 14.792 20.9146 15.3826 20.5829 15.7578C20.5686 15.7739 20.554 15.7896 20.539 15.8049C20.1898 16.1614 19.6401 16.1614 18.5409 16.1614H18.0626" stroke="#121213" stroke-width="1.104" stroke-linecap="round" stroke-linejoin="round"/>
<path d="M12.3586 6.65466L13.3038 9.01761C13.7669 10.1753 13.9985 10.7542 14.4813 11.0811C14.9642 11.408 15.5876 11.408 16.8345 11.408H19.964" stroke="#121213" stroke-width="1.104" stroke-linecap="round" stroke-linejoin="round"/>
<path d="M4.62938 16.1614C3.34338 16.1614 2.70038 16.1614 2.30087 15.7437C1.90137 15.326 1.90137 14.6538 1.90137 13.3094V6.65468C1.90137 5.31023 1.90137 4.63801 2.30087 4.22034C2.70038 3.80267 3.34338 3.80267 4.62938 3.80267H9.63072C10.9167 3.80267 11.5597 3.80267 11.9592 4.22034C12.3587 4.63801 12.3587 5.31023 12.3587 6.65468V16.1614H8.26672" stroke="#121213" stroke-width="1.104" stroke-linecap="round" stroke-linejoin="round"/>
</svg>
