<svg width="62" height="62" viewBox="0 0 62 62" fill="none" xmlns="http://www.w3.org/2000/svg">
<ellipse cx="43.9167" cy="46.5" rx="5.16667" ry="5.16667" stroke="#121213" stroke-width="3"/>
<ellipse cx="18.0832" cy="46.5" rx="5.16667" ry="5.16667" stroke="#121213" stroke-width="3"/>
<path d="M28.4165 43.9167H38.7498M34.8748 18.0833H37.3107C40.696 18.0833 42.3886 18.0833 43.8237 18.8958C45.2588 19.7083 46.2156 21.2084 48.1293 24.2086C49.4713 26.3123 50.8798 27.8393 52.8605 29.1978C54.8547 30.5656 55.8029 31.234 56.3292 32.3072C56.8332 33.3349 56.8332 34.5521 56.8332 36.9864C56.8332 40.1957 56.8332 41.8004 55.9316 42.8201C55.8929 42.8638 55.8532 42.9065 55.8125 42.948C54.8634 43.9167 53.3698 43.9167 50.3827 43.9167H49.0832" stroke="#121213" stroke-width="3" stroke-linecap="round" stroke-linejoin="round"/>
<path d="M33.583 18.0833L36.1514 24.5044C37.4098 27.6504 38.039 29.2234 39.3511 30.1117C40.6632 31 42.3573 31 45.7457 31H54.2497" stroke="#121213" stroke-width="3" stroke-linecap="round" stroke-linejoin="round"/>
<path d="M12.5795 43.9167C9.08501 43.9167 7.33773 43.9167 6.25212 42.7817C5.1665 41.6467 5.1665 39.82 5.1665 36.1667V18.0833C5.1665 14.4299 5.1665 12.6033 6.25212 11.4683C7.33773 10.3333 9.08501 10.3333 12.5795 10.3333H26.1701C29.6647 10.3333 31.4119 10.3333 32.4976 11.4683C33.5832 12.6033 33.5832 14.4299 33.5832 18.0833V43.9167H22.4636" stroke="#121213" stroke-width="3" stroke-linecap="round" stroke-linejoin="round"/>
</svg>
