<svg width="17" height="17" viewBox="0 0 17 17" fill="none" xmlns="http://www.w3.org/2000/svg">
<path d="M13.8399 13.0043L16.1517 15.3149C16.2595 15.4265 16.3191 15.576 16.3178 15.7312C16.3164 15.8864 16.2542 16.0349 16.1445 16.1446C16.0347 16.2543 15.8863 16.3166 15.7311 16.3179C15.5759 16.3193 15.4264 16.2596 15.3148 16.1518L13.003 13.84C11.4923 15.1343 9.539 15.7932 7.55297 15.6784C5.56694 15.5636 3.70257 14.684 2.35107 13.2243C0.999569 11.7645 0.265997 9.838 0.304283 7.84903C0.342569 5.86006 1.14974 3.96322 2.55642 2.55654C3.96309 1.14986 5.85993 0.342691 7.84891 0.304405C9.83788 0.266119 11.7644 0.999691 13.2242 2.35119C14.6839 3.70269 15.5635 5.56706 15.6783 7.55309C15.7931 9.53912 15.1342 11.4924 13.8399 13.0031V13.0043ZM7.99708 14.5076C9.72375 14.5076 11.3797 13.8217 12.6006 12.6008C13.8216 11.3798 14.5075 9.72387 14.5075 7.9972C14.5075 6.27053 13.8216 4.61458 12.6006 3.39364C11.3797 2.1727 9.72375 1.48679 7.99708 1.48679C6.27041 1.48679 4.61446 2.1727 3.39352 3.39364C2.17258 4.61458 1.48666 6.27053 1.48666 7.9972C1.48666 9.72387 2.17258 11.3798 3.39352 12.6008C4.61446 13.8217 6.27041 14.5076 7.99708 14.5076Z" fill="#121213"/>
</svg>
