<svg width="17" height="17" viewBox="0 0 17 17" fill="none" xmlns="http://www.w3.org/2000/svg">
<path d="M13.8398 13.0043L16.1516 15.3149C16.2594 15.4265 16.319 15.576 16.3177 15.7312C16.3163 15.8864 16.2541 16.0349 16.1443 16.1446C16.0346 16.2543 15.8862 16.3166 15.731 16.3179C15.5758 16.3193 15.4263 16.2596 15.3147 16.1518L13.0029 13.84C11.4922 15.1343 9.53887 15.7932 7.55285 15.6784C5.56682 15.5636 3.70245 14.684 2.35095 13.2243C0.999447 11.7645 0.265875 9.838 0.304161 7.84903C0.342447 5.86006 1.14962 3.96322 2.55629 2.55654C3.96297 1.14986 5.85981 0.342691 7.84879 0.304405C9.83776 0.266119 11.7643 0.999691 13.224 2.35119C14.6838 3.70269 15.5634 5.56706 15.6782 7.55309C15.793 9.53912 15.1341 11.4924 13.8398 13.0031V13.0043ZM7.99696 14.5076C9.72363 14.5076 11.3796 13.8217 12.6005 12.6008C13.8215 11.3798 14.5074 9.72387 14.5074 7.9972C14.5074 6.27053 13.8215 4.61458 12.6005 3.39364C11.3796 2.1727 9.72363 1.48679 7.99696 1.48679C6.27029 1.48679 4.61434 2.1727 3.3934 3.39364C2.17246 4.61458 1.48654 6.27053 1.48654 7.9972C1.48654 9.72387 2.17246 11.3798 3.3934 12.6008C4.61434 13.8217 6.27029 14.5076 7.99696 14.5076Z" fill="#121213"/>
</svg>
