<svg width="16" height="12" viewBox="0 0 16 12" fill="none" xmlns="http://www.w3.org/2000/svg">
<path fill-rule="evenodd" clip-rule="evenodd" d="M8.33094 2.60802C10.5468 2.60811 12.678 3.45955 14.2839 4.98635C14.4049 5.10422 14.5982 5.10274 14.7173 4.98302L15.8733 3.81635C15.9336 3.75563 15.9672 3.67338 15.9667 3.58779C15.9662 3.50221 15.9316 3.42036 15.8706 3.36035C11.6555 -0.679198 5.00571 -0.679198 0.790608 3.36035C0.72955 3.42032 0.694906 3.50215 0.694343 3.58773C0.69378 3.67331 0.727344 3.75558 0.787608 3.81635L1.94394 4.98302C2.06297 5.10292 2.25642 5.10441 2.37727 4.98635C3.98343 3.45945 6.11483 2.60801 8.33094 2.60802ZM8.33093 6.40368C9.54842 6.40361 10.7225 6.85614 11.6249 7.67335C11.747 7.78933 11.9393 7.78682 12.0583 7.66768L13.2129 6.50102C13.2737 6.43982 13.3075 6.3568 13.3066 6.27054C13.3057 6.18427 13.2703 6.10196 13.2083 6.04202C10.4601 3.48563 6.20413 3.48563 3.45593 6.04202C3.39385 6.10196 3.35843 6.18432 3.35762 6.27061C3.3568 6.3569 3.39066 6.43991 3.4516 6.50102L4.60593 7.66768C4.72492 7.78682 4.9172 7.78933 5.03926 7.67335C5.94114 6.85668 7.11425 6.40419 8.33093 6.40368ZM10.6439 8.9575C10.6457 9.04401 10.6117 9.12741 10.5499 9.18801L8.5526 11.2037C8.49405 11.2629 8.41422 11.2963 8.33093 11.2963C8.24764 11.2963 8.16782 11.2629 8.10927 11.2037L6.1116 9.18801C6.04989 9.12736 6.01594 9.04394 6.01777 8.95743C6.0196 8.87092 6.05705 8.789 6.12127 8.73102C7.39684 7.65213 9.26503 7.65213 10.5406 8.73102C10.6048 8.78905 10.6422 8.87099 10.6439 8.9575Z" fill="white"/>
</svg>
