<svg width="16" height="12" viewBox="0 0 16 12" fill="none" xmlns="http://www.w3.org/2000/svg">
<path fill-rule="evenodd" clip-rule="evenodd" d="M8.32997 2.60802C10.5459 2.60811 12.677 3.45955 14.283 4.98635C14.4039 5.10422 14.5972 5.10274 14.7163 4.98302L15.8723 3.81635C15.9326 3.75563 15.9662 3.67338 15.9657 3.58779C15.9652 3.50221 15.9306 3.42036 15.8696 3.36035C11.6545 -0.679198 5.00473 -0.679198 0.789632 3.36035C0.728573 3.42032 0.693929 3.50215 0.693366 3.58773C0.692803 3.67331 0.726367 3.75558 0.786632 3.81635L1.94297 4.98302C2.06199 5.10292 2.25544 5.10441 2.3763 4.98635C3.98245 3.45945 6.11386 2.60801 8.32997 2.60802ZM8.32995 6.40368C9.54744 6.40361 10.7215 6.85614 11.624 7.67335C11.746 7.78933 11.9383 7.78682 12.0573 7.66768L13.212 6.50102C13.2728 6.43982 13.3065 6.3568 13.3056 6.27054C13.3047 6.18427 13.2693 6.10196 13.2073 6.04202C10.4591 3.48563 6.20315 3.48563 3.45495 6.04202C3.39288 6.10196 3.35746 6.18432 3.35664 6.27061C3.35583 6.3569 3.38968 6.43991 3.45062 6.50102L4.60495 7.66768C4.72394 7.78682 4.91622 7.78933 5.03829 7.67335C5.94016 6.85668 7.11327 6.40419 8.32995 6.40368ZM10.643 8.9575C10.6447 9.04401 10.6107 9.12741 10.549 9.18801L8.55162 11.2037C8.49307 11.2629 8.41325 11.2963 8.32996 11.2963C8.24667 11.2963 8.16684 11.2629 8.10829 11.2037L6.11062 9.18801C6.04891 9.12736 6.01496 9.04394 6.01679 8.95743C6.01862 8.87092 6.05607 8.789 6.12029 8.73102C7.39586 7.65213 9.26405 7.65213 10.5396 8.73102C10.6038 8.78905 10.6412 8.87099 10.643 8.9575Z" fill="white"/>
</svg>
