<svg width="312" height="50" viewBox="0 0 312 50" fill="none" xmlns="http://www.w3.org/2000/svg">
<path d="M59.7076 4.59543C55.2463 -3.43148 49.8409 6.07725 53.5146 12.7735C55.4376 16.2815 60.0266 17.2665 63.0657 17.5517C65.1194 17.7418 70.8372 18.0096 72.623 17.5473C74.2016 17.1369 76.5455 12.1558 78.848 12.8038C79.0361 15.6594 79.0871 19.1588 79.6324 21.8978C80.063 24.0622 81.2046 25.7946 81.3673 28.1966C81.4916 30.0025 81.0834 31.372 81.0771 33.1087C80.5222 33.2124 80.7741 32.128 80.7614 31.6053C80.6242 26.5766 80.9049 22.9908 76.418 22.3644C72.9324 21.8805 70.0846 23.2068 70.2186 28.5811C70.3015 31.9811 72.3169 32.1885 74.3866 31.3849C72.3679 34.6596 69.4755 31.7651 69.6222 27.7689C69.8136 22.6322 73.9497 20.3857 77.2535 21.4398L73.9082 19.7118C62.1887 18.5237 52.1721 27.959 41.5368 32.4563C31.8295 36.5605 14.3156 42.5699 5.66066 33.5364C-0.0667634 27.5572 -2.24804 12.9118 3.90033 6.52655C9.32799 0.888706 16.4107 6.52656 15.3137 15.5082C15.2691 15.8798 14.8513 17.5344 14.4336 17.5473C17.0517 8.80328 10.2719 4.67751 4.96866 7.96949C0.0289115 11.0368 0.555087 21.7898 3.00742 27.1943C8.58496 39.4766 22.0616 35.2169 30.6942 33.0957L26.9822 32.3008C21.1623 30.1623 17.6704 24.0924 18.6558 15.7069C19.5487 8.10341 27.1417 5.0188 29.0997 13.2272C22.7792 5.37737 16.5893 14.4843 20.2312 24.1659C23.586 33.0871 33.4686 30.8751 39.4161 29.5748C44.713 28.4213 50.0992 26.5074 54.9305 23.3753C49.927 24.1529 44.3112 24.7016 40.9085 18.6144C39.1992 15.5558 38.8134 10.9893 40.0188 7.49427C41.5846 2.95807 46.6711 2.03787 47.918 7.38627C47.1239 7.14002 46.8751 6.11614 45.9503 5.73164C39.0621 2.85439 37.9651 15.7113 43.2301 20.2172C48.4952 24.7232 58.1163 20.5456 63.8597 19.2625L56.407 17.0549C52.4623 14.4541 50.4851 8.98042 52.6345 3.4117C54.3183 -0.95601 59.2835 -0.774571 59.7108 4.57814L59.7076 4.59543Z" fill="#121213"/>
<path d="M50.7794 28.7885C50.9963 29.1168 48.2505 34.7072 47.8583 35.4114C44.9531 40.6302 39.7136 46.4019 34.6431 46.4538C30.4751 46.497 31.2086 41.2091 34.2222 38.9712C36.5533 37.2345 37.8289 37.9084 40.0676 37.3857C44.2898 36.405 47.7881 32.694 50.7794 28.7885Z" fill="#121213"/>
<path d="M55.8842 26.2007C54.1845 30.3352 52.9982 34.5171 53.3362 39.3687C53.4925 41.6238 54.21 42.6391 53.8305 45.2312C53.1672 49.7458 49.7709 51.5646 49.2161 46.2464C48.5846 40.1895 50.2844 34.8455 52.8802 30.1235L55.8842 26.2051V26.2007Z" fill="#121213"/>
<path d="M67.361 21.8805L66.7296 25.3323C66.8763 25.5829 69.9313 21.5954 70.8721 22.5242L64.6536 32.668C62.9506 29.8988 64.2677 25.7903 65.7761 23.3969C65.993 23.0556 67.0453 21.3967 67.361 21.8762V21.8805Z" fill="#121213"/>
<path d="M251.974 4.59543C256.435 -3.43148 261.841 6.07725 258.167 12.7735C256.244 16.2815 251.655 17.2665 248.616 17.5517C246.562 17.7418 240.844 18.0096 239.059 17.5473C237.48 17.1369 235.136 12.1558 232.834 12.8038C232.646 15.6594 232.595 19.1588 232.049 21.8978C231.619 24.0622 230.477 25.7946 230.314 28.1966C230.19 30.0025 230.598 31.372 230.605 33.1087C231.159 33.2124 230.908 32.128 230.92 31.6053C231.057 26.5766 230.777 22.9908 235.264 22.3644C238.749 21.8805 241.597 23.2068 241.463 28.5811C241.38 31.9811 239.365 32.1885 237.295 31.3849C239.314 34.6596 242.206 31.7651 242.059 27.7689C241.868 22.6322 237.732 20.3857 234.428 21.4398L237.773 19.7118C249.493 18.5237 259.51 27.959 270.145 32.4563C279.852 36.5605 297.366 42.5699 306.021 33.5364C311.748 27.5572 313.93 12.9118 307.781 6.52655C302.354 0.888706 295.271 6.52656 296.368 15.5082C296.413 15.8798 296.83 17.5344 297.248 17.5473C294.63 8.80328 301.41 4.67751 306.713 7.96949C311.653 11.0368 311.127 21.7898 308.674 27.1943C303.097 39.4766 289.62 35.2169 280.987 33.0957L284.699 32.3008C290.519 30.1623 294.011 24.0924 293.026 15.7069C292.133 8.10341 284.54 5.0188 282.582 13.2272C288.902 5.37737 295.092 14.4843 291.45 24.1659C288.096 33.0871 278.213 30.8751 272.266 29.5748C266.969 28.4213 261.582 26.5074 256.751 23.3753C261.755 24.1529 267.37 24.7016 270.773 18.6144C272.482 15.5558 272.868 10.9893 271.663 7.49427C270.097 2.95807 265.011 2.03787 263.764 7.38627C264.558 7.14002 264.806 6.11614 265.731 5.73164C272.62 2.85439 273.717 15.7113 268.451 20.2172C263.186 24.7232 253.565 20.5456 247.822 19.2625L255.275 17.0549C259.219 14.4541 261.197 8.98042 259.047 3.4117C257.363 -0.95601 252.398 -0.774571 251.971 4.57814L251.974 4.59543Z" fill="#121213"/>
<path d="M260.903 28.7886C260.686 29.1169 263.432 34.7072 263.824 35.4114C266.729 40.6302 271.969 46.402 277.039 46.4538C281.207 46.497 280.474 41.2091 277.46 38.9713C275.129 37.2345 273.854 37.9085 271.615 37.3858C267.393 36.4051 263.894 32.694 260.903 28.7886Z" fill="#121213"/>
<path d="M255.797 26.2007C257.497 30.3352 258.683 34.5171 258.345 39.3687C258.189 41.6238 257.472 42.6391 257.851 45.2312C258.514 49.7458 261.911 51.5646 262.466 46.2464C263.097 40.1895 261.397 34.8455 258.801 30.1235L255.797 26.2051V26.2007Z" fill="#121213"/>
<path d="M244.321 21.8806L244.952 25.3324C244.805 25.583 241.75 21.5954 240.81 22.5243L247.028 32.6681C248.731 29.8988 247.414 25.7904 245.906 23.397C245.689 23.0557 244.636 21.3967 244.321 21.8763V21.8806Z" fill="#121213"/>
</svg>
