<?xml version="1.0" encoding="UTF-8"?>
<svg id="Calque_1" xmlns="http://www.w3.org/2000/svg" version="1.1" viewBox="0 0 1920 1080">
  <!-- Generator: Adobe Illustrator 29.0.1, SVG Export Plug-In . SVG Version: 2.1.0 Build 192)  -->
  <path d="M888.99,493c-13.99-18.58-30.94,3.43-19.42,18.93,6.03,8.12,20.42,10.4,29.95,11.06,6.44.44,24.37,1.06,29.97-.01,4.95-.95,12.3-12.48,19.52-10.98.59,6.61.75,14.71,2.46,21.05,1.35,5.01,4.93,9.02,5.44,14.58.39,4.18-.89,7.35-.91,11.37-1.74.24-.95-2.27-.99-3.48-.43-11.64.45-19.94-13.62-21.39-10.93-1.12-19.86,1.95-19.44,14.39.26,7.87,6.58,8.35,13.07,6.49-6.33,7.58-15.4.88-14.94-8.37.6-11.89,13.57-17.09,23.93-14.65l-10.49-4c-36.75-2.75-68.16,19.09-101.51,29.5-30.44,9.5-85.36,23.41-112.5,2.5-17.96-13.84-24.8-47.74-5.52-62.52,17.02-13.05,39.23,0,35.79,20.79-.14.86-1.45,4.69-2.76,4.72,8.21-20.24-13.05-29.79-29.68-22.17-15.49,7.1-13.84,31.99-6.15,44.5,17.49,28.43,59.75,18.57,86.82,13.66l-11.64-1.84c-18.25-4.95-29.2-19-26.11-38.41,2.8-17.6,26.61-24.74,32.75-5.74-19.82-18.17-39.23,2.91-27.81,25.32,10.52,20.65,41.51,15.53,60.16,12.52,16.61-2.67,33.5-7.1,48.65-14.35-15.69,1.8-33.3,3.07-43.97-11.02-5.36-7.08-6.57-17.65-2.79-25.74,4.91-10.5,20.86-12.63,24.77-.25-2.49-.57-3.27-2.94-6.17-3.83-21.6-6.66-25.04,23.1-8.53,33.53s46.68.76,64.69-2.21l-23.37-5.11c-12.37-6.02-18.57-18.69-11.83-31.58,5.28-10.11,20.85-9.69,22.19,2.7Z"/>
  <path d="M860.99,549c.68.76-7.93,13.7-9.16,15.33-9.11,12.08-25.54,25.44-41.44,25.56-13.07.1-10.77-12.14-1.32-17.32,7.31-4.02,11.31-2.46,18.33-3.67,13.24-2.27,24.21-10.86,33.59-19.9Z"/>
  <path d="M877,543.01c-5.33,9.57-9.05,19.25-7.99,30.48.49,5.22,2.74,7.57,1.55,13.57-2.08,10.45-12.73,14.66-14.47,2.35-1.98-14.02,3.35-26.39,11.49-37.32l9.42-9.07Z"/>
  <path d="M912.99,533.01l-1.98,7.99c.46.58,10.04-8.65,12.99-6.5l-19.5,23.48c-5.34-6.41-1.21-15.92,3.52-21.46.68-.79,3.98-4.63,4.97-3.52Z"/>
</svg>