<svg width="529" height="96" viewBox="0 0 529 96" fill="none" xmlns="http://www.w3.org/2000/svg">
<path d="M3.43 26.3294L14.07 26.5394H24.85C29.2833 26.5394 32.8533 27.5194 35.56 29.4794C38.3133 31.4394 39.69 34.3094 39.69 38.0894C39.69 41.1227 38.6633 43.6894 36.61 45.7894C34.5567 47.8894 32.4333 49.2194 30.24 49.7794C34.0667 50.4794 37.03 51.9727 39.13 54.2594C41.2767 56.5461 42.35 59.5327 42.35 63.2194C42.35 67.5127 40.46 70.8727 36.68 73.2994C32.9467 75.7261 28.28 76.9394 22.68 76.9394C12.46 76.9394 5.83333 77.1261 2.8 77.4994C2.56667 77.2194 2.45 76.8227 2.45 76.3094L2.52 75.7494C4.94667 75.1894 6.53333 74.3261 7.28 73.1594C7.88667 72.2261 8.28333 71.0594 8.47 69.6594C9.03 65.4127 9.31 59.6261 9.31 52.2994C9.31 36.9461 8.89 29.1294 8.05 28.8494C7.16333 28.6161 5.62333 28.4994 3.43 28.4994C3.33667 28.1727 3.29 27.7994 3.29 27.3794C3.29 26.9594 3.33667 26.6094 3.43 26.3294ZM15.33 50.8994V64.8994C15.33 69.2861 15.47 72.3661 15.75 74.1394C17.43 74.3261 19.39 74.4194 21.63 74.4194C26.4367 74.4194 30.0067 73.6027 32.34 71.9694C34.72 70.3361 35.91 67.6994 35.91 64.0594C35.91 60.3727 34.7433 57.3161 32.41 54.8894C30.0767 52.4627 27.0433 51.2494 23.31 51.2494H20.37C20.09 50.9227 19.95 50.5261 19.95 50.0594L20.37 48.6594H22.4C29.8667 48.6594 33.6 45.4161 33.6 38.9294C33.6 35.7094 32.62 33.2594 30.66 31.5794C28.7 29.8527 26.11 28.9894 22.89 28.9894C19.7167 28.9894 17.4767 29.0827 16.17 29.2694C15.61 31.5094 15.33 38.7194 15.33 50.8994ZM86.0765 59.8594C86.0765 70.2194 80.0565 76.3794 68.0165 78.3394C63.0698 78.3394 58.8932 76.5894 55.4865 73.0894C52.1265 69.5427 50.4465 65.1327 50.4465 59.8594C50.4465 49.4061 56.4898 43.2227 68.5765 41.3094C73.4765 41.3094 77.6065 43.1061 80.9665 46.6994C84.3732 50.2927 86.0765 54.6794 86.0765 59.8594ZM69.5565 75.3294C76.2765 75.3294 79.6365 71.0361 79.6365 62.4494C79.6365 57.5961 78.5165 53.3494 76.2765 49.7094C74.0365 46.0694 71.0732 44.2494 67.3865 44.2494C63.6998 44.2494 61.0165 45.4394 59.3365 47.8194C57.7032 50.1527 56.8865 53.5127 56.8865 57.8994C56.8865 62.2394 58.0298 66.2294 60.3165 69.8694C62.6032 73.5094 65.6832 75.3294 69.5565 75.3294ZM127.297 59.8594C127.297 70.2194 121.277 76.3794 109.237 78.3394C104.291 78.3394 100.114 76.5894 96.7072 73.0894C93.3472 69.5427 91.6672 65.1327 91.6672 59.8594C91.6672 49.4061 97.7105 43.2227 109.797 41.3094C114.697 41.3094 118.827 43.1061 122.187 46.6994C125.594 50.2927 127.297 54.6794 127.297 59.8594ZM110.777 75.3294C117.497 75.3294 120.857 71.0361 120.857 62.4494C120.857 57.5961 119.737 53.3494 117.497 49.7094C115.257 46.0694 112.294 44.2494 108.607 44.2494C104.921 44.2494 102.237 45.4394 100.557 47.8194C98.9239 50.1527 98.1072 53.5127 98.1072 57.8994C98.1072 62.2394 99.2505 66.2294 101.537 69.8694C103.824 73.5094 106.904 75.3294 110.777 75.3294ZM165.648 74.9094C165.881 74.9561 166.278 74.9794 166.838 74.9794C167.398 74.9794 167.911 74.9561 168.378 74.9094C168.565 75.3761 168.658 75.7961 168.658 76.1694C168.658 76.4961 168.611 76.7527 168.518 76.9394C166.371 77.0794 164.411 77.3361 162.638 77.7094C160.911 78.1294 159.955 78.3394 159.768 78.3394C158.695 78.3394 154.961 73.1594 148.568 62.7994C146.095 58.6927 144.718 56.4294 144.438 56.0094L151.298 50.9694C153.865 49.1027 156.245 47.0027 158.438 44.6694C156.898 44.3427 155.171 44.1561 153.258 44.1094C153.118 43.8294 153.048 43.4794 153.048 43.0594L153.258 42.2194C157.085 42.3594 159.605 42.4294 160.818 42.4294C162.031 42.4294 163.805 42.3361 166.138 42.1494C166.418 42.5227 166.558 43.0827 166.558 43.8294L150.248 54.6094C152.675 58.4361 154.985 62.0527 157.178 65.4594C159.371 68.8194 161.098 71.1994 162.358 72.5994C163.618 73.9994 164.715 74.7694 165.648 74.9094ZM147.518 77.1494L141.638 76.9394C137.998 76.9394 134.708 77.1261 131.768 77.4994C131.535 77.2194 131.418 76.8227 131.418 76.3094L131.488 75.7494C133.401 75.3294 134.685 74.6994 135.338 73.8594C136.038 72.9727 136.551 71.5494 136.878 69.5894C137.251 67.5827 137.438 60.2561 137.438 47.6094V29.6894C137.438 25.4427 136.948 22.8527 135.968 21.9194C135.455 21.4061 134.801 21.1027 134.008 21.0094L131.488 20.7294C131.348 20.4961 131.278 20.2161 131.278 19.8894C131.278 19.5161 131.348 19.2127 131.488 18.9794C134.801 18.3727 137.368 17.6261 139.188 16.7394C140.401 16.1327 141.778 15.3161 143.318 14.2894C143.785 14.2894 144.158 14.5227 144.438 14.9894C143.458 21.1027 142.968 32.0461 142.968 47.8194V56.0094C142.968 68.2827 143.248 74.5127 143.808 74.6994C144.415 74.8861 145.651 74.9794 147.518 74.9794C147.658 75.3061 147.728 75.6794 147.728 76.0994C147.728 76.5194 147.658 76.8694 147.518 77.1494Z" fill="#EFE3C8" fill-opacity="0.5"/>
<path d="M264.419 94.288L254.435 94C247.523 94 241.923 94.256 237.635 94.768C237.315 94.384 237.155 93.84 237.155 93.136L237.251 92.368C241.091 91.472 243.523 90.512 244.547 89.488C245.571 88.464 246.179 86.288 246.371 82.96C246.563 79.632 246.659 76.176 246.659 72.592C246.659 68.944 246.467 63.408 246.083 55.984L245.315 40.24C242.371 45.68 237.763 54.928 231.491 67.984C225.283 81.04 221.251 90.352 219.395 95.92H216.707C204.227 67.696 196.227 50.512 192.707 44.368L188.675 37.456C188.419 45.392 188.291 55.088 188.291 66.544C188.291 77.936 188.675 86.096 189.443 91.024C190.851 91.216 193.347 91.312 196.931 91.312C197.123 91.824 197.219 92.4 197.219 93.04C197.219 93.616 197.123 94.032 196.931 94.288L186.083 94C181.667 94 177.955 94.256 174.947 94.768C174.627 94.384 174.467 93.84 174.467 93.136L174.563 92.368C177.699 91.664 179.779 90.64 180.803 89.296C181.891 87.952 182.595 86.192 182.915 84.016C184.451 73.072 185.347 55.824 185.603 32.272C183.875 30.096 181.987 28.56 179.939 27.664C179.683 27.6 177.891 27.344 174.563 26.896L174.275 25.552C174.275 24.912 174.371 24.4 174.563 24.016L189.923 23.632C190.883 23.632 192.515 25.328 194.819 28.72C197.187 32.112 199.523 35.888 201.827 40.048C204.131 44.144 206.787 49.488 209.795 56.08C212.867 62.672 215.427 68.368 217.475 73.168C219.523 77.968 220.675 80.592 220.931 81.04C221.763 79.184 225.699 70.832 232.739 55.984C239.779 41.072 244.419 30.704 246.659 24.88C253.123 24.88 258.275 24.592 262.115 24.016C262.435 24.592 262.595 25.392 262.595 26.416C259.395 27.12 257.251 28.176 256.163 29.584C255.075 30.992 254.467 32.496 254.339 34.096C254.211 35.696 254.147 38.704 254.147 43.12C254.147 47.536 254.339 55.024 254.723 65.584C255.171 76.144 255.843 84.624 256.739 91.024C257.955 91.216 260.515 91.312 264.419 91.312C264.611 91.76 264.707 92.272 264.707 92.848C264.707 93.424 264.611 93.904 264.419 94.288ZM306.049 59.056L305.761 82.48C305.761 87.152 307.265 89.488 310.273 89.488L313.729 89.392C313.985 89.712 314.113 90.224 314.113 90.928L313.921 91.984C308.993 92.88 305.473 94.192 303.361 95.92C301.953 95.536 300.737 94.672 299.713 93.328C298.753 91.92 298.209 90.448 298.081 88.912C292.961 92.048 287.873 94.384 282.817 95.92C280.641 95.92 278.401 94.704 276.097 92.272C273.793 89.776 272.641 86.672 272.641 82.96C272.641 81.104 273.057 79.44 273.889 77.968C274.721 76.432 275.713 75.376 276.865 74.8C281.601 72.432 288.641 70.352 297.985 68.56V59.44C297.985 55.92 297.409 53.296 296.257 51.568C295.169 49.84 293.825 48.976 292.225 48.976C290.689 48.976 289.025 49.264 287.233 49.84C285.441 50.352 284.161 51.376 283.393 52.912C282.689 54.448 282.337 56.624 282.337 59.44C282.337 59.696 281.889 59.984 280.993 60.304C280.161 60.56 279.073 60.688 277.729 60.688C276.449 60.688 275.553 60.4 275.041 59.824C274.593 59.184 274.369 58.256 274.369 57.04C274.369 54.736 276.033 52.24 279.361 49.552C280.129 49.04 282.369 48.176 286.081 46.96C289.857 45.744 292.033 45.136 292.609 45.136C297.217 45.136 300.609 46.48 302.785 49.168C304.961 51.856 306.049 55.152 306.049 59.056ZM281.185 82.48C281.185 84.016 281.793 85.68 283.009 87.472C284.225 89.264 285.601 90.16 287.137 90.16C288.737 90.16 290.561 89.616 292.609 88.528C294.657 87.44 296.353 86.288 297.697 85.072C297.889 81.296 297.985 76.944 297.985 72.016C292.609 72.72 287.873 74.256 283.777 76.624C282.049 77.456 281.185 79.408 281.185 82.48ZM321.905 50.896L318.161 50.992C317.841 50.672 317.681 50.192 317.681 49.552L317.873 48.4C322.225 47.824 325.777 46.928 328.529 45.712C329.425 45.328 329.969 45.136 330.161 45.136C330.865 45.136 331.665 46.416 332.561 48.976C333.457 51.472 334.001 53.968 334.193 56.464C338.993 51.472 343.345 47.696 347.249 45.136C349.809 45.136 351.921 45.904 353.585 47.44C355.249 48.912 356.081 50.768 356.081 53.008C356.081 55.568 353.809 56.848 349.265 56.848C348.305 53.456 346.673 51.76 344.369 51.76C342.833 51.76 339.633 54.416 334.769 59.728C334.385 64.592 334.193 72.336 334.193 82.96C334.193 88.272 334.609 90.96 335.441 91.024C336.913 91.216 339.505 91.312 343.217 91.312C343.409 91.76 343.505 92.272 343.505 92.848C343.505 93.424 343.409 93.904 343.217 94.288L332.465 94C327.217 94 322.577 94.256 318.545 94.768C318.225 94.384 318.065 93.84 318.065 93.136L318.161 92.368C321.553 91.728 323.729 90.736 324.689 89.392C325.393 88.368 325.905 86.736 326.225 84.496C326.545 82.192 326.705 77.712 326.705 71.056C326.705 64.4 326.673 60.72 326.609 60.016C326.609 59.312 326.577 58.384 326.513 57.232C326.449 56.08 326.321 55.216 326.129 54.64C325.937 54.064 325.649 53.424 325.265 52.72C324.625 51.504 323.505 50.896 321.905 50.896ZM404.834 91.216C405.154 91.28 405.698 91.312 406.466 91.312C407.234 91.312 407.938 91.28 408.578 91.216C408.834 91.856 408.962 92.432 408.962 92.944C408.962 93.392 408.898 93.744 408.77 94C405.826 94.192 403.138 94.544 400.706 95.056C398.338 95.632 397.026 95.92 396.77 95.92C395.298 95.92 390.178 88.816 381.41 74.608C378.018 68.976 376.13 65.872 375.746 65.296L385.154 58.384C388.674 55.824 391.938 52.944 394.946 49.744C392.834 49.296 390.466 49.04 387.842 48.976C387.65 48.592 387.554 48.112 387.554 47.536L387.842 46.384C393.09 46.576 396.546 46.672 398.21 46.672C399.874 46.672 402.306 46.544 405.506 46.288C405.89 46.8 406.082 47.568 406.082 48.592L383.714 63.376C387.042 68.624 390.21 73.584 393.218 78.256C396.226 82.864 398.594 86.128 400.322 88.048C402.05 89.968 403.554 91.024 404.834 91.216ZM379.97 94.288L371.906 94C366.914 94 362.402 94.256 358.37 94.768C358.05 94.384 357.89 93.84 357.89 93.136L357.986 92.368C360.61 91.792 362.37 90.928 363.266 89.776C364.226 88.56 364.93 86.608 365.378 83.92C365.89 81.168 366.146 71.12 366.146 53.776V29.2C366.146 23.376 365.474 19.824 364.13 18.544C363.426 17.84 362.53 17.424 361.442 17.296L357.986 16.912C357.794 16.592 357.698 16.208 357.698 15.76C357.698 15.248 357.794 14.832 357.986 14.512C362.53 13.68 366.05 12.656 368.546 11.44C370.21 10.608 372.098 9.488 374.21 8.08C374.85 8.08 375.362 8.4 375.746 9.04C374.402 17.424 373.73 32.432 373.73 54.064V65.296C373.73 82.128 374.114 90.672 374.882 90.928C375.714 91.184 377.41 91.312 379.97 91.312C380.162 91.76 380.258 92.272 380.258 92.848C380.258 93.424 380.162 93.904 379.97 94.288ZM435.679 89.008C440.927 89.008 445.567 87.6 449.599 84.784C450.495 85.104 451.007 85.776 451.135 86.8L440.767 94.096C439.231 95.312 435.807 95.92 430.495 95.92C425.183 95.92 420.671 93.552 416.959 88.816C413.247 84.016 411.391 77.968 411.391 70.672C411.391 63.376 413.407 57.616 417.439 53.392C421.471 49.168 426.271 46.416 431.839 45.136C436.703 45.136 440.991 46.768 444.703 50.032C446.943 51.952 448.511 54.448 449.407 57.52C449.599 58.288 450.495 58.704 452.095 58.768C452.479 59.216 452.671 59.696 452.671 60.208C452.671 60.656 452.607 61.136 452.479 61.648C441.215 64.272 430.143 66.096 419.263 67.12C419.263 75.312 421.535 81.456 426.079 85.552C428.639 87.856 431.839 89.008 435.679 89.008ZM441.727 59.728C442.047 59.536 442.207 59.312 442.207 59.056C442.207 58.736 441.791 57.84 440.959 56.368C440.191 54.832 438.815 53.232 436.831 51.568C434.847 49.84 432.767 48.976 430.591 48.976C428.415 48.976 426.815 49.296 425.791 49.936C422.207 52.368 420.159 56.784 419.647 63.184C423.103 63.184 427.039 62.832 431.455 62.128C435.871 61.36 439.295 60.56 441.727 59.728ZM474.425 73.36C474.425 83.984 476.249 89.296 479.897 89.296C482.585 89.296 486.073 88.4 490.361 86.608C491.321 86.928 491.801 87.824 491.801 89.296C487.129 91.792 481.753 94 475.673 95.92C472.665 95.92 470.361 94.384 468.761 91.312C467.225 88.24 466.457 84.112 466.457 78.928V56.656C466.457 52.88 466.233 50.992 465.785 50.992L458.681 51.088C458.233 50.96 458.009 50.64 458.009 50.128C458.329 49.488 458.617 48.336 458.873 46.672H465.689C466.201 46.672 466.457 45.552 466.457 43.312L466.361 35.152C468.729 34.192 471.161 32.208 473.657 29.2C474.425 29.2 475.001 29.392 475.385 29.776C474.809 36.496 474.521 42.128 474.521 46.672C479.193 46.672 483.801 46.448 488.345 46C488.793 46.256 489.017 46.64 489.017 47.152C488.633 47.792 488.313 48.976 488.057 50.704L474.425 50.896V73.36Z" fill="#EFE3C8"/>
</svg>
