<?xml version="1.0" encoding="UTF-8"?>
<svg id="Calque_1" xmlns="http://www.w3.org/2000/svg" version="1.1" viewBox="0 0 1920 1080">
  <!-- Generator: Adobe Illustrator 29.0.1, SVG Export Plug-In . SVG Version: 2.1.0 Build 192)  -->
  <defs>
    <style>
      .st0 {
        fill: #704341;
      }

      .st1 {
        fill: #eaeaea;
      }
    </style>
  </defs>
  <path class="st1" d="M823.78,427.69c13.11,13.34,24.87,27.56,39.52,39.98,10.45,8.86,30.21,18.73,30.52,34.57.11,5.71-3.23,12.17-8.74,14.24-26.12,9.84-52.65-19.04-70.79-33.83-14.09,10.62-30.93,12.19-47.77,8.19-16.73,20.28-43.83,36.62-37.72,66.85l-50.98-54.52c-56.3-79.41,47.23-174.34,120.01-102.01,8.66,8.6,17.62,18.03,25.97,26.53h-.02Z"/>
  <path class="st1" d="M896.78,584.69c.31.34,4.13,7.15,4.49,8,5.57,13.04-7.69,23.94-20.49,18.99.03,13.45-11.9,16.58-23,13,.96,11.41-12.05,18.06-21,11.01-11.92-9.39-1.73-29.7,12.99-24-1.56-10.24,5.48-18.56,16-18-3.48-12.99,10.13-24.86,21.5-17,.89.61,9.08,7.53,9.5,8h.01Z"/>
  <g>
    <path class="st0" d="M919.78,558.69c-.2-.24-4.94-2.9-5.43-3.08-11.57-4.31-20.58,3.45-18.52,15.53.15.9,4.56,9.17,4.94,9.55l-4,4c-.42-.47-8.61-7.39-9.5-8-11.37-7.87-24.98,4-21.5,17-10.52-.56-17.56,7.76-16,18-14.73-5.69-24.92,14.61-12.99,24-13.87,3.06-27.46-.68-38.91-8.59-19.46-13.45-37.66-32.93-57.12-46.88-5.52-5.72-10.39-14.74-11.97-22.53-6.11-30.23,20.99-46.57,37.72-66.85,16.84,4.01,33.69,2.43,47.77-8.19,18.15,14.79,44.68,43.67,70.79,33.83,5.52-2.08,8.85-8.53,8.74-14.24-.3-15.83-20.06-25.71-30.52-34.57-14.65-12.42-26.41-26.64-39.52-39.98,18.08-15.95,34.15-46.11,58.95-51.55,13.65-3,27.83-.11,39.37,7.74l83.11,67.89c3.8,6.63-1.77,10.06-8,7-24.13-18.72-46.96-39.17-70.95-58.05-7.16-5.63-19.19-17.12-27.97-18.02-19.59-2.02-36.84,22-22.04,38.04l85.45,69.55c4.83,6.19,5.82,14.1.5,20.33l-42.42,48.08h.02Z"/>
    <path class="st0" d="M895.5,390.88c1.92-.59,4.22-.51,5.82.78,26.02,23.67,57.35,44.28,82.94,68.05,5.44,5.06,10.49,12.34-1.46,10.45-25.54-22.18-52.97-42.31-78.49-64.5-2.81-2.44-16.62-12.4-8.81-14.78h0Z"/>
    <path class="st0" d="M891.37,408.1c27.71,19.67,53.58,46.94,81.42,67.08,8.85,8.55,2.63,12.9-6.92,5.92-28.02-20.48-54.08-47.02-82.1-67.9-7.61-7.6-1.24-11.38,7.6-5.1Z"/>
  </g>
  <path class="st1" d="M919.78,558.69c.31.36,3.83,7.86,3.94,8.55,1.44,8.79-2.73,17.53-12.46,17.45-1.85-.01-9.46-2.96-10.49-4-.38-.38-4.79-8.65-4.94-9.55-2.06-12.08,6.95-19.84,18.52-15.53.49.18,5.22,2.84,5.43,3.08Z"/>
</svg>