<svg width="125" height="79" viewBox="0 0 125 79" fill="none" xmlns="http://www.w3.org/2000/svg">
<path d="M71.695 22.3818H52.7529V56.1043H71.695V22.3818Z" fill="#FF5F00"/>
<path d="M53.957 39.2434C53.954 35.9957 54.6968 32.7898 56.1293 29.8686C57.5618 26.9473 59.6464 24.3873 62.2253 22.3821C59.0317 19.8953 55.1964 18.3488 51.1576 17.9194C47.1188 17.4899 43.0395 18.1948 39.386 19.9536C35.7325 21.7124 32.6522 24.454 30.4971 27.8651C28.342 31.2762 27.1992 35.2192 27.1992 39.2434C27.1992 43.2675 28.342 47.2105 30.4971 50.6216C32.6522 54.0328 35.7325 56.7744 39.386 58.5332C43.0395 60.2919 47.1188 60.9969 51.1576 60.5674C55.1964 60.138 59.0317 58.5914 62.2253 56.1046C59.6464 54.0995 57.5619 51.5394 56.1294 48.6182C54.6969 45.6969 53.954 42.4911 53.957 39.2434Z" fill="#EB001B"/>
<path d="M97.2506 39.2434C97.2507 43.2675 96.108 47.2104 93.9531 50.6216C91.7981 54.0327 88.7179 56.7743 85.0645 58.5331C81.411 60.2919 77.3318 60.9968 73.2931 60.5674C69.2543 60.138 65.419 58.5914 62.2256 56.1046C64.8022 54.0975 66.8851 51.537 68.3174 48.6162C69.7497 45.6954 70.4939 42.4906 70.4939 39.2434C70.4939 35.9962 69.7497 32.7914 68.3174 29.8706C66.8851 26.9498 64.8022 24.3893 62.2256 22.3821C65.419 19.8953 69.2543 18.3488 73.2931 17.9194C77.3318 17.4899 81.411 18.1949 85.0645 19.9537C88.7179 21.7124 91.7981 24.4541 93.9531 27.8652C96.108 31.2763 97.2507 35.2193 97.2506 39.2434Z" fill="#F79E1B"/>
<path d="M95.1847 52.5326V51.8422H95.4656V51.7016H94.75V51.8422H95.0311V52.5326H95.1847ZM96.574 52.5326V51.7002H96.3547L96.1024 52.2728L95.85 51.7002H95.6305V52.5326H95.7854V51.9047L96.022 52.4461H96.1826L96.4193 51.9033V52.5326H96.574Z" fill="#F79E1B"/>
<rect x="0.5" y="0.5" width="124" height="77.0741" rx="7.5" stroke="black" stroke-opacity="0.8"/>
</svg>
