<svg width="125" height="79" viewBox="0 0 125 79" fill="none" xmlns="http://www.w3.org/2000/svg">
<path d="M73.1848 27.7773C68.1718 27.7773 63.6919 30.4066 63.6919 35.2645C63.6919 40.8355 71.6371 41.2203 71.6371 44.019C71.6371 45.1974 70.3025 46.2523 68.0232 46.2523C64.7883 46.2523 62.3705 44.7783 62.3705 44.7783L61.336 49.6804C61.336 49.6804 64.1212 50.9255 67.819 50.9255C73.2998 50.9255 77.6126 48.1671 77.6126 43.2262C77.6126 37.3394 69.6343 36.9661 69.6343 34.3684C69.6343 33.4452 70.7298 32.4338 73.0027 32.4338C75.5672 32.4338 77.6595 33.5058 77.6595 33.5058L78.6719 28.7712C78.6719 28.7712 76.3953 27.7773 73.1848 27.7773ZM27.3206 28.1347L27.1992 28.8493C27.1992 28.8493 29.3082 29.2399 31.2077 30.019C33.6534 30.9124 33.8276 31.4325 34.2395 33.0479L38.728 50.557H44.7449L54.0142 28.1347H48.0112L42.0551 43.3797L39.6246 30.4573C39.4017 28.9783 38.2727 28.1347 36.8907 28.1347H27.3206ZM56.4281 28.1347L51.719 50.557H57.4434L62.136 28.1347H56.4281ZM88.3551 28.1347C86.9748 28.1347 86.2434 28.8825 85.7067 30.1893L77.3201 50.557H83.3232L84.4846 47.1624H91.798L92.5043 50.557H97.8011L93.1802 28.1347H88.3551ZM89.1359 34.1925L90.9152 42.6065H86.1481L89.1359 34.1925Z" fill="#222221"/>
<rect x="0.5" y="0.5" width="124" height="77.7037" rx="7.5" stroke="black" stroke-opacity="0.8"/>
</svg>
