<svg width="125" height="79" viewBox="0 0 125 79" fill="none" xmlns="http://www.w3.org/2000/svg">
<path fill-rule="evenodd" clip-rule="evenodd" d="M45.8917 37.9796H64.0704C63.9084 34.0502 62.9929 29.9991 60.216 27.397C56.9084 24.2972 51.1147 23.1475 45.9378 23.1475C40.5496 23.1475 34.5908 24.4086 31.2656 27.7343C28.3982 30.5993 27.7783 35.2088 27.7783 39.3502C27.7783 43.6884 28.9911 48.7345 32.1017 51.6412C35.4093 54.7338 40.7691 55.5549 45.9378 55.5549C50.9591 55.5549 56.3982 54.6278 59.6867 51.6917C62.9658 48.7588 64.0992 43.819 64.0992 39.3502V39.3294H45.8917V37.9796ZM65.2906 39.3301V54.8303H90.5788V54.8093C94.279 54.6076 97.2228 51.2713 97.2228 47.175C97.2228 43.0769 94.279 39.5266 90.5788 39.3232V39.3301H65.2906ZM90.2908 23.7965C93.8973 23.7965 96.7598 26.9257 96.7598 30.8743C96.7598 34.6123 94.1309 37.6651 90.7867 37.9799H65.2901V23.7739H89.4929C89.6418 23.7556 89.8154 23.7685 89.985 23.781C90.0908 23.7887 90.195 23.7965 90.2908 23.7965Z" fill="#222221"/>
<rect x="0.5" y="0.5" width="124" height="77.7037" rx="7.5" stroke="black" stroke-opacity="0.8"/>
</svg>
